<?xml version="1.0" encoding="utf-8"?>
<!-- Generator: Adobe Illustrator 21.0.2, SVG Export Plug-In . SVG Version: 6.00 Build 0)  -->
<svg version="1.1" id="Layer_1" xmlns="http://www.w3.org/2000/svg" xmlns:xlink="http://www.w3.org/1999/xlink" x="0px" y="0px"
	 viewBox="0 0 960 500" style="enable-background:new 0 0 960 500;" xml:space="preserve">
<style type="text/css">
	.st0{fill:#B97E1A;stroke:#FFFFFF;}
	.st1{fill:#819498;stroke:#FFFFFF;}
	.st2{fill:#CCCCCC;stroke:#FFFFFF;}
	.st3{fill:#2C6543;stroke:#FFFFFF;}
	.st4{fill:#B1CFBD;stroke:#FFFFFF;}
	.st5{fill:#2D4D53;stroke:#FFFFFF;}
	.st6{fill:#D5B276;stroke:#FFFFFF;}
</style>
<path class="st0" d="M600.1,154.6l2.2,0.9l1.4-0.4l0.1-1.2l1.4-0.5l0.9-0.9l-0.2-2.1l1.5-0.6l0-1l1.1,0.7l0.6,0.1l1.1,0l1.6,0.5
	l0.7,0.3l1.2-0.9l0.8,0.5l0.3-1.2l1.2,0l0.2-0.4l-0.1-1.1l0.5-1l1.2,0.6l0,0.8l0.6,0.1l0.5,2.3l1,0.8l0.5-0.6l0.8-0.3l0.8-1.3
	l1.4,0.1l2-0.1l0.6,0.8l-1,0.4l-0.8,0.5l-2.1,0.4l-1.9,0.7l-0.8,1.2l0.8,1.1l0.6,1.3l-0.7,1.2l0.4,1l-0.3,1l-1.9,0l1.2,1.7l-1.1,0.7
	l-0.4,1.6l0.5,1.6l-0.6,0.8l-0.8-0.2l-1.4,0.4l0,0.8l-1.5,0l-0.8,1.6l0.4,2.3l-2.4,1.2l-1.4-0.2l-0.3,0.6l-1.3-0.3l-1.9,0.5
	l-3.6-1.3l1.3-2.5l-0.5-1.7l-1.6-0.4l-0.5-1.7l-1.1-2.1l0.5-1.5l-0.9-0.4l0.1-2L600.1,154.6z"/>
<path class="st0" d="M514.9,265.4l0.5,2l0.6,1.6l0.5,0.8l0.8,1.4l1.4-0.2l0.7-0.4l1.2,0.4l0.3-0.7l0.6-1.5l1.3-0.1l0.1-0.5l1.1,0
	l-0.2,0.9l2.6,0l0,1.7l0.4,1l-0.3,1.6l0.1,1.6l0.7,1l-0.2,3.1l0.5-0.2l0.9,0.1l1.3-0.4l1,0.2l0.2,0.8l-0.3,1.3l0.3,1.2l-0.3,1
	l0.2,0.9l-4.4-0.1l-0.4,8.4l1.3,2.2l1.3,1.6l-3.9,1l-5.1-0.4l-1.4-1.3l-8.5,0.1l-0.3,0.2l-1.2-1.2l-1.4-0.1l-1.3,0.4l-1,0.5
	l-0.2-1.6l0.3-2.3l0.8-2.4l0.1-1.1l0.7-2.4l0.5-1.1l1.2-1.7l0.7-1.2l0.3-1.9l-0.1-1.5l-0.6-0.9l-0.5-1.6l-0.5-1.6l0.1-0.5l0.7-1
	l-0.6-2.5l-0.4-1.8l-1.1-1.7l0.2-0.5l0.9-0.4l0.6,0l0.8-0.3L514.9,265.4z M506.6,264.9l-0.5,0.3l-0.6-2l0.9-1.1l0.6-0.4l0.8,0.9
	l-0.8,0.6l-0.4,0.7L506.6,264.9z"/>
<path class="st1" d="M519.1,140.2l-0.2,0.9l0.4,1.1l0.9,0.6l0,0.7l-0.6,0.4l0,0.9l-0.8,1.3l-0.3-0.2l-0.1-0.6l-1.1-0.9l-0.3-1.2
	l0-1.8l0.2-0.8l-0.4-0.4l-0.2-0.8l0.7-1.3l0.2,0.5l0.5-0.2l0.5,0.7l0.5,0.3L519.1,140.2z"/>
<path class="st2" d="M586.3,185.5l0.3-0.1l0.2,0.7l1.6-0.5l1.7,0l1.3,0.1l1.2-1.8l1.3-1.7l1-1.7l0.5,0.9l0.6,2.1l-1,0l0.1,1.7
	l0.4,0.4l-0.9,0.5l0.1,1.1l-0.5,1.1l0.1,1.1L594,190l-6.4-1.2l-1.1-2.7L586.3,185.5z"/>
<path class="st3" d="M368.9,397.4l-1.5,0.2l-1.3-0.9l-1,0l-1.8,0.1l-2.5-5.9l1.2,1.2l1.7,1.9l2.9,1.5l2.6,0.5L368.9,397.4z
	 M345.3,309.3l1.5,1.9l0.5-2.2l2.4,0.1l0.4,0.6l4.4,4.3l1.7,0.4l2.8,1.9l2.3,1l0.5,1.2l-1.4,4.1l2.2,0.7l2.3,0.3l1.5-0.5l1.5-2.1
	l0-2.4l0.9-0.5l1.3,1.5l0.3,2.1l-1.5,1.5l-1.2,1.1l-1.8,2.6l-2,3.7l-0.1,2.1l0,2.7l0.6,2.6l-0.3,0.6l0.2,1.7l0.2,1.4l3,2.2l0.1,1.8
	l1.5,1.1l0.2,1.3l-1.1,3.5l-2.5,1.5l-3.7,0.7l-2.2-0.2l0.8,1.6l0.2,2l0.7,1.3l-0.9,1l-1.8,0.4l-2.1-0.9l-0.5,0.7l1.1,2.6l1.5,0.7
	l0.8-0.9l1,1.4l-1.5,0.9l-1,1.7l0.6,2.7l0,1.4l-1.7,0.1l-1,1.4l0.2,2l2.5,1.8l1.9,0.5l0.2,2.4l-1.6,1.6l0,3.2l-1.2,1.1l-0.2,1.3
	l1.7,2.7l1.8,1.5l-0.8-0.1l-1.8-0.3l-4.3-0.1l-1.4-1.5l-0.8-2l-1.1,0.2l-1-0.9l-1.3-2.8l0.9-1.2l-0.1-1.7l-0.7-1.3l0.1-2.3l-0.7-3.5
	l-0.8-1.5l0.6-0.5l-0.6-1l-1-0.5l0.2-1.1l-1.2-1l-1.5-3l0.6-0.6l-1.4-3.2l-0.4-2.8l-0.2-2.4l0.8-1l-1.4-2.6l-0.7-2.5l1-1.8l-0.7-2.2
	l0.4-2.7l-0.6-2.5l-0.6-0.5l-2-4.6l0.6-2.8l-0.8-2.6l0.2-2.5l0.8-2.6l1.1-1.7l-0.8-1l0.3-0.9l-0.9-4.5l2-1.4l0.2-2.8l-0.4-0.7
	l1.3-2.5L345.3,309.3z"/>
<path class="st1" d="M563.1,141.3l2.6-0.5l0.5,0.7l0.8,0.4l-0.2,0.7l1.2,0.9l-0.4,0.9l1,0.7l0.9,0.4l0.4,1.8l-0.7,0.1l-1.1-1.5
	l-0.1-0.4l-0.8,0l-0.7-0.7l-0.4,0.1l-0.9-0.7l-1.5-0.6l-0.1-1.3L563.1,141.3z"/>
<path class="st2" d="M411.8,460.9l0.5,1.3l0.5,1.1l-2.5-0.3l-2.3,0.2l-2-0.8l-0.1-0.1l-1.2-0.7l2.6,0l2.6,0.1l0.1-1.1l0-0.9
	L411.8,460.9z M305.9,467.5l-1.3,0.5l-2.6-0.5l-1.9-0.6l-0.3-0.1l-1.7-0.4l-0.9-0.8l2.4,0.1l2.1,0.5l2.1,0.6L305.9,467.5z
	 M425.6,455.2l2,1.1l1.2,1.5l0.7,1.1l0.7,1.3l-1.4,0.9l-1.5,0.7l-1.8,0.7l-2,0.6l-2.7-0.1l-2-0.8l-0.4-1l2-0.8l0.5-0.9l0.1-1.1l0-1
	l0.2-0.9l0.2-1.1l0,0l0.6,0l1.5-0.6L425.6,455.2z M325.4,450.1l2,0.2l0.9-0.6l0.4,0.9l-0.3,0.7l-1.8,0l-2.2-0.7l0,0l-0.7-0.8
	L325.4,450.1z M320.3,450.6l2.9,0.7l-0.8,0l-1.8-0.1l-2.4-0.4l0,0l0.2-0.6L320.3,450.6z M348.1,443.7l1.7,0.2l1.1-0.4l2.1,1.3
	l-1.2-0.1l-1.4,0.2l-1.6,0l-1.5,0.3l-1.7-0.4l-1.7-0.9l0.4-0.5l1.9,0.2L348.1,443.7z M385.9,438.4l0.9,1.1l0.4,1l0.3,1l-1.3,0.4
	l-1.1,0.6l-1.7,0.1l0-1l-1.3,0.4l-1.2,0.4l-1.5-0.7l-0.8-1l0.7-1.1h0l0.7-0.4l1.6,0l-0.5-1.3l-0.5-1l-1.4-2l0-1.2l1-0.5l1.3,0.9
	l0.9,0.9l1.3,1.1l1.1,1.1L385.9,438.4z M308.3,478.2L308.3,478.2l-1.6-0.9l2.8,0.4l0-0.1l-0.4-0.6l0.2,0l0.1,0l2.9,0.6l-0.6-0.7
	l0-0.1l1.8-0.5l1.8,0.3l0.9,0.2l2.6,0.5l3.5,0.3l3.2,0.4l4.3,0.2l1.4-0.6l4.5,0.1l3.3,0.4l1.2-0.7l1.4-0.6l-1.6-0.9l-3.7,0.1
	l-3.8-0.2l-2.3-0.7l-3.2-0.2l-1.6-0.8l-1.2-0.8l-1.1-0.7l-1.7-0.8l-2.6-0.4l-2.1-0.6l-2.6-0.4l2.5-0.1l1.6-0.5l2.6,0.5l0.6-0.7
	l0.2-0.9l-0.5-0.7l-1.8-0.8l-2.3-0.4l-2.5-0.4l-2.2,0.1l-2.2-0.1l-2.2,0l-2-0.7l-2.4-0.5l-2.1-0.6l-4.6-2.2l0.8,0.1l2,0.5l1.3-0.4
	l1.1-0.5l2.4,0.8l1.2-0.4l0.5-0.6l0.3-0.7l0-0.8l1.2-0.4l-1.3-0.8l-1.7-0.7l-0.9-0.8l0.7-0.6l1.8,0.6l0.9-0.6l0.4-0.7l1.5-0.2
	l1.1-0.4l0.7-0.7l0.5-0.6l0.6-0.6l1.1,0l1,0.1l1.2-0.5l2,0.2l1.5-0.2l1-0.5l1.8,0.1l2,0l1.5-0.3l1.7-0.1l1.8-0.1l1.5-0.3l0.3-0.8
	l1-0.5l2.1,0.4l0.9-0.6l0.3-1l1.6,0.7l1.4,0.8l1.7,0.7l0.4-0.8l2.4,0.7l1.9,0.1l2.1,0.5l1.5-0.3l1-0.6l1.9-0.1l1.9,0.2l2.1,0.3
	l-0.5-1.1l-1.6-0.7l-1.5-0.8l-1.7-0.1l-1.6-0.8l-1.2-0.9l-2.3-1.8l1.3,0.2l1.8,0l1.4-0.3l1.8,0.3l2,0.6l1.4,0.8l1.8,0l1.3-0.5
	l1.2-0.6l1.3-0.4l1.8,0.5l1.5-0.3l-0.6-2l2,1l1.8,0.3l1.4-0.4l1.9,0.9l1.7,0l1.8,0.2l1.9,0.4l0.2-1l-0.2-0.9l2,0.9l1.5-0.4l1.7,0.5
	l1.5,0.8l1.5-0.3l0.9-0.6l0.8-0.7l1.3-0.4l1.6-0.4l1.4-0.4l0.9-0.6l0.2-0.8l-0.4-1.1l-0.8-1l-1-1l-1.1-1l-1-1l-0.9-0.9l-0.7-1
	l-0.5-1l0.1-1l-0.1-1.1l-0.4-1l-0.9-1.1l-0.8-1l0-1.2l0.4-0.8l0.4-1l0.6-0.9l0.8-0.8l0-1.1l0.4-0.8l0.6-0.7l1.4-0.2l0.5-0.9l0.8-0.6
	l1.1-0.4l0.8-0.7l0.5-0.9l1.1-0.4l1.2,0.6l-0.2,0.9l-1.2,0.8l0,0l-0.4,0.6l-1.3-0.3l-1.1,0.3l-0.7,0.7l-0.8,0.7l-0.3,0.8l0.3,1
	l0.6,1l1.1,0.8l-0.7,0.7l-1.3,0.3l-0.3,0.9l-0.4,0.9l-0.3,1.2l0.3,1l1.1,1l1.2,0.8l1.5,0.5l1.5,0.7l1.1,1l0.8,0.9l1,1l1.1,0.8
	l0.9,0.9l1.5,2.3l0.9,0.9l0.7,1l1,1l0.6,1.4l-0.1,1.1l-0.2,0.9l-1.5,0.4l0,0.9l-0.2,0.9l-1.2,1l-1.4,0.5l-1.2,0.6l-1.3,0.6l-0.2,1.1
	l-1.8,0.2l-2.2,0l-1.7,0.3l-2,0.1l1.2,1l2.2,0.3l1.9,0.6l1.4,0.8l-0.7,0.8L389,457l-1.1,0.7l0.8,1l0.8,1l2,0.7l1,0.9l2.2,0.8
	l2.7,0.3l2.5,0.6l2.2,0.7l2.6,0.7l3,0.3l3.1,0.6l2.4,0.7l2.6,0.8l1.9,1.1l1.2,0.9l0.7-0.9l1.2-0.8l1.3-0.8l1.8-0.7l1.5-0.8l2.7-0.1
	l2.8,0.3l2.5,0.5l0.2-1.1l1.2-0.8l2.8-0.1l2-0.6l1.9-0.6l2.2-0.4l2.3-0.5l1.5-0.7l-1.1-0.9l-0.8-0.9l-0.3-1l-2.2,0.1l-2.2,0.5
	l-2.3,0.1l-0.7-1l-0.6-1.9l0.3-0.6l1.5-0.7l1.8-0.7l1.2-0.8l1.2-0.8l0.8-1l1.6-0.5l1.6-0.4l0.8-0.2l1.9-0.1l1.8-0.4l1.4-0.5l1.4-0.6
	l1.3-0.6l1.6-0.8l1-0.9l1.1-0.8l0.2-1l-1.5-0.6l0.3-1.1l0.8-0.8l1.3-0.5l1.4-0.6l1.3-0.8l1-1l0.5-1.2l0.9-0.7l1.7,0.1l0.7,0.9
	l1.7,0.1l0-1l0.6-1l1.5,0.2l0.4,1l1.7,0.1l1.8-0.5l1.7-0.3l1.6,0.2l0.6,1.1l1.5-0.9l1.4-0.5l1.6-0.4l1.6-0.4l1.4-0.6l1.6-0.4
	l1.2-0.6l0.9-0.9l1,0.7l1.5-0.3l0.9,1.2l0.7,0.9l1.6-0.5l0.7-1l1.5-0.7l1.8,0.2l0.4,1l1.3-1l1.6-0.3l1.7-0.1l1.5,0.1l1.5,0.3
	l1.5,0.2l0.5,0.9l0.7,0.8l1.6-0.4l1.7-0.1l1.6,0l1.6,0l1.5-0.3l1.6-0.3l1.4-0.7l1.4-0.4l1.5-0.2l1.3-0.7l1.2-1.4l1.1-0.8l1.4,0.5
	l0.3,0.9l1,0.6l1.5-0.2l0.7,0.9l0.8,0.7l1.6-0.6l0.9-1.1l1.4-0.4l1.8-0.8l1.5-0.3l1.9-0.4l1.3-0.5l1.4-0.6l1.4-0.5l1.2,0.4l1.7-0.9
	l1.2-0.7l1.3,0.1l1.5-0.6l0.7-0.9l1.5-0.7l1.4-0.5l1.6-0.3l1.4-0.1l1.2,0.2l1.3,0.3l0.8,0.8l-0.4,1.1l0.9,0.9l0.5,0.8l1.6,0.4
	l0.6,0.8l0.8,0.8l1.3,0.2l1.4-0.4l1.8-1l1,0.6l1.2,0.4l1.2,0.4l1.3,0.3l1.4,0.1l-0.5,2.7l-0.5,0.6l-0.9,1.1l-1.7,0.6l-1.7,0.9
	l-0.4,1l1.5,0l-0.8,1l-1.3,0.9l-1.3,1l0.5,0.9l1.3,0.3l1.8-0.4l1.4-1l1.1-0.9l1.3-0.8l1.3-0.7l0.9-0.9l1.6-1.2l1-0.2l1.6,0l1.6-0.2
	l1.7-0.3l1.4-0.9l1.1-0.9l1.6-0.9l1.8-0.6l1.5-0.4l1.4-0.8l1.1-0.4l1.3-0.3l1.2,0.4l1.4-0.2l1.6-0.2l1.4,0.3l1.5-0.6l2-1.6l0,0.7
	l-0.3,1.2l0.8,0.6l1.2,0.3l1.6-0.2l1.2,0.3l1.3,0.2l1.1-0.2l1,0.2l0.6,0.6l1.5-0.2l1.5,0.1l1.6-0.2l1.1,0.5l1.6-0.8l1.4-0.8l1.5-0.6
	l3.4-1.7l0.6,0.4l0.4,0.8l0.1,1l0.3,1.7l1.3,0.2l1.2,0.1l1.7-0.1l1.8-0.2l1.8-0.6l1.6-0.6l1.6,0.1l1.5-0.4l0.6,0.6l-0.1,0.9l0.2,0.9
	l1.6,0.1l0.3,0.7l0.9,0.8l1.4,0.4l1.6,0l1.8-0.6l1.7-0.7l1.4,0l0.8,0.5l1.1,0.4l1.6-0.2l1.2,0.1l0.9,0.4l0.9,0.4l1.6-0.3l1.8-0.2
	l1.4,0.1l1.4,0.2l1.5-0.1l1.4,0l1.8-1.1l1.2-1l0,0.8l-1.1,1.1l-0.8,1l-0.5,0.9l0.5,0.6l1.6,0.1l1.7,0.2l1.3,0l1.6,0.2l1.2,0.1
	l1.5,0.3l1.1,0.4l-0.1,0.9l-1.4,0.8l-0.2,0.8l0.5,0.7l0.5,0.8l0.9,0.6l1,0.6l0.6,0.5l1.2,0.3l1.9-0.6l0.1,0.8l-0.2,0.8l0.2,0.7
	l1,0.4l0.9,0.5l-0.8,0.9l0.4,0.7l-0.4,0.9l0.6,0.5l1.3,0.2l0.9,0.3l1.3,0.2l1,0.4l0.6,0.5l0.2,0.7l0.3,0.6l-0.4,0.7l-1.6,0.8
	l-1.9,0.6l-2.2,0.8l-1.7,0.6l-2,0.7l-1.9,0.1l-1.9,0.6l-2.1,0.2l-1.9,0.7l-2.1,0.6l-1.9,0.5l-2,0.7l-1.7,0.7l-1.8,0.9l-1.4,0.7
	l-1,0.8l-1.2,0.7l-0.9,0.7l1.2,0.5l-1.3,0.8l-2.3,0.1l-2.3,0.2l-1.9-0.1l-3,1l-2,0.9l-1.8,0.6l-1.9,0.6L649,471l-1.1,0.8l-0.7,0.7
	l-0.2,0.7l0,0.7l0.1,0.7l0.8,0.7l-1.5,0.8l1.6,0.5l-0.1,0.1l-0.6,0.5l3.4-0.2l0.7,0.6l0.5,0.5l0,0l-21.7,7.4H480H330L308.3,478.2z"
	/>
<path class="st2" d="M604,380.4l0.8,0.9l1.5,0.4l-0.1,0.5l-1,1.2l-2.8,0l0.5-1.4l0.7-1.1L604,380.4z"/>
<path class="st4" d="M750.7,371l1,1.2l1.2-0.3l1.7-0.4l0.9,0.3l-2.3,3.3l-1.3,0.9l-1.9,2.2l0-0.8l-2.7,1.8l-0.2-0.2l-1-0.2l0.8-2.5
	l1.1-1.9l0.8-2.6l1-1.3L750.7,371z M783,291.7l0.2,2.4l1.6-1.1l0.4,1.3l0.7,1.2l-0.5,1.3l-0.2,2.6L785,301l0.4,0.4l-0.2,2.6
	l-0.7,1.5l0,2.1l1.7,1.7l1,1.5l0.9,1.4l-0.5,0.7l0.5,2l-0.4,3.3l1.1-0.6l0.3,1.4l0.7-0.4l-0.9,3.2l0.6,2l0.4,1.2l0.5,2.6l-0.5,2.5
	l-0.7,1.7l-1,1.8l-0.3,2.6l-1.5,2.6l-1,1.3l-1.9,2.6l-0.9,1.7l-1.6,2.1l-2.4,2.6l-2.2,1.3l-2,2.2l-1.5,1.4l-2.1,2.4l-1.6,1.3
	l-1.8,2.1l-1.5,1.9l-0.5,0.9l-1.7,0.9l-2.1-0.1l-2.4,1l-1.6,1l-1.9,1.1l-0.6-1.4l-0.8-0.6l1.2-1.4l-1.3,0.4l-2.9,1.9l-1-0.9
	l-0.7-0.6l-0.9-0.3l-1.2-1l-0.1-1.9l1-2.2l0.4-1.5l-0.2-1.2l-1.6-0.5l1.4-1.3l0.7-2.2l-2,1.9l-1.9,0.4l1.8-1.5l1.2-1.6l1.5-1.3
	l1-2.1l-2.8,2.3l-1.7,0.9l-1.9,2.2l-0.8-1.3l0.9-1.5l-0.1-2.2l-0.5-1.2l0.7-0.6l-1.6-1.9l-1.3-0.2l-1.2-1.5l-3.6,0l-3,0.8l-2.6,0.8
	l-1.7-0.3l-2.7,1.3l-2,0.5l-1.1,1.4l-1.2,1.1l-1.6-0.1l-1.3,0.2l-1.4-0.6l-1.5,0.2l-1.4,0l-1.8,1.4l-0.5-0.2l-1.3,0.7l-1.3,0.8
	l-1.3-0.2l-1.3-0.1l-1.2-1.9l-0.8-0.6l0.7-1.6l1.1-0.3l0.6-0.6l0.4-1l1.1-1.9l0.5-1.7l0.1-2.9l0.3-1.6l0.7-1.6l-0.1-1.9l0.2-0.8
	l-0.5-1.2l0.5-2.2l-0.4-2.3l0.1-1.2l0.5,1.3l0.2-2.6l0.7,0.9l0.2,1.1l0.4-1.4l-0.3-2.3l0.1-0.9l-0.2-0.9l0.7-1.6l0.6-0.7l0.7-1.4
	l0.2-1.7l1.4-2l-0.4,2.2l1.4-1.9l1.9-0.9l1.3-1.2l1.8-1l1-0.2l0.5,0.4l1.9-1l1.3-0.3l0.5-0.6l0.6-0.2l1.1,0.1l2.4-0.7l1.5-1.2
	l0.9-1.5l1.6-1.4l0.4-1.1l0.4-1.6l2-2.4l0.3,2.5l1-0.5l-0.4-1.4l1-1.4l0.8,0.7l0.7-2.2l1.4-1.4l0.7-1.1l1.2-0.5l0.2-0.8l0.9,0.4
	l0.2-0.7l1-0.4l1.1-0.4l1.3,1.4l0.8,1.8l1.3,0.1l1.3,0.3l-0.1-1.6l1.5-2.3l1.1-0.7l-0.2-0.7l1.2-1.6l1.5-1l1,0.4l1.9-0.5l0.2-1.5
	l-1.4-1l1.2-0.4l1.3,0.8l0.9,1.2l1.6,0.8l0.7-0.3l1.1,1l1.4-0.8l0.7,0.3l0.6-0.6l0.7,1.5l-0.9,1.6l-1,1.2l-0.7,0.1l0,1.2l-0.9,1.5
	l-1.1,1.4l0,0.8l1.3,1.7l1.4,1l0.8,1.1l1.1,1.8l0.6,0l0.9,0.8l0.1,0.9l1.7,1.1l1.6-0.9l0.8-1.6l0.8-1.3l0.7-1.6l1.2-2.3l0-1.5
	l0.3-0.9l0.1-1.7l0.8-2.2l0.5-0.6l-0.1-1l0.8-1.6l0.7-1.6l0.2-0.9l1-1.1l0.3,1.5l-0.2,1.9l0.5,0.4l-0.2,1.3l0.5,1.6l-0.2,1.7
	L783,291.7z"/>
<path class="st4" d="M510.9,123.8l0,1.1l-1,0l0.4,0.6l-0.5,1.7l-0.3,0.4l-1.6,0.1l-0.9,0.6l-1.5-0.2l-2.7-0.7l-0.5-0.9l-1.8,0.5
	l-0.2,0.5l-1.1-0.4l-0.9-0.1l-0.9-0.5l0.2-0.6l-0.1-0.5l0.5-0.1l1,0.7l0.2-0.7l1.6,0.1l1.3-0.5l0.9,0.1l0.6,0.5l0.1-0.4l-0.4-1.7
	l0.6-0.3l0.5-1.2l1.4,0.8l0.9-1.1l0.6-0.2l1.5,0.8l0.8-0.1l0.9,0.5l-0.1,0.3L510.9,123.8z"/>
<path class="st5" d="M566.5,144.8l0.7,0.7l0.8,0l0.1,0.4l1.1,1.5l-1.4-0.3l-1.2-1.2l-0.5-1L566.5,144.8z M570.2,140.8l0.9,0.2
	l0.2-0.7l0.9-1.1l1.3,1.4l1.4,1.8l0.9,0.1l0.7,0.7l-1.5,0.3l0.1,2.1l-0.1,0.9l-0.6,0.6l0.3,1.3l-0.5,0.1l-1.5-1.3l0.4-1.3l-0.7-0.8
	l-0.7,0.2l-1.9,2l-0.4-1.8l-0.9-0.4l-1-0.7l0.4-0.9l-1.2-0.9l0.2-0.7l-0.8-0.4l-0.5-0.7l0.4-0.4l1.6,0.7l1.1,0.1l0.2-0.3l-1.2-1.4
	l0.4-0.4l0.5,0.1L570.2,140.8z"/>
<path class="st2" d="M542.8,261.8l-0.1-3.2l-0.5-1.2l1.3,0.2l0.7-1.5l1.1,0.2l0.1,1l0.5,0.6l0,0.9l-0.5,0.6l-0.8,1.4l-0.8,1
	L542.8,261.8z"/>
<path class="st3" d="M485.9,115.6l1.3,0.2l1.6-0.5l1.2,1.1l1,0.6l-0.1,1.8l-0.5,0.1l-0.1,1.5l-1.6-1.2l-0.9,0.2l-1.3-1.2l-0.8-1
	l-0.8,0l-0.3-0.9L485.9,115.6z"/>
<path class="st6" d="M485.8,233.6l-1.8,0.3l-0.5-1.8l0.1-6l-0.4-0.5l-0.1-1.3l-0.7-0.9l-0.7-0.8l0.3-1.4l0.7-0.3l0.4-1.1l1-0.2
	l0.5-0.8l0.7-0.8l0.8,0l1.6,1.5l-0.1,0.9l0.5,1.6l-0.4,1.1l0.2,0.7l-1,1.6l-0.7,0.8l-0.4,1.7l0.1,1.7L485.8,233.6z"/>
<path class="st6" d="M474,224.8l-1.5-0.7l-1,0.1l-0.7,0.7l-1-0.6l-0.4-0.9l-1-0.6l-0.1-1.5l0.6-1.1l0-0.9l1.7-2.2l0.3-1.8l0.6-0.6
	l1,0.4l0.9-0.5l0.3-0.7l1.6-1.2l0.4-0.8l2-1.1l1.2-0.4l0.5,0.5l1.4,0l-0.2,1.3l0.3,1.2l1.2,1.7l0.1,1.3l2.4,0.6l0,1.8l-0.5,0.8
	l-1,0.2l-0.4,1.1l-0.7,0.3l-1.9-0.1l-1-0.2l-0.7,0.4l-0.9-0.2l-3.7,0.1l-0.1,1.5L474,224.8z"/>
<path class="st6" d="M671.9,189l0.4,2l-0.8-0.4l0.6,2.2l-0.9-1.4l-0.4-1.4l-0.7-1.3l-1.2-1.6l-1.9,0l0.4,1.1l-0.3,1.5l-1-0.5
	l-0.2,0.5l-0.6-0.3l-0.8-0.2l-0.8-2.2l-1.2-2l0-1.7l-1.4-0.7l0.2-1l1-1.1l-1.8-1.4l0.3-1.9l1.9,1.1l1,0.1l0.7,1.9l2,0.3l1.9-0.1
	l1.3,0.4l-0.4,2.4l-0.9,0.2l-0.3,1.6l1.4,1.4l-0.1-1.8l0.6,0L671.9,189z"/>
<path class="st1" d="M522.4,133.9l0.7,1.1l0.7-0.2l1.5,0.4l2.8,0.1l0.8-0.7l2.1-0.6l1.5,0.9l1.1,0.3l-0.8,1.1l-0.4,1.9l0.8,1.5
	l-1.7-0.3l-1.8,0.9l0.1,1.3l-1.7,0.3l-1.4-0.9l-1.4,0.7l-1.4-0.1l-0.3-1.7l-1-0.8l0.3-0.4l-0.2-0.3l0.2-0.8l0.6-0.8l-1-1.1l-0.3-1
	L522.4,133.9z"/>
<path class="st2" d="M320.1,185.4l-0.5,0.1l-0.2-1.6l-0.6-0.8l0.8-1.7l0.6,0.1l0.3,2.3L320.1,185.4z M321.2,177.8l-2.3,0.4l0.1-1
	l1-0.2l1.3,0.1L321.2,177.8z M322.8,177.8l-0.8,1.9l-0.3-0.4l0.3-1.4l-0.7-1.1l0.1-0.3L322.8,177.8z"/>
<path class="st2" d="M515.4,132.3l0.7,0l-0.4,1.2l1,1l-0.2,1.2l-0.4,0.1l-0.3,0.2l-0.6,0.6l-0.1,1.4l-1.8-1l-0.8-1.1l-0.8-0.6
	l-0.9-1l-0.5-0.8l-1-1.2l0.3-1.1l0.7,0.6l0.4-0.5l0.9-0.1l1.6,0.4l1.3-0.1L515.4,132.3z"/>
<path class="st1" d="M520.6,108.5l1.7,0l1.7-1l0.2-1.5l1.3-0.9l-0.4-1.2l1-0.5l1.6-1l1.9,0.6l0.4,0.6l0.8-0.3l1.8,0.6l0.4,1.2
	l-0.2,0.7l1.4,1.7l0.8,0.5l0,0.5l1.3,0.4l0.6,0.7l-0.6,0.6l-1.4-0.1l-0.3,0.3l0.6,0.9l0.7,1.7l-1.5,0.2l-0.4,0.6l0.1,1.3l-0.7-0.2
	l-1.6,0.2l-0.6-0.6l-0.6,0.5l-0.7-0.4l-1.4,0l-2.1-0.6l-1.8-0.2l-1.4,0.1l-0.9,0.7l-0.8,0.1l-0.2-1.2l-0.7-1.2l1-0.6l-0.1-1l-0.6-1
	L520.6,108.5z"/>
<path class="st2" d="M293.1,200.9l0.1-0.4l0.3-0.1l0.3,0.3l1-1.6l0.4,0l-0.1,0.4l0.4,0l-0.2,0.7l-0.5,1.2l0.1,0.4l-0.4,1l0.1,0.3
	l-0.5,1.4l-0.5,0.7l-0.4,0.1l-0.6,0.9l-0.6,0l0.6-3.1L293.1,200.9z"/>
<path class="st2" d="M350.8,163.3L350.8,163.3L350.8,163.3L350.8,163.3L350.8,163.3L350.8,163.3L350.8,163.3L350.8,163.3
	L350.8,163.3L350.8,163.3l-0.1,0.1l0,0l0,0l0,0l0,0l0,0l0,0l0,0l0,0l0,0l0,0l0,0l0,0L350.8,163.3L350.8,163.3l-0.1,0l0,0l0,0l0,0
	l0,0l0,0l0,0l0,0.1l0,0l0,0l0,0l0,0l0,0l0,0l0,0l0,0l0,0L350.8,163.3L350.8,163.3L350.8,163.3L350.8,163.3l0.1,0l0,0l0,0l0,0l0,0
	l0,0l0,0l0,0l0,0l0,0l0,0l0,0l0,0l0,0l0,0l0,0l0,0l0,0l0,0l0,0l0,0l0,0l0,0l0,0l0,0l0,0l0,0l0,0l0,0l0,0l0,0l0,0l0,0l0,0
	L350.8,163.3L350.8,163.3L350.8,163.3L350.8,163.3L350.8,163.3L350.8,163.3z"/>
<path class="st1" d="M349.6,309.1l-2.4-0.1l-0.5,2.2l-1.5-1.9l-2.8-0.6l-1.3,2.5l-1.4,0.4l-1.4-3.7l-1.6-3l0.3-2.6l-1.3-1.1
	l-0.5-1.9l-1.3-1.8l1-2.9l-1.2-2.2l0.4-0.9l-0.5-1l0.7-1.4l-0.2-2.3l-0.1-1.9l0.4-0.9l-2.2-4.3l1.6,0.2l1.1-0.1l0.4-0.8l1.8-1.1l1-1
	l2.8-0.5l-0.1,2l0.3,1l0,1.8l2.5,2.4l2.4,0.4l0.9,1l1.5,0.5l0.9,0.8l1.3,0l1.3,0.8l0.2,1.5l0.5,0.8l0.1,1.2l-0.6,0.1l1.1,3.1l4,0
	l-0.2,1.5l0.3,1.1l1.2,0.7l0.7,1.7l-0.1,2.1l-0.4,1.2l0.4,1.5l-0.6,0.6l-0.1-0.8l-2.1-1.3l-1.9,0l-3.5,0.8l-0.7,2.4l0.1,1.4
	l-0.4,3.2L349.6,309.1z"/>
<path class="st1" d="M363.9,330.7l2-3.7l1.8-2.6l1.2-1.1l1.5-1.5l-0.3-2.1l-1.3-1.5l-0.9,0.5l0.2-1.5l0.1-1.6L368,314l-0.8-0.5
	l-0.7,0.4l-0.8-0.1l-0.4-1l-0.5-2.4l-0.5-0.8l-1.5-0.7l-0.8,0.5l-2.3-0.5l-0.3-3.6l-0.8-1.5l0.6-0.6l-0.4-1.5l0.4-1.2l0.1-2.1
	l-0.7-1.7l-1.2-0.7l-0.3-1.1l0.2-1.5l-4,0l-1.1-3.1l0.6-0.1l-0.1-1.2l-0.5-0.8l-0.2-1.5l-1.3-0.8l-1.3,0l-0.9-0.8l-1.5-0.5l-0.9-1
	l-2.4-0.4l-2.5-2.4l0-1.8l-0.3-1l0.1-2l-2.8,0.5l-1,1l-1.8,1.1l-0.4,0.8l-1.1,0.1l-1.6-0.2l-1.2,0.5l-1-0.3l-0.2-4.1l-1.6,1.6
	l-1.9,0l-0.9-1.4l-1.4-0.1l0.4-1.2l-1.3-1.6l-1-2.4l0.5-0.5l-0.1-1.1l1.3-0.8l-0.3-1.5l0.5-0.9l0.1-1.3l2.4-1.9l1.7-0.5l0.3-0.4
	l1.9,0.1l0.8-7.4l0-1.2l-0.3-1.5l-1-1l0-2l1.2-0.4l0.4,0.3l0.1-1l-1.3-0.3l0-1.7l4.2,0.1l0.7-0.9l0.6,0.9l0.4,1.6l0.4-0.3l1.2,1.4
	l1.7-0.2l0.4-0.8l1.6-0.6l0.9-0.4l0.3-1.1l1.5-0.8l-0.1-0.6l-1.8-0.2l-0.3-1.7l0.1-1.8l-0.9-0.7l0.4-0.2l1.6,0.4l1.7,0.7l0.6-0.6
	l1.5-0.4l2.4-1l0.8-1l-0.3-0.8l1.1-0.1l0.5,0.6l-0.3,1.2l0.7,0.4l0.5,1.2l-0.6,0.9l-0.4,2.3l0.5,1.4l0.1,1.2l1.3,1.3l1.1,0.1
	l0.2-0.5l0.7-0.1l1-0.5l0.7-0.7l1.2,0.2l0.5-0.1l1.2,0.2l0.2-0.5l-0.4-0.5l0.2-0.8l0.9,0.2l1-0.3l1.2,0.6l0.9,0.6l0.7-0.7l0.5,0.1
	l0.3,0.8l1-0.2l0.8-1l0.7-2l1.3-2.4l0.7-0.1l0.5,1.5l1.1,4.7l1.1,0.4l0,1.8l-1.6,2.2l0.7,0.8l3.8,0.4l0.1,2.7l1.6-1.7l2.7,1l3.6,1.6
	l1.1,1.6l-0.3,1.5l2.5-0.8l4.2,1.4l3.2-0.1l3.2,2.2l2.8,3l1.7,0.8l1.8,0.1l0.8,0.8l0.8,3.4l0.4,1.6l-0.7,4.4l-1,1.7l-2.9,3.7l-1.2,3
	l-1.5,2.3l-0.5,0.1l-0.5,1.9l0.4,4.9l-0.3,4.1l-0.1,1.7l-0.6,1l-0.1,3.5l-1.8,3.5L395,308l-1.6,1.2l-0.3,1.6l-2.2,0l-3.1,1.1
	l-1.3,1.2l-2.2,0.8l-2.2,2.2l-1.4,2.7l0,2l0.5,1.5l0,2.7l-0.3,1.3l-1.2,1.5l-1.5,4.7l-1.4,2.1l-1.1,1.3l-0.4,2.5l-1,1.6l-0.8-1.5
	l0.6-1.3l-1.5-1.8l-1.8-1.4l-2.4-1.6l-0.7,0.1l-2.4-2L363.9,330.7z"/>
<path class="st2" d="M724.3,237l0.8-1.1l1.7-1.6l0,1.4l0,1.8l-1-0.1l-0.4,1L724.3,237z"/>
<path class="st2" d="M666.1,173.4l1.1,0.8l0.3,1.7l-1.6,0.2l-1.8-0.1l-1.2,0.5l-2.1-1l-0.2-0.5l0.8-2.1l0.9-0.7l1.6,0.6l1.1,0
	L666.1,173.4z"/>
<path class="st5" d="M533.8,298.7l0.4,0.5l0.6,1.5l2.2,2.9l0.9,0.3l0,0.9l0.5,1.7l1.6,0.4l1.2,1.2L538,310l-2,1.9l-0.8,1.7l-0.7,1
	l-1.1,0.2l-0.4,1.3l-0.3,0.8l-1.4,0.6l-1.7-0.1l-0.9-0.7l-0.8-0.3l-1,0.6l-0.6,1.3l-1,0.8l-1.1,1.2l-1.5,0.3l-0.4-0.9l0.3-1.6
	l-1.1-2.5L521,315l0.4-7.7l2.1-0.1l0.5-9.3l1.6-0.1l3.3-0.9l0.8,1.1l1.4-1l0.6,0l1.2-0.6l0.4,0.2L533.8,298.7z"/>
<path class="st0" d="M512.6,230.5l1.8-0.2l0.4-0.7l0.4,0.1l0.5,0.6l2.7-1l0.9-1l1.1-0.9l-0.2-0.9l0.6-0.2l2.1,0.2l2-1.2l1.5-2.9
	l1.1-1.1l1.3-0.5l0.3,1.1l1.3,1.6l0,1.1l-0.3,1.1l0.2,0.8l0.8,0.8l1.6,1.1l1.2,1.1l0,0.9l1.5,1.4l0.9,1.1l0.6,1.6l1.6,1l0.4,0.8
	l-0.7,0.3l-1.4-0.1l-1.6-0.3l-0.8,0.2l-0.3,0.6l-0.7,0.1l-0.9-0.6l-2.4,1.3l-1-0.3l-0.3,0.2l-0.6,1.6l-1.6-0.5l-1.6-0.3l-1.4-1
	l-1.8-0.9l-1.1,0.8l-0.8,1.3l-0.2,1.8l-1.4-0.1l-1.5-0.4l-1.3,1.4l-1.1,2.4l-0.2-0.8l-0.1-1.2l-1-0.8l-0.8-1.4L512,239l-1-1.4
	l0.2-0.8l-0.2-1.1l0.1-2l0.5-0.5L512.6,230.5z"/>
<path class="st4" d="M363.5,125.5l1.2,0.4l1.7,0l-1.2,1l-0.7,0.1l-1.9-1.2l-0.2-0.9l1-0.8L363.5,125.5z M369.1,119l-0.9,0l-2-0.9
	l-1.2-1.3l0.7-0.2l2.1,0.8l1.4,1.2L369.1,119z M261.7,112.4l-1.1,0.3l-1.8-1.5l0.2-1l-0.8-1.1l0.3-0.8l-1.3-0.7l0.5-1.5l0.6-0.6
	l1.2,0.8l0.7,0.5l1.3,0.5l-0.1,1l-0.1,1.4l0.8,1.3L261.7,112.4z M380.5,115.2l-1.9,2.3l1.4-0.8l1,0.6l-0.9,0.9l1.3,0.8l1-0.6
	l1.5,0.9l-1.1,1.9l1.4-0.4l-0.2,1.4l0.1,1.7l-1.4,2.3l-0.8,0.1l-1.1-0.5l1-2.1l-0.4-0.4l-2.8,2.2l-1.1-0.1l1.6-1.2l-1.5-0.7l-2,0.1
	l-3.5-0.2l0-0.8l1.4-0.9l-0.5-0.7l2-1.5l3.2-4.1l1.6-1.4l1.8-0.8l0.8,0.1l-0.6,0.7L380.5,115.2z M258.7,96l1.7,0l-3.1,2.9l-0.5,2.3
	l-0.6-0.1l0.1-1.3l0.5-1.3l-0.1-0.9l0.7-1.2l0.8-0.8L258.7,96z M356.3,83.1l-1.4,1.3l-0.5-0.3l0.1-0.8l0.2-0.2l1.1-0.7l0.6,0.1
	L356.3,83.1z M353.3,81.4l-2.7,1.3l-1-0.1l0.1-0.7l1.9-1.1l2,0.2L353.3,81.4z M353.6,73.5l-0.5,1.1l1-0.3l0.4,0.7l1,1l1.1,0.9
	l-0.7,1.2l1.2-0.1l0.5,0.9l-1.8,0.7l-1.9-0.8l-0.1-1.2l-2.4,1.3l-3,1.2l0.5-1.5l-2.2,0.1l2.2-1.2l1.6-2l2.2-2.3L353.6,73.5z
	 M369.4,70.7l-1.7,0l0.5-1.3l1.6-1.4l1.5-0.3l0.6,0.8l-0.7,1.1l-0.4,0.3L369.4,70.7z M346,63.6l-1.6,0.8l-1.1-0.9l-1.3,0.2l-0.8-1.3
	l1.9-0.7l1.9-1l0.7,0.8l0.4,0.5l0,0.5L346,63.6z M353.6,63.2l-2.1,2.6l3.4-1.8l0.3,1.7l-1.9,1.8l0,1.8l2.8-1.7l2.7-2.1l2.2-2.8
	l1.7,0.3l1.7,0.5l0.9,1.4l-0.8,1.3l-2,1.3l0,1.4l-1,1.2l-4,1.6l-2.2,0.2l-0.9-0.9l-1.4,1.2l-2.9,2l-1.2,1.1l-2.9,1.6l-2.2,0l-1.9,1
	l-1.3,1.7l-1.9,0.2l-3.3,1.9l-3.7,2.8l-2,2l-2.2,3l2,0.6l-0.9,2.5l-0.5,2l2.5-0.3l2.3,1.4l1,1.1l0.4,1.3l1.6,0.9l1.1,1.2l2.6,0.3
	l1.6,0.4l-1.5,2.3l-0.9,2.7l-0.3,3l1.3,2.7l1.7-0.8l2.2-2.6l1.2-4.2l-0.5-1.5l3.3-1.1l2.8-1.7l1.8-1.8l0.8-1.8l0.1-2.3l-0.8-2.1
	l3.4-2.6l0.7-2.4l1.9-4.1l1.4-0.5l2.2,0.9l1.4,0.4L365,83l0.9,1l1.1,1.6l-0.1,1l2.7,0.4l-1.2,2.2l-1.1,3.3l1.3,0.5l0.4,1.6l3-1.3
	l2.9-2.8l1.6-1.2l0.1,2.4l0.6,3.4l0.5,3.2l-1.3,1.6l1.6,1.6l0.9,1.6l2.4,0.8l0.8,0.9l-0.1,2.2l1.2,0.4l0.3,1l-0.9,3l-1.6,0.9
	l-1.6,0.9l-3.2,0.8l-3,2.1l-3.1,0.3l-3.6-0.7l-2.6-0.1l-1.9,0.1l-2.2,1.8l-2.7,1.1l-3.9,3.4l-3,2.3l1.7-0.4l4.2-3.3l4.5-2l2.7-0.1
	l1.1,1.4l-2.3,1.7l-0.4,2.9l-0.1,2l1.9,1.4l3.1-0.2l2.8-2.9l-0.5,1.9l0.9,1l-2.8,1.6l-4.6,1.4l-2.2,1l-2.7,1.8l-1.3-0.3l0.7-2.2
	l3.9-2l-3,0l-2.1,0.2l-0.7-1.6l1.3-3.6L356,123l-1.4,0.4l-0.3-0.7l-2.1,1.9l-1.3,2l-1.1,1.2l-0.9,0.4l-0.6,0.1l-0.4,0.6l-3.4-0.2
	l-2.8-0.1l-1,0.4l-2.7,1.8l-0.3,0.2l-1,1L335,132l-1.8-0.1l-1,0.4l0.1,0.5l-0.1,0.8l-0.1,0.3l-2.9,1.2l-2.1,0.3l-2.7,1.3l-0.5,0
	l-0.5-0.5l-0.1-0.4l0.2-0.3l0.8-0.9l1.5-1.4l1.2-1.5l0.6-2.3l0.6-2.4l-1.3-1.4l0.4-0.5l-0.1-0.3l-0.5,0l-0.2-0.4l0.2-0.6l-0.5,0.3
	l-0.4-0.1l0.2-0.3l-0.3-0.3l0.1-0.7l-1-0.9l-1-1l-1.2-1.1l-1.2-1.1l-1.9,0.6l-0.6,0l-1.8-0.8l-1.6,0.2l-1.3-0.9l-1.5-0.6l-1.1-0.3
	l-0.3-0.5l0.5-1.5l-0.6,0l-0.6,1l-3.6-0.3l-5.9-0.5l-5.8-0.5l-5.1-0.5l-5.1-0.5l-5-0.5l-5.1-0.5l-1.6-0.2l-5-0.5l-4.7-0.5l-0.2,0
	l-1.2-3l-0.3-1.3l-2.1-1.4l1-2.5l1.5-1.6l-1.1-1.4l1.5-2.2l-0.2-2.1l1.2-1.3l2-1.1l1.4-1.6l-1-2l1.3-3.1l0.9-2l-0.2-1.3l0.1-1.2
	l0.6-1.4l-2.3,0.6l-2.8,1.2l0.5-1.8l0.2-1.2l-0.6-0.9l-1.3-0.3l16.5-13.9l11.5-8.7l1.4,0.9l0.4,1.4l1,0.4l2.3-0.8l2.4-0.5l1.4,0.5
	l3.1-0.8l2.7-0.3l-0.4,1.1l1.6-0.4l1.6-1.1l0.5,0.4l-0.5,2.4l3.6-1.4l-2,1.8l2-0.2l1.3-0.6l1.3,0.3l0.8,1.2l2,1.2l1.3,0.6l1.4,0
	l0.4,1.4l-3.1,1l1.8,0.8l3.8,0.1l1.5-0.3l0,1.6l2.7-1.1l-0.3-1.2l1.7-0.8l1.7,0l1.3-0.1l0.5,0.7l0.1,1.5l1.7-0.1l1.3,1.3l2.4-0.2
	l1.9,0.2l1.2-1.6l1.6-0.3l1.3,1l-2,2.4l2.6-1.9l1,0.2l2.7-2.5l-0.1-1.7l-0.6-1.1l2.6-2.7l3.2-1.7l1.3,0.5l0.3,1.2l-0.7,2.9l-2.2,1.1
	L353.6,63.2z M332.6,51.6l-1.9,1.1l3.5-0.4l0.3,1.4l2.7-1.1l0.2,0.9l-1.5,2.5l1.7-0.9l1.8-2.5l1.4-0.3l0.8,0.5l0.3,1.1l-1.7,2.4
	l-1.3,1.8l0.9,1.4l1.2,1.4l-1.2,1.1l-2.3,0l-0.1,1l-1.3,0.9l-2-0.6l-1.6-0.9l-1.7,0l-3.3,0.6l-3.7,0l-2.5,0l0.5-1.2l-1-0.9l-1.4,0.1
	l0.5-2.1l1.1-0.2l2.4-0.2l1.6,0.3l2.1-0.2l-1.8-0.8l-2.9-0.1l-1.7-0.2l0.4-1l3.9-0.6l-1.9-0.2l-1.4-0.9l3.1-1.7l1.9-0.9l4.9-1.1
	L332.6,51.6z M345,52l-2.7,1.5l-0.1-1.9l0.8-0.3l1.7,0.1L345,52z M379.3,55.5l-0.4,0.7l-1.3-0.2l-1.3-0.1l-1.7,0.2l-0.3-0.2
	l-0.4-1.4l0.8-0.9l0.7-0.1l2.7,0.5L379.3,55.5z M366.5,54.5l-0.3,1.6l2.8-1.9l4-0.8l0.1,2.7l-1.5,1.6l3.1-0.6l2-0.9l1.9,1.5l0.9,1.3
	l-0.6,1.1l2.8-0.4l0.3,1.7l2.6,1.2l0.5,1.1l-0.2,2.5l-3.3,1l2.3,1.9l1.9,0.7l0.8,2.5l2.2,0.3l-1.4,1.8l-4.1,2.9l-1.2-1.2l-0.9-2.6
	l-2.1,0.2l-1,1.5l0.7,1.6l1.4,1.3l0.3,0.7l-0.3,2.6l-1.5,1.8l-1.6-0.8l-2.7-2.3l0.9,2.4l0.8,1.7L376,85l-3.6-1.3l-2.4-1.7l-1.1-1.4
	l0.9-0.7l-1.5-1.5l-1.4-1.4l-0.4,0.7L362,78l-0.7-1l2.2-1.8l2.8,0.1l3.2-0.1l0.1-0.9l1.3-1.2l3.4-2.4l0.3-1.2l0-0.9l-1.3-1.4
	l-2.2-1.1l1.3-0.6l-0.3-1.7l-1.1-0.2l-0.4-0.9l-1.3,0.7l-2.7,0.2l-4.4-0.9l-2.2-0.9l-1.8-0.5l-0.4-1l2.3-1l-1.8-0.2l1.8-2.5l2.9-2.1
	l2.2-0.9l3.8-0.4L366.5,54.5z M351,51.5l0.9,0.6l2.5-0.1l-0.4,0.7l-2.3,1.1l0.9,1.2l-2.3,2.2l-3,0.8l-1-0.3l0-1l-1.2-2.2l0.8-0.8
	l2.2,0.5l0.2-1.7L351,51.5z M357.3,54.8l-3,1.7l-1.4-0.2l1.2-2.2l1.2-1.2l1.6-1l1.8-0.6l2.5,0.3l1.8,0.8l-3.8,2L357.3,54.8z
	 M320.2,54.9l-4.5,0.8l0.6-1.1L315,53l1.8-0.9l3-1.6l3-1.4l0.7-1.5l4.3,0.1l1,0.7l2.8,0.4l0.3,0.8l0.1,1.1l-2.2,0.4l-4.9,1.3
	l-3.5,1.5L320.2,54.9z M361.9,49.4l-1.6,0.9l-1.6-0.3l-0.8-0.7l1.7-1l2.4-0.5l0.2,0.9L361.9,49.4z M360.4,44.7l-0.3,1.2l-1.2,1.2
	l-2.4,1.7l-2.2,0.1l-0.9-0.5l1.5-1.4l-2.1,0l1.9-1.8l1.2,0.2l2.6-0.7L360,45L360.4,44.7z M348,45l-0.5,0.9l1.5-0.3l1.1,0.2l-1.1,1.2
	l-2,1.1l-4.4,0l-4.1,0.7l-1.8-0.1l0.8-0.8l3.6-0.8l-5.5-0.2l-1.1-0.6l4.4-2.1l1.9-0.5l2.2,1.1l0.4,1.6l1.8,0.4l1-2.4l2-0.8l0.8,0.4
	L348,45z M365.7,44.1l0.5,0.9l2.3,0.2l0.2,0.9l-1.1,0.9l0.8,0.6l0.2,0.6l1.5,0.2l1.6,0.3l2.4-0.4l2.6,0l1.8,0.3l0.5,1l-0.6,1
	l-1.3,0.6l-2.3,0.4l-1.3-0.4l-3.8,0.1l-2.6-0.1l-1.7-0.4l-2.5-1l0.9-1.4l1-1.2l-0.1-1.1l-2.1-0.5l-0.6-0.8l1.5-1L365.7,44.1z
	 M343.2,40.9l-2.4,1.7l-1.9,0.7l-1.2,0l-3.3,0.8l-2.2,0.2l-0.8-0.6l0,0l4.1-1.5l4.2-1.3l1.6,0.2L343.2,40.9z M367.7,43.2l-0.6,0
	l-2-0.3l0.4-0.7l2.2,0.2l0.3,0.5L367.7,43.2z M349.9,41.3l-2.9,0.5l-0.7-0.9l1.8-0.7l1.9-0.1l1.1,0.5L349.9,41.3z M353.1,39.3
	l-1.9,0.3l-1.8-0.2l0.4-0.3l2-0.6l0.4,0.2L353.1,39.3z M366.8,41.7l-2.2,0.4l-0.3-0.6l0.5-0.9l1-1l1.3,0.2l0.5,0.2l0.4,0.9
	L366.8,41.7z M362.8,40.8l-0.7,1l-1.5-0.4l-0.9-0.9l-2.3-0.3l1.9-0.6l-0.6-0.7l1-0.9l1.7,0.5l1.9,1.1L362.8,40.8z M380.6,38.5
	l0.6,0.9l-2.2,0.6l-3.9,1.7l-2.2,0l-2-0.5l-0.2-1.1l0.9-0.9l1.5-0.6l-2-0.1l-0.3-0.9l0.5-1.1l1.9-1l1.5-0.7l1.3-0.1l0.1-0.6l2.6,0
	l0,1.3l1.3,0.6l1.3,0.6L380.6,38.5z M407.9,31.1l2.6,0.3l2,0.4l1.4,0.7l-0.5,0.7l-3.4,1l-3,0.4l-1.4,0.5l2.4,0.1l-3.7,1.4l-2.3,0.6
	l-3.5,1.9l-2.6,0.3l-1.1,0.5L391,40l1.3,0.4l-1.2,0.4l-0.1,1.3l-1.8,0.8l-2.4,0.6l-1.4,0.9l-2.3,0.6l-0.3,0.6l2.1,0l-0.5,0.6
	l-4.4,1.3l-2.5-0.9l-3.8,0.2l-1.5-0.4l-2.1-0.3l1-1.2l2.7-0.4l1.1-1.8l0.9-0.1l2.1,1.2l-0.1-1.7l-1.4-0.6l1.8-0.9l2.5-0.5l1.1-0.8
	l-0.6-1l0.8-1.3l2.9,0.3l0.6,0.3l2.5-0.8l-2.2-0.4l-3.9-0.1l-1.1-0.9l0.1-1l-0.5-0.8l0.7-0.8l2-0.4l1.3,0l2.4-0.3l2.4-0.8l1.1,0.2
	l0.4,0.7l2.1-1.3l1.7-0.3l2.1-0.2l3.2,0l0.3,0.3l3.3-0.3l2.1,0.2L407.9,31.1z"/>
<path class="st4" d="M497.5,125.5l0.1,0.5l-0.2,0.6l0.9,0.5l0.9,0.1l-0.1,1.1l-0.8,0.4l-1.4-0.3l-0.4,1.1l-0.9,0.1l-0.3-0.4l-1,0.9
	l-0.9,0.1l-0.8-0.6l-0.7-1.1l-0.9,0.4l0-1.2l1.3-1.5l-0.1-0.7l0.8,0.2l0.5-0.4l1.6,0l0.3-0.6L497.5,125.5z"/>
<path class="st3" d="M360.8,390.9l2.5,5.9l1.8-0.1l1,0l-0.1,1.1l-1.1,0.9l-0.9,0l-1.1-0.2l-1.6-0.7l-1.9-0.3l-2.8-1.3l-2.4-1.3
	l-3.7-2.8l1.7,0.5l3.2,1.6l2.7,0.8l0.3-1.3l-0.2-1.8l1.1-1.2L360.8,390.9z M338.3,307.9l1.4,3.7l1.4-0.4l0.4,0.7l-0.2,2.8l-2,1.4
	l0.9,4.5l-0.3,0.9l0.8,1l-1.1,1.7l-0.8,2.6l-0.2,2.5l0.8,2.6l-0.6,2.8l2,4.6l0.6,0.5l0.6,2.5l-0.4,2.7l0.7,2.2l-1,1.8l0.7,2.5
	l1.4,2.6l-0.8,1l0.2,2.4l0.4,2.8l1.4,3.2l-0.6,0.6l1.5,3l1.2,1l-0.2,1.1l1,0.5l0.6,1l-0.6,0.5l0.8,1.5l0.7,3.5l-0.1,2.3l0.7,1.3
	l0.1,1.7l-0.9,1.2l1.3,2.8l1,0.9l1.1-0.2l0.8,2l1.4,1.5l4.3,0.1l1.8,0.3l-1.5,0.1l-0.5,0.7l-1.1,1l0.8,2.5l-0.7,0.1l-2.3-0.7
	l-2.8-1.7l0,0l-2.8-1.4l-1.3-1.6l-0.2-1.6l-1.6-1.7l-2.2-4.5l-0.3-2.6l1.1-2.2l-3-0.6l0.8-2.4l-1.1-4.4l2.4,0.8l-1-5.6l-1.5-0.6
	l0.6,3.4l-1.3-0.3l-0.8-3.8l-1-5l0.3-1.9l-1.4-2.6l-1.1-3l0.8-0.1l-0.1-4.4l0.2-4.3l-0.2-4l-1.4-4l0.1-2.2l-1-3.3l0.5-3.3l-0.7-5.2
	l-0.4-5.6l-0.4-6l-0.8-4.4l-1-3.8l1-0.7l0.4-1.4l1.3,1.8l0.5,1.9l1.3,1.1l-0.3,2.6L338.3,307.9z"/>
<path class="st5" d="M710.5,197l-1.5,1.4l-1.9-0.8l-0.6-2.4l0.7-1.3l2.1-0.9l1.2,0l0.7,1.1l-0.6,1.3L710.5,197z M702.7,108.3
	l3.5,0.5l3.4,1.7l2.6,2.4l2.5-0.3l0.6-1.2l2.1-1.1l1,2.5l0.1,1.1l1.7,3l0.8,2.8l-2.4-0.2l-0.8,1.1l2.1,2.3l1.9,3.3l-0.8,0.2l0.9,1.4
	l-2.2-1.5l0.3,1.6l-2,1.5l1.2,1.4l-1.6,0.1l-1.4-0.8l0,2.1l-1.1,1.7l-0.4,1.9l-2.1,1l-0.6,1.4l-1.6,0.9l0.3-1.4l-1-1l0.4-2l-1.8-1.3
	l-1,1.1l-1,2.1l-0.2,1.9l-1.7,0.3l-0.3,1.4l1.9,1.8l1.7,0.3l0.7,1.2l1.9,0.7l1.1-2.2l2.2,0.9l1.2,0l1.1,1.4l-2.2,1l-0.1,1.6
	l-1.1,1.5l0,2l2.8,1.4l2,2.7l2.3,2.5l2.3,2.1l0.9,2.1l-0.9,0.9l1.1,1.5l1.5,0.8l0.6,2.3l0.4,2.3l-1,0.3l-0.3,3.2l-0.3,3.8l-0.7,3.5
	l-2,2.8l-2.1,2.5l-2.2,0.4l-0.9,1.3l-1-0.9l-0.8,1.5l-2.5,1.5l-2.1,0.5l0,3l-1.1,0.2l-1-2l0.2-1.1l-3-0.8l-0.9,0.5l-2.3-0.6
	l-1.3-1.1l-0.1-1.6l-2-0.4l-1.3-1l-1.4,1.6l-1.9,0.4l-1.6,0.1l-0.9,0.7l-1,0.5l1.1,3.2l-1.1,0l-0.3-0.6l-0.3-1.1l-1.3,0.9l-1-0.5
	l-1.8-1l0-2.3l-1.4-0.5l-1.1-2.5l-2,0.6l-0.6-3.3l1.3-2.4l-0.6-2.3l-0.7-2.1l-1.1-0.6l-1.2-1.6l-1.1,0.3l-2.3-0.3l0.3-1.2l-1.5-1.7
	l-1.1,1.2l-1.9-0.6l-1.8,1.9l-1.2,2.1l-1.5,0.4l-1.1-0.7l-1.1,0l-1.6-0.6l-0.9,0.7l-0.8,2.1l-0.7-2.1l-1.1,0.6l-2.4-0.2l-2.4-0.5
	l-1.9-1.1l-1.7-0.5l-1-1.3l-1.2-0.3l-2.5-1.7l-1.8-0.8l-0.7,0.7l-3.3-1.8l-2.4-1.6l-1.4-2.9l1.5,0.3l-0.3-1.4l-1.2-1.3l-0.4-2.2
	l-3-3.1l-3.5-0.9l-1.2-2l-1.8-1.2l-0.6-0.8l-0.8-1.5l-0.3-1l-1.4-0.6l-0.5,0.3l-1.3-2.4l0.3-0.6l-0.5-0.6l1.4-1.3l1.1-0.6l2.1,0.3
	l0.1-1.7l2.3-0.4l0.3-1.1l2.4-1.6l0-0.6l-0.7-1.5l1-0.8l-3.5-4.5l3.1-1.3l0.7-0.6l-0.8-4.8l3.9,0.6l0.4-1.3l-1.2-2.7l1.3-0.3
	l0.5-1.9l0.6-0.3l1.4,1.8l2.2,1.3l3,0.8l2.3,2.1l0.8,3.2l1.2,1.1l2.3,0.3l2.6,0.2l3,1.5l1.3,0.2l2,2.4l1.8,1.5l2-0.2l4,0.3l2.2-0.6
	l2,0.3l3.5,1.4l2.2-0.2l1.2,0.8l1.4-1.6l2.4-1.2l2.6-0.3l1.6-1.1l0.5-1.6l0.7-1l-0.8-0.9l-1.2-1l-0.1-1.8l1.1,0.2l2.1,0.4l0.9-1.6
	l2-1.3l0.1-1.9l0.7-0.9l2.3-0.6l1.5,0.2l-0.4-1l-2.8-1.7l-1.9-0.7l-0.6,1.1l-1.9-0.2l-0.7,0.4l-1.2-1.1l-0.6-2.8l-0.6-2.1l2.7,0.8
	l1.1-1.9l-0.9-1.2l-0.6-3l0.3-0.9l-1.1-1.5l-1.4-0.5l0.3-1.5l1.6-0.7l2-0.3l3,0.5l2.2,0.8l3.1,2.5l1.5,1.1l1.8,1.6L702.7,108.3z"/>
<path class="st6" d="M473.9,236.9l-1,0l-1.5-0.5l-1.4,0l-2.5,0.5l-1.5,0.8l-2.1,1l-0.4-0.1l0.2-2.2l0.2-0.3l-0.1-1l-0.9-1.1
	l-0.7-0.2l-0.6-0.7l0.5-1.2l-0.2-1.3l0.1-0.8l0.3,0l0.1-1.1l-0.2-0.5l0.2-0.4l0.8-0.3l-0.5-2.1l-0.5-1.1l0.2-0.9l0.4-0.2l0.3-0.2
	l0.6,0.4l1.6,0l0.4-0.8l0.4,0.1l0.6-0.3l0.3,1.1l0.5-0.3l0.9-0.4l1,0.6l0.4,0.9l1,0.6l0.7-0.7l1-0.1l1.5,0.7l0.6,3.7l-0.9,2.2
	l-0.6,3l0.9,2.3L473.9,236.9z"/>
<path class="st6" d="M508,244.1l-0.3-0.1l-1.3,0.3l-1.3-0.4l-1,0.2l-3.5-0.1l0.3-2.1l-0.8-1.7l-1-0.4l-0.4-1.2l-0.5-0.4l0-0.7
	l0.5-1.9l1-2.5l0.6,0l1.3-1.5l0.8,0l1.2,1.1l1.5-0.9l0.2-1.1l0.5-1.1l0.3-1.3l1.1-1.1l0.4-1.8l0.4-0.6l0.3-1.4l0.5-1.7l1.8-2
	l0.1-0.9l0.2-0.5l-0.9-1l0.1-0.8l0.6-0.2l0.9,1.7l0.2,1.7l0,1.7l1.2,2.4l-1.2,0l-0.6,0.2l-1-0.3l-0.4,1.2l1.3,1.5l0.9,0.4l0.3,1.1
	l0.7,1.8l-0.3,0.7l-1,2.7l-0.5,0.5l-0.1,2l0.2,1.1l-0.2,0.8l1,1.4l0.2,0.9l0.8,1.4l1,0.8l0.1,1.2l0.2,0.8l-0.1,1.4l-1.7-0.6
	l-1.7-0.7L508,244.1z"/>
<path class="st2" d="M546,240.8l-0.1,3.1l0.9,0.4l-0.7,0.9l-0.8,0.7l-0.8,1.4l-0.4,1.2l-0.1,2.1l-0.5,1l0,2l-0.6,0.7l-0.1,1.6
	l-0.3,0.2l-0.2,1.4l0.5,1.2l0.1,3.2l0.3,2.4l-0.2,1.4l0.4,1.5l1.2,1.5l1.1,3.3l-0.8-0.3l-2.9,0.4l-0.6,0.3l-0.7,1.7l0.4,1.2
	l-0.5,3.1l-0.3,2.6l0.6,0.5l1.4,1l0.6-0.5l0.1,2.8l-1.6,0l-0.8-1.5l-0.7-1.1l-1.6-0.4l-0.4-1.4l-1.3,0.8l-1.7-0.4l-0.7-1.2l-1.3-0.2
	l-1,0.1l-0.1-0.8l-0.7-0.1l-1-0.2l-1.3,0.4l-0.9-0.1l-0.5,0.2l0.2-3.1l-0.7-1l-0.1-1.6l0.3-1.6l-0.4-1l0-1.7l-2.6,0l0.2-0.9l-1.1,0
	l-0.1,0.5l-1.3,0.1l-0.6,1.5l-0.3,0.7l-1.2-0.4l-0.7,0.4l-1.4,0.2l-0.8-1.4l-0.5-0.8l-0.6-1.6l-0.5-2l-6.3,0l-0.8,0.3l-0.6,0
	l-0.9,0.4l-0.3-0.8l0.5-0.3l0.1-1.1l0.4-0.7l0.8-0.6l0.6,0.3l0.7-1l1.2,0l0.1,0.7l0.8,0.5l1.3-1.6l1.3-1.3l0.5-0.8l-0.1-2.2l0.9-2.5
	l1-1.4l1.4-1.3l0.2-0.8l0.1-1l0.3-0.9l-0.1-1.5l0.3-2.3l0.4-1.6l0.6-1.4l0.1-1.6l0.2-1.8l0.8-1.3l1.1-0.8l1.8,0.9l1.4,1l1.6,0.3
	l1.6,0.5l0.6-1.6l0.3-0.2l1,0.3l2.4-1.3l0.9,0.6l0.7-0.1l0.3-0.6l0.8-0.2l1.6,0.3l1.4,0.1l0.7-0.3l1.3,2.2l1,0.3l0.6-0.4l1,0.2
	l1.2-0.6l0.5,1.1L546,240.8z"/>
<path class="st6" d="M507.8,262.5l-0.8-0.9l-0.6,0.4l-0.9,1.1l-1.7-2.8l1.6-1.4l-0.8-1.7l0.7-0.7l1.4-0.3l0.2-1.2l1.1,1.3l1.9,0.1
	l0.7-1.2l0.3-1.7l-0.2-2l-1-1.6l0.9-3l-0.5-0.5l-1.6,0.2l-0.6-1.4l0.2-1.1l2.7,0.1l1.7,0.7l1.7,0.6l0.1-1.4l1.1-2.4l1.3-1.4l1.5,0.4
	l1.4,0.1l-0.1,1.6l-0.6,1.4l-0.4,1.6l-0.3,2.3l0.1,1.5l-0.3,0.9l-0.1,1l-0.2,0.8l-1.4,1.3l-1,1.4l-0.9,2.5l0.1,2.2l-0.5,0.8
	l-1.3,1.3l-1.3,1.6l-0.8-0.5l-0.1-0.7l-1.2,0l-0.7,1L507.8,262.5z"/>
<path class="st1" d="M318.5,250.4l-0.9-0.6l-1-0.9l-0.6,0.4l-1.8-0.4l-0.5-1.2l-0.4,0l-2.1-1.6l-0.3-0.8l0.8-0.2l-0.1-1.4l0.5-1
	l1.1-0.2l0.9-1.7l0.9-1.4l-0.8-0.7l0.5-1.6l-0.4-2.5l0.5-0.7l-0.2-2.3l-0.8-1.5l0.4-1.3l0.7,0.2l0.5-0.8l-0.4-1.6l0.3-0.4l1.1,0.1
	l1.7-1.9l0.9-0.3l0.1-0.9l0.6-2.3l1.3-1.2l1.3,0l0.2-0.6l1.6,0.2l1.8-1.3l0.9-0.6l1.1-1.3l0.7,0.2l0.5,0.7l-0.5,0.9l-1.4,0.4
	l-0.7,1.3l-0.9,0.8l-0.7,1l-0.4,1.9l-0.7,1.6l1.1,0.2l0.2,1.2l0.4,0.6l0.1,1.1l-0.3,1l0,0.6l0.5,0.2l0.5,0.9l2.8-0.2l1.2,0.4
	l1.4,2.3l0.9-0.3l1.5,0.2l1.2-0.3l0.7,0.5l-0.4,1.4l-0.5,0.9l-0.2,1.9l0.4,1.8l0.6,0.8l0.1,0.6l-1.1,1.3l0.8,0.6l0.6,0.9l0.6,2.7
	l-0.4,0.3l-0.4-1.6l-0.6-0.9l-0.7,0.9l-4.2-0.1l0,1.7l1.3,0.3l-0.1,1l-0.4-0.3l-1.2,0.4l0,2l1,1l0.3,1.5l0,1.2l-0.8,7.4l-1.1-1.4
	l-0.6-0.1l1.3-2.8l-1.7-1.3l-1.3,0.2l-0.8-0.5l-1.2,0.7l-1.6-0.3l-1.3-2.8l-1-0.7l-0.7-1.3l-1.4-1.3L318.5,250.4z"/>
<path class="st3" d="M303.1,227.5l-1.1-0.6l-0.4-0.6l0.3-0.5l0-0.6l-0.5-0.7l-0.8-0.6l-0.7-0.4l-0.1-0.8l-0.5-0.5l0.1,0.8l-0.5,0.6
	l-0.4-0.8l-0.7-0.3l-0.2-0.6l0.1-0.8l0.4-0.9l-0.6-0.4l0.5-0.5l0.4-0.3l1.3,0.7l0.5-0.3l0.7,0.2l0.3,0.6l0.6,0.2l0.6-0.6l0.4,1.5
	l0.7,1.1l0.9,1.2l-0.8,0.2l-0.1,1.1l0.4,0.4l-0.3,0.3l0,0.5l-0.2,0.6L303.1,227.5z"/>
<path class="st2" d="M310.1,186.7l1.7,0.3l1.6,0.1l1.8,1l0.6,1l2-0.2l0.6,0.7l1.4,1.7l1.1,1.3l0.7,0l1.1,0.6l-0.3,0.8l1.5,0.2
	l1.4,1.1l-0.3,0.6l-1.4,0.3l-1.4,0.1l-1.4-0.3l-3,0.2l1.6-1.5l-0.7-0.7l-1.3-0.2l-0.6-0.8l-0.2-1.6l-1.2,0.1l-1.8-0.8l-0.5-0.6
	l-2.6-0.5l-0.6-0.6l0.9-0.7l-2-0.2l-1.8,1.4l-0.9,0l-0.4,0.7l-1.1,0.3l-0.8-0.3l1.3-0.8l0.6-1l1.1-0.6l1.2-0.5l1.6-0.2L310.1,186.7z
	"/>
<path class="st2" d="M544.6,157.4l0.1,0l0.2-0.6l1.4,0l1.7-0.8l-1.2,1.1l0.2,0.5l-0.2-0.1l-0.4,0.2l-0.3,0l-0.1,0.1l-0.1-0.3
	l-0.2-0.2l-0.4,0l-0.5,0.2L544.6,157.4z"/>
<path class="st3" d="M547,157.6l0.1,0.2l-1.9,1.1l-1-0.3l-0.6-1l0.9-0.1l0.4,0.1l0.5-0.2l0.4,0l0.2,0.2l0.1,0.3l0.1-0.1l0.3,0
	l0.4-0.2L547,157.6z"/>
<path class="st3" d="M510.7,122.6l-0.9-0.5l-0.8,0.1l-1.5-0.8l-0.6,0.2l-0.9,1.1l-1.4-0.8l-1.1-1.1l-1-0.6l-0.3-1.1l-0.4-0.8
	l1.3-0.6l0.6-0.7l1.2-0.5l0.4-0.5l0.5,0.3l0.8-0.3l0.9,0.8l1.4,0.2l0,0.7l1,0.5l0.2-0.7l1.3,0.3l0.3,0.8l1.3,0.1l1,1.3l-0.5,0
	l-0.2,0.5l-0.4,0.1l-0.1,0.6l-0.3,0.1l0,0.2l-0.6,0.3l-0.8,0L510.7,122.6z"/>
<path class="st4" d="M497,106l0.1,1l1.8,0.6l0,0.9l1.7-0.5l0.9-0.7l2,1l0.9,0.8l0.5,1.3l-0.4,0.7l0.7,0.9l0.6,1.4l-0.1,0.9l0.9,1.7
	l-0.8,0.3l-0.5-0.3l-0.4,0.5l-1.2,0.5l-0.6,0.7l-1.3,0.6l0.4,0.8l0.3,1.1l1,0.6l1.1,1.1l-0.5,1.2l-0.6,0.3l0.4,1.7l-0.1,0.4
	l-0.6-0.5l-0.9-0.1l-1.3,0.5l-1.6-0.1l-0.2,0.7l-1-0.7l-0.5,0.1l-2-0.8l-0.3,0.6l-1.6,0l0.2-1.9l0.8-1.8l-2.6-0.5l-0.9-0.7l0.1-1.1
	l-0.4-0.6l0.1-1.8l-0.4-2.7l1.1,0l0.4-1l0.3-2.4L492,110l0.3-0.6l1.4-0.2l0.4,0.6l1.1-1.3l-0.4-1l-0.2-1.5l1.3,0.3L497,106z"/>
<path class="st2" d="M571.4,216.4l0.5,0.8l0,1.1l-1.2,0.6l0.9,0.7l-0.7,1.4l-0.5-0.5l-0.5,0.2l-1.2,0l-0.1-0.8l-0.2-0.7l0.7-1.2
	l0.7-1.2l0.9,0.2L571.4,216.4z"/>
<path class="st4" d="M501.6,104.3l-0.9,2.1l-1.9-1.5l-0.3-1.1l2.4-0.9L501.6,104.3z M498.4,102.1l-0.3,1l-0.5-0.3l-1.1,1.9l0.5,1.3
	l-1.1,0.4l-1.3-0.3l-0.8-1.4l-0.2-2.7l0.2-0.7l0.4-0.8l1.5-0.2l0.5-0.7l1.3-0.7l0,1.3l-0.4,0.9l0.3,0.7L498.4,102.1z"/>
<path class="st1" d="M330.3,196.7l0.3-0.5l1.6,0.1l1.1,0.7l0.6-0.1l0.2,1l1.1,0l-0.2,0.8l0.9,0.1l0.9,1l-0.9,1.1l-0.9-0.6l-1,0.1
	l-0.7-0.1l-0.4,0.5l-0.8,0.1l-0.2-0.7l-0.7,0.4l-1.1,1.8l-0.5-0.4l0-0.8l0.1-0.7l-0.4-0.8l0.6-0.4l0.3-1L330.3,196.7z"/>
<path class="st5" d="M504.8,188.5l-7,5l-6,5.2l-2.9,1.2l-2.3,0.3l0-1.7l-1-0.4l-1.3-0.7l-0.5-1.2l-7-5.7l-6.9-5.7l-7.6-6.4l0.1-0.5
	l0-0.2l0.1-3.1l3.3-1.9l2-0.4l1.7-0.7l0.8-1.3l2.4-1l0.1-1.9l1.2-0.2l0.9-1l2.6-0.4l0.4-1l-0.5-0.6l-0.7-2.8l-0.1-1.6l-0.7-1.7
	l1.9-1.4l2.1-0.5l1.2-1.1l1.9-0.8l3.3-0.5l3.2-0.2l1,0.4l1.8-1l2.1,0l0.8,0.6l1.3-0.2l-0.4,1.3l0.4,2.5l-0.4,2.2l-1.2,1.5l0.2,2
	l1.7,1.6l0,0.6l1.3,1.1l1,4.7l0.7,2.3l0.1,1.2l-0.3,2.1l0.2,1.2l-0.2,1.4l0.2,1.6l-0.8,1.1l1.3,1.9l0.1,1.1l0.8,1.5l1-0.5l1.7,1.2
	L504.8,188.5z"/>
<path class="st1" d="M308.1,259.3l1.1-2l-0.5-1.2l-0.8,1.3l-1.3-1.2l0.4-0.8l-0.4-2.5l0.7-0.4l0.4-1.7l0.8-1.8l-0.1-1.1l1.2-0.6
	l1.5-1.1l2.1,1.6l0.4,0l0.5,1.2l1.8,0.4l0.6-0.4l1,0.9l0.9,0.6l0.3,2.1l-0.6,1.8l-2.3,2.9l-2.6,1.1l-1.2,2.4l-0.3,1.8l-1.2,1.1
	l-1-1.4l-0.9-0.3l-0.9,0.2l-0.1-1l0.6-0.7L308.1,259.3z"/>
<path class="st5" d="M550.7,172.2l-0.5,1.1l-0.2,2l-0.4,1.4l-0.4,0.5l-0.8-0.8l-1-1.2l-1.8-3.8l-0.2,0.2l1.1,2.8l1.5,2.6l1.9,4.1
	l0.9,1.4l0.8,1.5l2.1,2.9l-0.4,0.5l0.2,1.7l2.6,2.3l0.4,0.5l-8.2,0.1l-8.1,0.1l-8.3,0.1l-0.6-9.7l-0.7-9.3l-0.8-2.1l0.4-1.6
	l-0.4-1.1l0.6-1.3l2.7-0.1l2,0.7l2.1,0.7l1,0.4l1.5-0.9l0.8-0.8l1.7-0.2l1.5,0.3l0.7,1.3l0.4-0.9l1.7,0.6l1.6,0.1l0.9-0.7
	L550.7,172.2z"/>
<path class="st2" d="M569.8,216.8l-0.8-0.9l-1-1.5l-1-0.8l-0.6-0.9l-1.9-1l-1.5,0l-0.5-0.5l-1.2,0.6l-1.4-1.2l-0.5,2l-2.5-0.5
	l-0.3-1.1l0.7-3.9l0.1-1.8l0.6-0.8l1.5-0.4l1-1.5l1.4,3l0.7,2.4l1.2,1.3l3,2.5l1.3,1.5l1.2,1.5l0.7,0.9l1.1,0.8l-0.6,0.7
	L569.8,216.8z"/>
<path class="st3" d="M462.8,140.3l0.2-1.9l-0.7-1.1l2.7-1.9l2.3,0.5l2.5,0l2,0.5l1.6-0.1l3,0.1l0.7,1l3.5,1.2l0.7-0.6l2.1,1.2
	l2.2-0.3l0.1,1.5l-1.8,1.7l-2.4,0.6l-0.2,0.9l-1.2,1.5l-0.7,2.1l0.8,1.5l-1.1,1.2l-0.4,1.7l-1.5,0.5l-1.4,2l-2.5,0l-1.9-0.1
	l-1.2,0.9l-0.8,1l-1-0.2l-0.7-0.9l-0.5-1.5l-1.8-0.4l-0.1-0.9l0.8-1l0.3-0.7l-0.6-0.8l0.6-1.7l-0.7-1.6l0.8-0.2l0.1-1.2l0.3-0.4
	l0.1-2l0.9-0.7l-0.5-1.3l-1.1-0.1l-0.3,0.3l-1.1,0l-0.4-1.3l-0.8,0.4L462.8,140.3z"/>
<path class="st3" d="M520.4,98.3l-0.1-1.5l-0.6,0.3l-1.2-0.9l-0.4-1.5l1.9-0.8l2-0.4l1.8,0.4l1.7-0.1l0.3,0.5l-0.9,1.5l1,2.4
	l-0.6,0.8l-1.4,0l-1.6-0.9l-0.8-0.3L520.4,98.3z"/>
<path class="st6" d="M560.1,210.5l1.4,1.2l1.2-0.6l0.5,0.5l1.5,0l1.9,1l0.6,0.9l1,0.8l1,1.5l0.8,0.9l-0.7,1.2l-0.7,1.2l0.2,0.7
	l0.1,0.8l1.2,0l0.5-0.2l0.5,0.5l-0.4,0.9l0.9,1.5l0.8,1.3l0.9,0.9l7.1,3.1l1.8,0l-5.8,8l-2.8,0.1l-1.9,1.9l-1.4,0.1l-0.6,0.8l-1.5,0
	l-0.9-0.9l-1.9,1.1l-0.6,1.1l-1.4-0.2l-0.5-0.3l-0.5,0.1l-0.7,0l-2.7-2.2l-1.5,0l-0.7-0.9l0-1.5l-1.1-0.4l-1.3-2.9l-1-0.6l-0.4-1.1
	l-1.1-1.3l-1.3-0.2l0.7-1.5l1.1-0.1l0.3-0.8l-0.1-2.4l0.5-2.8l1-0.7l0.2-1.1l0.8-2l1.2-1.3l0.7-2.6l0.2-2.3l2.5,0.5L560.1,210.5z"/>
<path class="st4" d="M521,68.7l0.2,1.8l2.7,1.7l-0.9,2l2.5,2.9l-0.5,2.3l1.8,1.9l-0.2,1.7l2.7,1.7l-0.3,1.3l-1.1,1.5l-2.7,3.4
	l-2.9,0.3l-2.7,1l-2.5,0.6l-1.2-1.4l-1.7-0.8l-0.1-2.6l-1.1-2.3l0.5-1.5l1.1-1.7l3-2.9l0.9-0.6l-0.4-1.1l-2.3-1.2l-0.7-1l-0.8-4
	l-2.6-1.7l-2.2-1.2l0.7-0.7l1.9,1.4l1.8-0.2l1.7,0.6l1.1-1.2l0.3-1.9l2-0.9l2.1,1L521,68.7z"/>
<path class="st2" d="M851.6,307.5l0.3,1l-1,1.7l-1.4,0.3l-1-0.5l0.3-1.4l1.2-1l0.8,0.5L851.6,307.5z M854.3,305.9l-1.5,0.6l0.2-1.2
	l1.3-0.6l0.7-0.1l1.6-0.9l-0.6,1.6L854.3,305.9z M104.3,305l-0.1,0.2l-0.6-1.6l0.4-0.2L104.3,305z"/>
<path class="st2" d="M372.7,388.2l1.5-1.7l1.7,0.6l0.7-1.1l1.8,1.1l-0.2,0.9l-2.1,0.9l-1.1-0.9l-1,1.3L372.7,388.2z"/>
<path class="st3" d="M498.1,139.6l-0.5,2l-0.9-0.5l-0.5-1.8l0.3-1l1.2-1L498.1,139.6z M486.4,118.1l1.3,1.2l0.9-0.2l1.6,1.2l0.4,0.2
	l0.5-0.1l0.9,0.7l2.6,0.5l-0.8,1.8l-0.2,1.9l-0.5,0.4l-0.8-0.2l0.1,0.7l-1.3,1.5l0,1.2l0.9-0.4l0.7,1.1l-0.1,0.7l0.6,1l-0.6,0.8
	l0.5,2l1,0.3l-0.2,1.1l-1.7,1.5l-3.7-0.7l-2.7,0.9l-0.2,1.6l-2.2,0.3l-2.1-1.2l-0.7,0.6l-3.5-1.2l-0.7-1l1-1.6l0.4-5.2l-1.9-2.7
	l-1.3-1.3l-2.8-1l-0.1-1.9l2.4-0.6l3,0.7l-0.5-3l1.7,1.1l4.2-2l0.5-2.1l1.5-0.5l0.3,0.9l0.8,0L486.4,118.1z"/>
<path class="st2" d="M503.7,260.4l-2.2-2.6l-1.4-2.2l-1.3-2.7l0.1-0.9l0.5-0.8l0.5-1.9l0.4-1.9l0.7-0.2l3.1,0l0-3.2l1-0.2l1.3,0.4
	l1.3-0.3l0.3,0.1l-0.2,1.1l0.6,1.4l1.6-0.2l0.5,0.5l-0.9,3l1,1.6l0.2,2l-0.3,1.7l-0.7,1.2l-1.9-0.1l-1.1-1.3l-0.2,1.2l-1.4,0.3
	l-0.7,0.7l0.8,1.7L503.7,260.4z"/>
<path class="st4" d="M470.3,107.2l-1,1.8l-1.3-0.5l-1.1,0l0.4-1.4l-0.3-1.4l1.4-0.1L470.3,107.2z M475,96.5l-1.8,2.8l1.7-0.4l1.8,0
	l-0.5,2.1l-1.6,2.3l1.8,0.2l0.1,0.3l1.5,3.1l1.2,0.4l1.1,3l0.5,1l2.1,0.5l-0.2,1.7l-0.9,0.8l0.7,1.4l-1.6,1.4l-2.4,0l-3,0.7
	l-0.8-0.5l-1.2,1.2l-1.6-0.3l-1.3,1l-0.9-0.5l2.7-2.7l1.6-0.6l0,0l-2.8-0.4l-0.5-1l1.9-0.8l-0.9-1.4l0.4-1.7l2.6,0.2l0,0l0.3-1.5
	l-1.1-1.6l0,0l-2.1-0.5l-0.4-0.7l0.7-1.2l-0.5-0.7l-1,1.2l0-2.5l-0.8-1.3l0.7-2.7l1.4-2.1l1.3,0.2L475,96.5z"/>
<path class="st1" d="M559,140.2l0.1-1.1l-0.8-1.8l-1.3-0.9l-1.1-0.3l-0.8-0.8l0.2-0.3l1.7,0.4l2.8,0.4l2.8,1.2l0.4,0.5l1.1-0.4
	l1.9,0.5l0.8,1.1l1.3,0.6l-0.4,0.4l1.2,1.4l-0.2,0.3l-1.1-0.1l-1.6-0.7l-0.4,0.4l-2.6,0.5l-2.1-1.2L559,140.2z"/>
<path class="st5" d="M482.3,234.5l-3.4,1.5l-1.2,0.9l-1.9,0.8l-1.9-0.7l0.1-1l-0.9-2.3l0.6-3l0.9-2.2l-0.6-3.7l-0.3-2l0.1-1.5
	l3.7-0.1l0.9,0.2l0.7-0.4l1,0.2l-0.2,0.8l0.9,1.4l0,1.9l0.2,2.1l0.5,1l-0.5,2.4l0.2,1.3l0.6,1.7L482.3,234.5z"/>
<path class="st0" d="M462,229.9l-0.6-0.1l-0.4,1.1l-0.6,0l-0.4-0.6l0.1-1.1l-0.9-1.6l-0.6,0.3l-0.5,0.1l-0.6,0.1l0-1l-0.3-0.7
	l0.1-0.8l-0.5-1.1l-0.6-0.9l-1.7,0l-0.5,0.5l-0.6,0.1l-0.4,0.6l-0.3,0.7l-1.2,1.2l-0.9-1.6l-0.8-1l-0.5-0.3l-0.5-0.5l-0.2-1.2
	l-0.3-0.6l-0.6-0.4l1-1.3l0.6,0.1l0.6-0.4l0.5,0l0.3-0.3l-0.2-0.9l0.2-0.3l0.1-0.9l1,0l1.5,0.6l0.5-0.1l0.2-0.3l1.2,0.2l0.3-0.1
	l0.1,1l0.3,0l0.6-0.3l0.4,0.1l0.6,0.7l0.9,0.2l0.6-0.6l0.7-0.3l0.5-0.4l0.4,0.1l0.5,0.6l0.2,0.7l0.9,1.1l-0.4,0.7l-0.1,0.9l0.5-0.3
	l0.3,0.3l-0.1,0.8l0.6,0.8l-0.4,0.2l-0.2,0.9l0.5,1.1l0.5,2.1l-0.8,0.3l-0.2,0.4l0.2,0.5l-0.1,1.1L462,229.9z"/>
<path class="st2" d="M444.3,215.5l0.3-1.2l2.3-0.1l0.5-0.6l0.7,0l0.8,0.6l0.7,0l0.7-0.4l0.4,0.8l-0.9,0.6l-0.9,0l-0.9-0.6l-0.8,0.6
	l-0.4,0l-0.5,0.4L444.3,215.5z"/>
<path class="st2" d="M447.8,221.1l-1.1-1.1l-0.9-0.2l-0.5-0.7l0-0.4l-0.6-0.6l-0.1-0.6l1.1-0.4l0.7,0.1l0.6-0.3l3.9,0.1l-0.1,0.9
	l-0.2,0.3l0.2,0.9l-0.3,0.3l-0.5,0l-0.6,0.4l-0.6-0.1L447.8,221.1z"/>
<path class="st2" d="M500.3,247.4l-0.4-0.4l0.7-2.9l3.5,0.1l0,3.2l-3.1,0L500.3,247.4z"/>
<path class="st3" d="M526.6,156.2l1.2,0.9l1.5-0.2l1.5,0.2l0,0.5l1-0.3l-0.2,0.8l-2.8,0.3l0-0.4l-2.5-0.5L526.6,156.2z M530.6,140.8
	l-0.4,1.7l-0.4,0.3l-1.2-0.1l-1-0.2l-2.2,0.7l1.5,1.5l-0.9,0.4l-1.1,0l-1.2-1.3l-0.3,0.6l0.6,1.6l1.1,1.2l-0.7,0.6l1.2,1.2l1,0.7
	l0.2,1.5l-1.9-0.7l0.7,1.3l-1.2,0.3l1,2.3l-1.3,0l-1.7-1.1l-0.9-2.1l-0.5-1.7l-0.9-1.2l-1.1-1.5l-0.2-0.7l0.8-1.3l0-0.9l0.6-0.4
	l0-0.7l1.2-0.2l0.7-0.6l1,0l0.3-0.5l0.4-0.1l1.4,0.1l1.4-0.7l1.4,0.9l1.7-0.3l-0.1-1.3L530.6,140.8z"/>
<path class="st2" d="M429.9,33l4.4-1.4l3.6,0.2l1.8-0.9l3.8-0.2l8.2,0.5l6,2.1l-2.2,1l-4.2,0.1l-5.9,0.2l0.4,0.5l3.9-0.2l3,0.9
	l2.3-0.8l0.7,0.9l-1.6,1.5l3.1-0.9l5.6-1l3.2,0.5l0.5,1.1l-4.9,1.8l-0.8,0.6l-3.8,0.4l2.6,0.2l-1.7,1.9l-1.3,1.7l-0.6,2.9l1.1,1.7
	l-2,0.1l-2.2,0.8l2,1.4l-0.1,2.2l-1.4,0.2l1.2,2.3l-2.9,0.1l1.3,1.1l-0.6,0.9l-2,0.4l-1.9,0l1.3,1.8l-0.2,1.2l-2.4-1.1l-0.9,0.7
	L448,61l1.5,1.6l0.1,2.1l-2.6,0.5l-0.9-1l-1.4-1.5l0.1,1.8l-1.9,1.3l3.7,0.2l1.9,0.2l-4.3,2.2l-4.4,2l-4.5,0.8l-1.6,0l-1.8,1
	l-2.8,2.7l-3.7,1.7l-1.1,0.1l-2.2,0.6l-2.3,0.5l-1.8,1.6l-0.6,1.8l-1.3,1.7l-3.2,2l0,2.1l-1.4,2.1l-1.6,2.5l-2.3,0.1l-1.6-2.2
	l-3.2-0.1l-1-1.5l-0.1-2.6l-1.4-3.4l-0.1-1.7l0.8-2.3l-1-2.5l1.4-1.9l-0.6-1l2.8-3l2.6-0.9l1-1.1l1.2-2l-2,0.8l-0.9,0.4l-1.4,0.3
	l-1.3-0.9l0.8-1.8l1.2-1.3l1.3,0l2.5,0.8l-1.6-1.7l-0.8-0.9l-1.5,0.3l-0.8-0.7l2.7-2.3l-0.3-1l-0.1-1.8l0-2.8l-1-1.1l0.6-1.1
	l-2.4-1.6l-2.5-0.3l-3.3-0.1l-3.1,0l-0.8-0.9l-0.9-1.7l3.7-0.6l2.5,0l-4.6-0.9l-1.8-1.2l0.9-1l5.3-1l5.1-1l1.1-0.9l-2.3-1l1.7-0.9
	l5.1-1.6l1.8-0.2l0.4-1.1l3-0.6l3.6-0.3l3.3,0.1l0.7,0.8l3.7-1.3l2,1l1.4,0.2l1.8,0.9l-1.8-1.4L429.9,33z"/>
<path class="st5" d="M289.5,212.1l-1-0.5l-1.3-0.1l-0.9-0.6l-1-1.2l0.2-0.8l0.3-0.6l-0.2-0.5l1.4-2.2l2.7,0.1l0.2-0.9l-0.3-0.2
	l-0.1-0.6l-0.7-0.7l-0.6-0.9l0.9,0l0.3-1.6l2,0.1l1.9,0.1l-0.4,2.2l-0.6,3.1l0.6,0l0.6,0.5l0.2-0.4l0.6,0.4l-1.1,1l-1.1,0.7
	l-0.2,0.5l0.1,0.5l-0.5,0.7l-0.5,0.2l0.1,0.3l-0.4,0.3l-0.8,0.7L289.5,212.1z"/>
<path class="st2" d="M367.5,243.3l-0.8,1l-1,0.2l-0.3-0.8l-0.5-0.1l-0.7,0.7l-0.9-0.6l0.6-1.1l0.2-1.2l0.4-1.1l-0.8-1.6l-0.1-1.8
	l1.2-2.3l0.7,0.3l1.6,0.6l2.2,2.3l0.3,1.1l-1.3,2.4L367.5,243.3z"/>
<path class="st2" d="M352.6,227.6l1.4,1l1.2,1.8l0,1.4l0.8,0.1l1.1,1.3l0.8,0.9l-0.4,2.4l-1.3,0.7l0.1,0.6l-0.4,1.4l0.9,1.9l0.7,0
	l0.3,1.5l1.3,2.3l-0.5,0.1l-1.2-0.2l-0.7,0.7l-1,0.5l-0.7,0.1l-0.2,0.5l-1.1-0.1l-1.3-1.3l-0.1-1.2l-0.5-1.4l0.4-2.3l0.6-0.9
	l-0.5-1.2l-0.7-0.4l0.3-1.2l-0.5-0.6l-1.1,0.1l-1.4-2l0.6-0.7l0-1.2l1.3-0.4l0.6-0.5l-0.7-1l0.2-1L352.6,227.6z"/>
<path class="st5" d="M295.1,214.3l-0.3-0.9l-0.6-0.3l0.3-1.1l-0.2-0.3l-0.4-0.2l-1,0.3l0-0.4l-0.6-0.5l-0.4-0.6l-0.6-0.2l0.5-0.7
	l-0.1-0.5l0.2-0.5l1.1-0.7l1.1-1l0.2,0.1l0.5-0.5l0.6,0l0.2,0.2l0.3-0.1l0.9,0.3l1,0l0.7-0.3l0.3-0.3l0.6,0.2l0.5,0.2l0.6-0.1
	l0.5-0.2l0.9,0.4l0.3,0.1l0.6,0.5l0.5,0.6l0.7,0.4l0.5,0.8l-0.7-0.1l-0.3,0.4l-0.8,0.3l-0.5,0l-0.5,0.3l-0.4-0.1l-0.3-0.4l-0.2,0.1
	l-0.4,0.6l-0.2,0l-0.1,0.6l-0.8,0.7l-0.4,0.3l-0.3,0.3l-0.6-0.6l-0.5,0.7l-0.4,0l-0.5,0.1l-0.1,1.4l-0.3,0l-0.3,0.6L295.1,214.3z"/>
<path class="st3" d="M514.8,129.6l0.5,1l0.7,0.7l-0.6,1l-0.9-0.6l-1.3,0.1l-1.6-0.4l-0.9,0.1l-0.4,0.5l-0.7-0.6l-0.3,1.1l1,1.2
	l0.5,0.8l0.9,1l0.8,0.6l0.8,1.1l1.8,1l-0.2,0.4l-1.9-0.9l-1.2-0.9l-1.8-0.8l-1.7-1.9l0.4-0.2l-0.9-1.1l-0.1-0.9l-1.2-0.4l-0.5,1.1
	l-0.6-0.9l0-0.9l0.1,0l1.3,0.1l0.3-0.4l0.7,0.4l0.7,0l-0.1-0.7l0.6-0.3l0.1-1.1l1.4-0.7l0.6,0.3l1.5,1.1l1.6,0.5L514.8,129.6z"/>
<path class="st2" d="M327.3,196.1l1.3,0.2l1.7,0.5l0,1.5l-0.3,1l-0.6,0.4l0.4,0.8l-0.1,0.7l-1.3-0.5l-1,0.2l-1.2-0.2l-1,0.5l-1-0.9
	l0.3-0.9l1.9,0.4l1.5,0.3l0.8-0.6l-0.8-1.2l0.2-1l-1.3-0.5L327.3,196.1z"/>
<path class="st3" d="M509.7,127.2l0.5-1.7l-0.4-0.6l1,0l0-1.1l1,0.7l0.7,0.3l1.5-0.3l0.1-0.5l0.7-0.1l0.8-0.4l0.2,0.2l0.8-0.3
	l0.4-0.6l0.6-0.2l2,0.8l0.4-0.3l1.1,0.7l0.2,0.7l-1,0.6l-0.7,1.8l-0.9,1.8l-1.4,0.5l-1.2-0.1l-1.3,0.7l-0.7,0.4l-1.6-0.5l-1.5-1.1
	l-0.6-0.3l-0.4-0.9L509.7,127.2z"/>
<path class="st5" d="M736.6,279.6l-0.9,0l-2.6-2.1l2-0.5l1,0.9l0.6,0.9L736.6,279.6z M744.6,279.5l-1.9,0.6l-0.2-0.4l0.3-1l1.1-1.7
	l2.2-1.1l0.1,0.6l-0.1,0.9L744.6,279.5z M731.4,273.3l0.7,0.8l1.3-0.2l0.4,1.2l-2.5,0.5l-1.5,0.4l-1.1,0l0.9-1.6l1.2,0L731.4,273.3z
	 M742,273.5l-0.5,1.6l-3.3,0.8l-2.8-0.4l0.1-1.1l1.8-0.6l1.2,0.9l1.4-0.2L742,273.5z M712,269.2l4.1,0.3l0.6-1.2l3.8,1.4l0.6,1.9
	l3.1,0.6l2.4,1.7l-2.5,1l-2.2-1.2l-1.9,0l-2.2-0.3l-1.9-0.5l-2.4-1.1l-1.5-0.3L711,272l-3.8-1.2l-0.3-1.2l-1.9-0.2l1.7-2.7l2.6,0.2
	l1.6,1.1l0.9,0.2L712,269.2z M767.8,268.5l-1.3,2l0-2.2l0.5-1.1l0.5-1l0.4,0.9L767.8,268.5z M752.4,260.1l-0.8,1l-1.5-0.6l-0.4-1.3
	l2.2-0.1L752.4,260.1z M759.3,259.1l0.7,2.3l-1.7-1.2l-1.8-0.3l-1.2,0.2l-1.5-0.1l0.6-1.6l2.6-0.1L759.3,259.1z M767.4,253.4
	l0.5,4.8l2.1,1.8l1.9-3.1l2.5-1.8l1.9,0l1.8,1.1l1.6,1.1l2.3,0.6l-0.6,9.8l-1.1,9.8l-1.6-2.5l-2.1-0.7l-0.6,0.8l-2.7,0l1.2-2.4
	l1.4-0.8l-0.2-3.3l-0.8-2.5l-4-2.6l-1.7-0.3l-3-2.8l-0.7,1.4l-0.8,0.3l-0.4-1.1l0.1-1.3l-1.6-1.5l2.3-1l1.5,0.1l-0.2-0.8l-3.1,0
	l-0.8-1.8l-1.9-0.6l-0.9-1.5l2.9-0.7l1.1-1l3.4,1.2L767.4,253.4z M748.3,245.9l-1.7,2.9l-1.6,0.6l-2.1-0.6l-3.6,0.1l-1.9,0.4
	l-0.3,2.2l1.9,2.6l1.2-1.3l4-1l-0.2,1.3l-0.9-0.4l-1,1.7l-1.9,1.1l1.9,3.7l-0.4,1l1.7,3.4l-0.1,1.9l-1.2,0.8l-0.8-1l1.2-2.4
	l-2.2,1.1l-0.5-0.8l0.3-1.1l-1.5-1.7l0.3-2.8l-1.5,0.9l0,3.4l-0.2,4.1l-1.4,0.4l-0.9-0.9l0.8-2.7l-0.2-2.8l-0.9,0l-0.6-2l0.9-1.9
	l0.4-2.3l1.1-4.4l0.4-1.2l1.8-2.2l1.7,0.9l2.7,0.4l2.5-0.1l2.1-2.1L748.3,245.9z M755.7,246.7l-0.1,2.6l-1.1-0.3l-0.3,1.8l0.9,1.6
	l-0.6,0.4l-0.8-1.9l-0.7-3.7l0.4-2.3l0.7-1.1l0.2,1.6l1.3,0.3L755.7,246.7z M732.5,244.7l2.4,2.7l-2.5,0.3l-0.7,2l0.1,2.6l-2.1,2
	l-0.1,2.9l-1,4.4l-0.3-1l-2.5,1.3L725,260l-1.5-0.2l-1-0.9l-2.6,1l-0.7-1.4l-1.4,0.1l-1.8-0.3l-0.2-3.8l-1.1-0.8l-1-2.4l-0.3-2.5
	l0.2-2.6l1.2-1.9l0.4,1.9l1.5,1.6l1.4-0.6l1.4,0.2l1.2-1.4l1-0.3l2,0.8l1.7-0.6l1-4l0.8-1l0.6-3.3l2.5,0l1.9,0.5l-1.1,2.6l1.7,2.7
	L732.5,244.7z M706.2,266.5l-2.4,0l-1.7-2.4l-2.6-2.3l-0.8-1.7l-1.5-2.3l-1-2.1l-1.6-3.9l-1.9-2.3l-0.6-2.4l-0.8-2.2l-2-1.8
	l-1.2-2.4l-1.7-1.6l-2.4-3l-0.3-1.4l1.4,0.1l3.3,0.5l2,2.7l1.7,1.9l1.2,1.2l2.1,3l2.2,0l1.8,1.9l1.3,2.4l1.6,1.3l-0.9,2.3l1.2,1
	l0.8,0.1l0.3,2l0.7,1.6l1.6,0.3l1,1.8l-0.7,3.5L706.2,266.5z"/>
<path class="st5" d="M632.6,153.7l3,3.1l0.4,2.2l1.2,1.3l0.3,1.4l-1.5-0.3l1.4,2.9l2.4,1.6l3.3,1.8l-0.9,1.3l-0.1,2.6l2.2,0.9
	l2.2,1.3l3,1.4l2.9,0.2l1.5,1.3l1.6,0.2l2.6,0.5l1.7-0.1l0-1.1l-0.7-1.7l-0.2-1.2l1.1-0.6l0.7,2.1l0.2,0.5l2.1,1l1.2-0.5l1.8,0.1
	l1.6-0.2l-0.3-1.7l-1.1-0.8l1.5-0.4l1.2-2.1l1.8-1.9l1.9,0.6l1.1-1.2l1.5,1.7l-0.3,1.2l2.3,0.3l0.5,1l-0.6,0.5l0.7,1.7l-1.6-0.4
	l-2.1,2l0.5,1.6l-0.5,2.4l0.2,1.3l-0.3,2.3l-1.7-0.6l0.6,2.8l-0.2,1l0.5,1.2l-0.9,0.7l-2.1-4.3l-0.6,0l0.1,1.8l-1.4-1.4l0.3-1.6
	l0.9-0.2l0.4-2.4l-1.3-0.4l-1.9,0.1l-2-0.3l-0.7-1.9l-1-0.1l-1.9-1.1l-0.3,1.9l1.8,1.4l-1,1.1l-0.2,1l1.4,0.7l0,1.7l1.2,2l0.8,2.2
	l-0.1,1l-1.4,0l-2.4,0.7l0.5,2.1l-0.8,1.7l-2.7,1.9l-1.8,3.3l-1.3,1.8l-1.8,1.8l0.2,1.3l-1,0.7l-1.8,1l-1,0.2l-0.4,2.1l0.9,3.5
	l0.4,2.3l-0.6,2.6l0.4,4.6l-1.1,0.1L648,224l0.7,0.9l-1.9,0.8l-0.6,1.9l-0.8,0.8l-2.2-2.5L642,222l-1-2.7L640,218l-1.4-2.6l-0.9-3.4
	l-0.6-1.7l-2.4-3.7l-1.6-5.2l-1.1-3.4l-0.5-3.3l-0.8-2.5l-2.8,1.7l-1.5-0.3l-3.2-3.2l0.8-1l-0.8-1l-2.8-2.2l1.1-1.8l4.5-0.1
	l-0.8-2.3l-1.4-1.3l-0.6-2.1l-1.6-1.2l1.7-2.9l2.4,0.1l1.5-2.9l0.6-2.8l1.3-2.8l-0.5-1.9l1.3-1.6l-1.9-1.3l-1.2-1.8l-1.3-2.3
	l0.6-1.2l3.1,0.5l2.1-0.5L632.6,153.7z"/>
<path class="st4" d="M469.3,108.9l0.2,1.9l-1.4,2.3l-3.2,1.5l-2.5-0.4l1.6-2.7l-0.8-2.7l2.5-2l1.4-1.2l0.3,1.4l-0.4,1.4l1.1,0
	L469.3,108.9z"/>
<path class="st5" d="M585,151l1.6-0.6l1-1.6l1.3,0l0.7-0.5l1.4,0.2l2.5,1.3l1.6,0.2l2.8,2.3l1.5,0l0.7,2.2l0,3.3l-0.1,2l0.9,0.4
	l-0.5,1.5l1.1,2.1l0.5,1.7l1.6,0.4l0.5,1.7l-1.3,2.5l1.3,1.4l1.1,1.6l2.2,1.1l0.5,2.4l1.1,0.4l0.4,1.2l-2.7,1.5l-0.2,3.1l-4-0.7
	l-2.3-0.6l-2.4-0.3l-1.4-3.2l-1.1-0.4l-1.5,0.5l-1.9,1.3l-2.6-0.8l-2.4-2l-2.1-0.7l-1.7-2.5l-2-3.5l-1,0.5l-1.4-0.8l-0.6,1.1
	l-1.3-1.4l-0.2-1.4l-0.6,0l0-1.9l-1.4-2l-2.7-1.4L570,160l0.1-2.1l0.8-0.9l-0.4-1.5l-1.4-0.8l-1.8-3.1l-1.4-2.1l0.2-0.8l-1.2-3
	l1.2-0.8l0.5,1l1.2,1.2l1.4,0.3l0.7-0.1l1.9-2l0.7-0.2l0.7,0.8l-0.4,1.3l1.5,1.3l0.5-0.1l1,1.9l1.9,0.5l1.6,1.3l2.9,0.4l2.9-0.8
	L585,151z"/>
<path class="st2" d="M569.1,154.7l1.4,0.8l0.4,1.5l-0.8,0.9L570,160l1.8,2.5l2.7,1.4l1.4,2l0,1.9l0.6,0l0.2,1.4l1.3,1.4l-1.2-0.1
	l-1.4-0.2l-1.1,2.6l-3.8-0.1l-6.4-5.2l-3.2-1.8l-2.5-0.7l-1.2-3.2l4-2.8l0.2-3.2l-0.5-1.9l1-0.7l0.7-1.7l0.8-0.4l2.3,0.3l0.8,0.7
	l0.9-0.5L569.1,154.7z"/>
<path class="st4" d="M458.3,75.9l-0.5,1.7l1.5,1.8l-2.2,2l-4.7,1.7l-1.4,0.5l-2-0.4l-4.2-0.9l1.7-1.1l-3.1-1.3l2.8-0.5l0.1-0.8
	l-3.1-0.7l1.3-1.7l2.3-0.3l2,1.8l2.5-1.4l1.8,0.8l2.6-1.4L458.3,75.9z"/>
<path class="st3" d="M551.3,163.7l-0.2,0.8l-0.8-0.4l-0.2,1.8l0.5,0.3l-0.5,0.4l0,0.7l0.9-0.4l0.2,1l-0.5,4.2l-1.8-4.5l0.5-0.9
	l-0.2-0.1l0.4-1.2l0.2-2l0.2-0.7l0.1,0l0.7,0l0.1-0.5l0.5,0l0.2,1.1L551.3,163.7L551.3,163.7z"/>
<path class="st3" d="M510.1,149.8l-0.6,2.1l0.3,0.8l-0.3,1.4l-1.6-1l-1-0.3l-2.8-1.3l0.2-1.3l2.3,0.2l2-0.3L510.1,149.8z
	 M497.6,142.1l1.2,1.9l-0.1,3.5l-0.9-0.2l-0.8,0.9l-0.8-0.7l-0.2-3.2l-0.5-1.5l1.1,0.1L497.6,142.1z M502.7,127.5l2.7,0.7l-0.1,1.3
	l0.5,1.1l-1.5-0.4l-1.4,0.9l0.2,1.3l-0.2,0.7l0.7,1.3l1.8,1.3l1.1,2.2l2.2,2.1l1.5,0l0.5,0.6l-0.5,0.5l1.8,0.9l1.5,0.8l1.7,1.3
	l0.2,0.5l-0.3,0.9l-1.2-1.2l-1.7-0.4l-0.7,1.7l1.5,1L513,148l-0.8,0.2l-0.9,2.3l-0.8,0.2l0-0.8l0.3-1.4l0.4-0.6l-0.9-1.5l-0.7-1.3
	l-0.8-0.3l-0.6-1.1l-1.3-0.5l-0.9-1l-1.4-0.2l-1.6-1.2l-1.8-1.7l-1.4-1.5l-0.7-2.6l-0.9-0.3l-1.6-0.9l-0.8,0.4l-1,1.2l-0.8,0.2
	l0.2-1.1l-1-0.3l-0.5-2l0.6-0.8l-0.6-1l0.1-0.7l0.8,0.6l0.9-0.1l1-0.9l0.3,0.4l0.9-0.1l0.4-1.1l1.4,0.3l0.8-0.4l0.1-1.1l1.1,0.4
	l0.2-0.5l1.8-0.5L502.7,127.5z"/>
<path class="st1" d="M317.6,199.7l1.4,0.3l1,0.7l0.2,0.8l-1.5,0l-0.7,0.4l-1.1-0.5l-1-1l0.3-0.6l0.9-0.2L317.6,199.7z"/>
<path class="st1" d="M551,164.6l0.2-0.8l2.4,1l3.5-2.9l1.2,3.2l-0.3,0.4l-3.8,1.4l2.3,2.6l-0.6,0.5l-0.2,0.9l-1.5,0.4l-0.4,1
	l-0.8,0.8l-2.3-0.4l-0.1-0.4l0.5-4.2l-0.2-1l0.2-0.8L551,164.6z"/>
<path class="st3" d="M742.8,149.9l0.8,0.9l-0.2,1.8l-1.2-0.8l-0.6,0.8l0.3,1.7l-1.6-0.7l-0.7-1.3l0.2-1.8l1.2,0.2l0.1-1.3
	L742.8,149.9z M749.6,140.2l0.7,2.3l1.2,1.4l0.2,2.1l-1.6,1.6l-3.2,0.5l-0.9,3.5l-1.8-1l-1.2-2.1l-2.9,0.9l-1.5,1.5l-2.2,0.3l3,1.9
	l1.1,4.9l-0.7,1.3l-1.4-1l-0.7-2.6l-1.6-0.7l-1.7-1.9l1.4-1l0.1-1.9l1.1-1.6l0.3-2.1l3.2-1.2l2.3,0.4l-1-5.2l2,1.2l1-3.1l0.3-1.2
	l-1.1-3.6l-2.4-3.1L741,129l1.5-0.7l3.6,3.8l1.5,2.3l0.2,3L749.6,140.2z M741.2,120l1.6,0.4l0.3-1.3l2.8,3l-1.9,1.1l0.5,2.9
	l-4.1-1.5l1.2,3.2l-1.9,0.3l-2.2-2.7l-0.7-2.2l1.7-0.4l-2.4-3.9l-1.2-2.2l4.2,2.6L741.2,120z"/>
<path class="st5" d="M613.7,136.3l-0.9,0.5l-1.9,2l-0.2,1.9l-0.7,0l-0.9-1.2l-2.4,0l-1.1-2.2l-0.9,0l-0.7-2.7l-2.8-1.8l-3.1,0.3
	l-2.1,0.5l-2.5-2.3l-1.8-0.9l-3.4-1.8l-0.4-0.2l-4.3,1.7l2.7,9.7l-0.9,0.2l-1.8-2l-1.5-0.7l-2,0.6l-0.6,0.9l-0.3-0.6l0.2-1.1
	l-0.6-0.9l-2.4-0.8l-1.4-2.3l-1.2-0.6l-0.3-0.9l1.9,0.2l-0.4-1.9l1.5-0.5l1.7,0.3l-0.4-2.6l-0.8-1.6l-1.8,0.2l-1.7-0.6l-1.8,1.2
	l-1.6,0.6l-1-0.4l-0.2-1.4l-1.6-1.7l-1.3,0.1l-2-1.7l0.5-2l-0.7-0.5l0.6-2.9l2.2,1.5l-0.3-1.9l2.8-3l2.7-0.2l4.4,1.7l2.4,1l1.5-1.2
	l2.8-0.2l2.7,1.3l0.2-0.8l2.5,0l0-1.3l-3.5-1.7l1.2-1.4l-0.6-0.7l1.4-0.8l-1.9-1.7l0.4-0.9l5.9-1.2l0.5-0.7l3.8-1.2l1-1.2l3.2,0.4
	l1.8,2.7l1.5-0.7l2.6,0.8l0.5,1.4l1.5-0.2l3-2.7l-0.2,0.9l3.1,1.9l7,6.4l0.3-1.4l3.1,1.4l2.1-0.8l1.2,0.4l1.6,1.5l1.5,0.4l1.3,1.1
	l2-0.5l1.7,1.6l-0.5,1.9l-1.3,0.3l1.2,2.7l-0.4,1.3l-3.9-0.6l0.8,4.8l-0.7,0.6l-3.1,1.3l3.5,4.5l-1,0.8l0.7,1.5l-1.3-0.3l-1.3-0.9
	l-2.8-0.1l-3.1,0.1l-0.6,0.3l-3-1l-0.8,0.6l0.3,1.6l-3.4-0.8l-1.1,0.4L613.7,136.3z"/>
<path class="st6" d="M567.8,252.3l1.3,2.2l-1.5,1.1l-0.5,1.1l-0.8,0.2l-0.3,1.9l-0.7,1.1l-0.4,1.8l-0.9,0.9l-3-2.6l-0.1-1.5
	l-7.7-5.4l-0.4-0.3l0-2.8l0.6-1.1l1-1.7l0.8-1.9l-1-3l-0.3-1.3l-1-1.8l1.3-1.6l1.4-1.7l1.1,0.4l0,1.5l0.7,0.9l1.5,0l2.7,2.2l0.7,0
	l0.5-0.1l0.5,0.3l1.4,0.2l0.6-1.1l1.9-1.1l0.9,0.9l1.5,0l-1.8,3L567.8,252.3z"/>
<path class="st5" d="M613.7,136.3l0-1.2l1.1-0.4l3.4,0.8l-0.3-1.6l0.8-0.6l3,1l0.6-0.3l3.1-0.1l2.8,0.1l1.3,0.9l1.3,0.3l0,0.6
	l-2.4,1.6l-0.3,1.1l-2.3,0.4l-0.1,1.7l-2.1-0.3l-1.1,0.6l-1.4,1.3l0.5,0.6l-0.3,0.6l-3.5,0.6l-2.6-0.8l-2,0.3l-0.3-1.5l2.2,0.4
	l0.4-0.9l1.5,0.2l1.8-2l-2.7-1.3l-1.1,0.7l-1.7-0.9l1-1.8L613.7,136.3z"/>
<path class="st6" d="M700,220.1l-1-1.4l-1.4-2.9l-1-3.4l1-2.4l2.6-0.6l2,0.3l1.9,1.1l0.6-2l2,1l0.8,1.9l0.2,3.4l-3.3,2.3l1.1,1.7
	l-2.2,0.3l-1.7,1.2L700,220.1z"/>
<path class="st3" d="M724.2,138.6l3.4,3.1l1.5,1.8l1.8,3.2l0.1,1.6l-1.4,0.7l-0.9,1.3l-1.6,0.4l-1-1.5l-0.7-2.1l-2.4-2.8l1.1-0.6
	l-2.6-2.3l0-0.3l0.9,0l0-1.3l1.2-0.3l0.7-0.3L724.2,138.6z"/>
<path class="st2" d="M519.4,139.7l0,0.5l-0.2,0l-0.2-0.9l-0.5-0.3l-0.5-0.7l0.3-0.6l0.4-0.2l0.2-0.9l0.3-0.1l0.3,0.4l0.4,0.2
	l0.3,0.4l0.3,0.1l0.4,0.5l0.3,0l-0.1,0.6l-0.2,0.3l0.1,0.2l-0.4,0.1L519.4,139.7z"/>
<path class="st1" d="M576.8,170.4l0.6,1.2l-0.1,0.6l0.9,2l-1.4,0.1l-0.7-1.3l-1.8-0.2l1.1-2.6L576.8,170.4z"/>
<path class="st6" d="M702.2,209.8l0.5-1.3l-0.3-2.4l-2.1-2.4l-0.7-2.8l-2-2.2l-1.6-0.1l-0.2,1l-1.2,0.1l-0.7-0.5l-1.9,1.7l-0.5-2.5
	l-0.1-3l-1.4-0.1l-0.5-1.7l-1.1-0.8l0.2-1l1.3-1.9l0.3,0.6l1.1,0l-1.1-3.2l1-0.5l1.7,2.1l1.5,2.5l2.5-0.1l1.4,2.4l-1.2,0.8l-0.4,1
	l2.8,1.6l2.4,3.3l1.8,2.4l1.9,1.9l0.9,2l0.1,2.8l-2-1l-0.6,2L702.2,209.8z"/>
<path class="st5" d="M551.3,162.2l-0.5,0l-0.1,0.5l-0.7,0l0.4-2.2l0.7-1.9l0-0.1l0.9,0.1l0.5,1l-0.9,1L551.3,162.2z"/>
<path class="st6" d="M463.5,238.6l-0.6,0l-2.2-1.2l-1.9-2l-1.8-1.4l-1.4-1.7l0.5-0.8l0.1-0.8l1-1.4l1-1.2l0.5-0.1l0.6-0.3l0.9,1.6
	l-0.1,1.1l0.4,0.6l0.6,0l0.4-1.1l0.6,0.1l-0.1,0.8l0.2,1.3l-0.5,1.2l0.6,0.7l0.7,0.2l0.9,1.1l0.1,1l-0.2,0.3L463.5,238.6z"/>
<path class="st2" d="M510.8,190.1l-1.4,1l-1.2-1.4l-3.3-1.1l-1-1.6l-1.7-1.2l-1,0.5l-0.8-1.5l-0.1-1.1l-1.3-1.9l0.8-1.1l-0.2-1.6
	l0.2-1.4l-0.2-1.2l0.3-2.1l-0.1-1.2l-0.7-2.3l1-0.6l0.1-1.1l-0.2-1.1l1.3-1l0.6-0.8l0.9-0.8l0-2l2.4,0.9l0.8-0.2l1.7,0.4l2.7,1.2
	l1.1,2.3l1.8,0.5l2.9,1.1l2.2,1.3l0.9-0.7l0.9-1.2l-0.6-2l0.5-1.3l1.4-1.2l1.3-0.4l2.7,0.5l0.8,1.2l0.7,0l0.7,0.4l2,0.3l0.6,0.9
	l-0.6,1.3l0.4,1.1l-0.4,1.6l0.8,2.1l0.7,9.3l0.6,9.7l0.3,5.2l-2.4,0l0,1.1l-8.5-5l-8.5-5L510.8,190.1z"/>
<path class="st5" d="M654.6,229.4l-0.2,2.9l-0.9,0.8l-1.8,0.6l-1.1-2.2l-0.6-3.9l0.6-4.4l1.6,1.5l1.1,1.9L654.6,229.4z"/>
<path class="st6" d="M538.8,326.2l0.6,0.8l-0.7,1.3l-0.4,0.9l-1.2,0.4l-0.4,0.8l-0.7,0.3l-1.3-2l1.2-1.7l1.2-1l1-0.5L538.8,326.2z"
	/>
<path class="st3" d="M519.2,107.4l-0.2-0.7l0.1-0.7l-0.8-0.4l-1.9-0.4l-0.7-2.2l1.8-0.8l2.9,0.1l1.6-0.3l0.3,0.5l0.9,0.2l1.8,1.2
	l0.4,1.2l-1.3,0.9l-0.2,1.5l-1.7,1l-1.7,0l-0.5-0.8L519.2,107.4z"/>
<path class="st2" d="M490.8,118.7l0.4,0.6l-0.1,1.1l-0.5,0.1l-0.4-0.2l0.1-1.5L490.8,118.7z"/>
<path class="st3" d="M515.7,103l-0.2-2l0.6-1.7l1.4-0.9l1.6,1.9l1.3-0.1l0-2l1.3-0.5l0.8,0.3l1.6,0.9l1.4,0l0.9,0.6l0.4,1.3l0.8,1.5
	l-1.6,1l-1,0.5l-1.8-1.2l-0.9-0.2L522,102l-1.6,0.3l-2.9-0.1L515.7,103z"/>
<path class="st5" d="M469.8,156.4l1.2,1.1l1.9-0.2l2,0.6l0.9,0l0.7,1.7l0.1,1.6l0.7,2.8l0.5,0.6l-0.4,1l-2.6,0.4l-0.9,1l-1.2,0.2
	l-0.1,1.9l-2.4,1l-0.8,1.3l-1.7,0.7l-2,0.4l-3.3,1.9l-0.1,3.1l-0.3,0h0l0,1.4l-1.3,0.1l-0.7,0.6l-0.9,0l-0.7-0.3l-1.7,0.3l-0.7,2
	l-0.6,0.2l-1.1,3.3l-3,2.8l-0.8,3.6l-0.9,1.2l-0.3,0.9l-4.7,0.2l0,0l0.1-1.2l0.8-0.7l0.7-1.4l-0.1-0.9l0.8-1.8l1.2-1.7l0.7-0.4
	l0.6-1.5l0.1-1.4l0.8-1.6l1.4-0.9l1.4-2.7l0,0l1.1-1l1.9-0.3l1.7-1.8l1-0.7l1.8-2.2l-0.4-3.3l0.8-2.2l0.3-1.4l1.3-1.8l2-1.2l1.5-1.1
	l1.4-2.7l0.7-1.6L469.8,156.4z"/>
<path class="st5" d="M528.3,123.3l0.4-0.4l1.2-0.3l1.5,0.8l0.8,0.1l0.9,0.7l0,0.9l0.7,0.4l0.4,1.1l0.7,0.7l-0.1,0.4l0.4,0.3
	l-0.5,0.2l-1.1-0.1l-0.2-0.4l-0.4,0.2l0.2,0.5l-0.4,0.8l-0.2,0.9l-0.4,0.3l-0.5-1.2l0-1.1l-0.2-1.2l-1.3-1.5l-0.7-1.1l-0.7-0.8
	L528.3,123.3z"/>
<path class="st6" d="M585.1,283.2l0.5,1.1l0.4,1.8l0.1,3.2l0.4,1.3l-0.3,1.3l-0.4,0.8l-0.6-1.6l-0.5,0.8l0.2,2l-0.3,1.1l-0.6,0.6
	l-0.3,2.2l-1.1,3.1l-1.4,3.6l-1.8,5l-1.2,3.7l-1.3,3.1l-1.7,0.6l-1.9,1.1l-1.1-0.7l-1.5-1l-0.4-1.4l0.1-2.3l-0.5-2.1l0-1.9l0.6-1.9
	l1-0.4l0.1-0.9l1.2-2l0.3-1.7l-0.4-1.3l-0.3-1.7l0-2.4l0.8-1.5l0.4-1.7l1.1-0.1l1.2-0.5l0.8-0.5l0.9,0l1.3-1.5l1.9-1.6l0.7-1.3
	l-0.2-1.1l0.9,0.3l1.3-1.8l0.1-1.6l0.8-1.2L585.1,283.2z"/>
<path class="st1" d="M281.5,178.1l-1.4,2.4l-0.9,2l-1.1,3.7l-0.5,1.3l0,1.5l0.3,1.4l-0.1,2.2l0.9,2.1l0.2,1.6l0.5,1.4l2.1,0.8
	l0.6,1.2l2-0.7l1.6-0.2l1.6-0.4l1.4-0.4l1.5-1.1l0.8-1.6l0.6-2.3l0.5-0.8l1.5-0.7l2.3-0.6l1.8,0.2l1.3-0.2l0.4,0.6l-0.3,1.3
	l-1.4,1.6l-0.8,1.7l0.3,0.5l-0.5,1.2l-0.9,2.1l-0.4-0.7l-0.4,0l-0.4,0l-1,1.6l-0.3-0.3l-0.3,0.1l-0.1,0.4l-1.9-0.1l-2-0.1l-0.3,1.6
	l-0.9,0l0.6,0.9l0.7,0.7l0.1,0.6l0.3,0.2l-0.2,0.9l-2.7-0.1l-1.4,2.2l0.2,0.5l-0.3,0.6l-0.2,0.8l-1.9-3l-0.9-0.9l-1.6-0.8l-1.2,0.2
	l-1.9,1l-1.1,0.2l-1.4-0.8l-1.5-0.6l-1.7-1.3l-1.5-0.4l-2.1-1.4l-1.5-1.4l-0.4-0.8l-1.1-0.2l-2-1l-0.6-1.3l-1.9-1.7l-0.6-1.8
	l-0.2-1.4l0.8-0.2l0-0.8l0.6-0.7l0.2-1l-0.4-1.3l0.1-1.1l-0.3-1.4l-1-2.9l-1.4-2.3l-0.5-1.8l-1.4-1.2l-0.2-0.7l0.8-1.7l-0.8-0.7
	l-0.7-1.4l0.2-2l-1-0.3l-0.6-1.5L254,168l0.2-0.9l-0.3-2.2l0.1-2.2l0.4-1.1l-1-1.2l-0.7,0.1l-0.8-0.8l-0.8,1.1l-0.2,1.4l-0.6,2.1
	l0.2,1.2l0.7,2l0.1,0.7l0.2,0.2l-0.1,1l0.4,0l-0.2,1.8l0.4,0.7l0.1,1l0.8,1.5l-0.2,2.6l0.2,1.3l0.2,1.3l-0.3,1.5l1,0.1l0.4,1.3
	l0.4,1.3l-0.2,0.5l-1.1,1l-0.4,0l-0.1-1.7l-0.9-1.7l-1.1-1.4l-0.8-0.8l0.7-2.1l0.2-1.5l-0.7-0.9l-1-1.3l-0.4,0.3l-0.3-0.8l-1-0.8
	l-0.6-1.7l0.2-0.2l0.8,0.2l1.1-1l0.5-1.3l-0.8-2.1l-0.9-0.9l-0.1-1.8l0-1.9l0-2.3l0.3-2.6l2.3-0.1l2.6-0.1l-0.4,0.5l2.4,1.6l3.7,2.3
	l3.9,0.2l1.6,0.1l0.4-1.1l3.4,0.2l0.3,1l0.7,0.9l0.7,1.3l0.1,1.5l0,1.5l0.7,0.9l1.4,0.9l2-2.1l1.6,0l1,1.2l0.4,1.9l0.2,1.7l0.7,1.6
	l-0.1,2l0.2,1.3l1.3,0.9l1.3,0.7L281.5,178.1z"/>
<path class="st1" d="M519.1,140.2l0.2,0l0-0.5l1.1-0.4l0.4-0.1l0.6-0.2l0.9-0.1l1,0.8l0.3,1.7l-0.4,0.1l-0.3,0.5l-1,0l-0.7,0.6
	l-1.2,0.2l-0.9-0.6l-0.4-1.1L519.1,140.2z"/>
<path class="st6" d="M454.3,211.7l0.7-0.5l0.4-1.5l0.7-0.1l1.5,0.7l1.2-0.5l0.8,0.2l0.3-0.6l8.5,0l0.5-1.8l-0.4-0.3l-0.9-11.3
	l-0.8-11.3l3.2,0l6.9,5.7l7,5.7l0.5,1.2l1.3,0.7l1,0.4l0,1.7l2.3-0.3l0.1,6l-1.1,1.8l-0.2,1.6l-1.9,0.4l-2.9,0.2l-0.8,0.9l-1.4,0.1
	l-1.4,0l-0.5-0.5l-1.2,0.4l-2,1.1l-0.4,0.8l-1.6,1.2l-0.3,0.7l-0.9,0.5l-1-0.4l-0.6,0.6l-0.3,1.8l-1.7,2.2l0,0.9l-0.6,1.1l0.1,1.5
	l-0.9,0.4l-0.5,0.3l-0.3-1.1l-0.6,0.3l-0.4-0.1l-0.4,0.8l-1.6,0l-0.6-0.4l-0.3,0.2l-0.6-0.8l0.1-0.8l-0.3-0.3l-0.5,0.3l0.1-0.9
	l0.4-0.7l-0.9-1.1l-0.2-0.7l-0.5-0.6l-0.4-0.1l-0.5,0.4l-0.7,0.3l-0.6,0.6l-0.9-0.2l-0.6-0.7l-0.4-0.1l-0.6,0.3l-0.3,0l-0.1-1
	l0.1-0.8l-0.2-1l-0.8-0.7l-0.4-1.5L454.3,211.7z"/>
<path class="st2" d="M508.6,156L508.6,156l-0.3,0.1l-0.2-0.1l0-0.3l0.2,0.1L508.6,156L508.6,156z M508.1,155.6l-0.1,0l-0.1-0.1l0,0
	l0.2,0L508.1,155.6L508.1,155.6L508.1,155.6z"/>
<path class="st6" d="M687.2,193.7l-1,1.2l-1.4,0.2l-0.3,3l-0.8,0.5l1.5,2.4l1.7,2l1.2,1.8l-0.4,2.4l-0.6,0.5l0.7,1.4l1.7,2.2
	l0.5,1.6l0.1,1.3l1.2,2.5l-0.8,2.6l-0.7,2.9l-0.4-2.1l0.4-2.1l-0.9-1.6l-0.2-3l-1.1-1.4l-1.2-3.3l-0.9-3.5l-1.3-2.3l-1.1,1.4l-2.1,2
	l-1.2-0.2l-1.4-0.6l0.1-3.4l-0.9-2.6l-2.2-3.1l0.1-1L674,195l-1.9-2.2l-0.6-2.2l0.8,0.4l-0.4-2l0.9-0.7l-0.5-1.2l0.2-1l-0.6-2.8
	l1.7,0.6l0.3-2.3l-0.2-1.3l0.5-2.4l-0.5-1.6l2.1-2l1.6,0.4l-0.7-1.7l0.6-0.5l-0.5-1l1.1-0.3l1.2,1.6l1.1,0.6l0.7,2.1l0.6,2.3
	l-1.3,2.4l0.6,3.3l2-0.6l1.1,2.5l1.4,0.5l0,2.3l1.8,1l1,0.5l1.3-0.9l0.3,1.1l-1.3,1.9l-0.2,1L687.2,193.7z"/>
<path class="st1" d="M517.5,138.5l-0.2-0.5l-0.7,1.3l0.2,0.8l-0.4-0.2l-0.6-0.8l-0.9-0.5l0.2-0.4l0.1-1.4l0.6-0.6l0.3-0.2l0.5,0.4
	l0.3,0.4l0.6,0.3l0.8,0.5l-0.1,0.2l-0.3,0.6L517.5,138.5z"/>
<path class="st5" d="M636.2,115.8l1.6-0.6l2.1-2.5l1.9-1.4l1.9,0.7l1.8-0.1l1.8,1.1l1.8,0l2.8,0.5l0.6-2l-1.6-1.5l0.1-2.9l2.5,0.9
	l1.7,0.2l2.4,0.5l1.5,2l3.1,0.9l1.3-0.6l1.9-0.5l1.9,0.2l2.5,1.1l1.9,1.3l1.5-0.2l2.4,0.2l1.1-0.8l1.9-0.7l1.2-2.1l1.2,0.2l1.5,0.8
	l1.8-0.4l0.6,2.1l0.6,2.8l1.2,1.1l0.7-0.4l1.9,0.2l0.6-1.1l1.9,0.7l2.8,1.7l0.4,1l-1.5-0.2l-2.3,0.6l-0.7,0.9l-0.1,1.9l-2,1.3
	l-0.9,1.6l-2.1-0.4l-1.1-0.2l0.1,1.8l1.2,1l0.8,0.9l-0.7,1l-0.5,1.6l-1.6,1.1l-2.6,0.3l-2.4,1.2l-1.4,1.6l-1.2-0.8l-2.2,0.2
	l-3.5-1.4l-2-0.3l-2.2,0.6l-4-0.3l-2,0.2l-1.8-1.5l-2-2.4l-1.3-0.2l-3-1.5l-2.6-0.2l-2.3-0.3l-1.2-1.1l-0.8-3.2l-2.3-2.1l-3-0.8
	l-2.2-1.3L636.2,115.8z"/>
<path class="st6" d="M553.4,280.4l1.6-0.2l2.5,0.8l0.6-0.3l1.5-0.1l0.8-0.8l1.3,0.1l2.4-1l1.8-1.5l0.3,1.2l-0.2,2.6l0.1,2.3
	l-0.1,4.1l0.3,1.3l-0.7,1.9l-0.9,1.8l-1.5,1.6l-2,1l-2.5,1.3l-2.6,2.8l-0.8,0.5l-1.6,1.9l-0.9,0.6l-0.3,1.9l0.8,2l0.3,1.6l0,0.8
	l0.4-0.1l-0.3,2.6l-0.4,1.2l0.4,0.5l-0.4,1.1l-0.9,0.9l-1.8,0.9l-2.6,1.4l-1,1l0.1,1.1l0.5,0.2l-0.3,1.4l-1.5,0l-0.1-1.2l-0.2-1.2
	l-0.1-0.9l0.6-2.9l-0.4-1.9l-0.7-3.7l2.4-3l0.7-1.9l0.3-0.2l0.3-1.5l-0.3-0.8l0.2-2l0.5-1.8l0.2-3.3l-1-0.9l-1-0.2l-0.4-0.7
	l-0.9-0.6l-1.8,0l-0.1-1l-0.1-1.9l6.5-2.1l1.2,1.3l0.6-0.2l0.8,0.7l0.1,1.1l-0.5,1.2l0.1,1.9l1.3,1.6l0.8-1.8l0.9-0.5l0-3.4
	l-0.8-1.9l-0.7-0.9l-0.7,0l-0.4-3.4L553.4,280.4z"/>
<path class="st6" d="M454.3,211.7l-1.4-1.8l-1.2-1.9l-1.4-0.7l-1-0.8l-1.2,0l-1,0.6l-1-0.2l-0.7,0.8l-0.1-1.4l0.6-1.3l0.3-2.5
	l-0.2-2.6l-0.2-1.3l0.3-1.3l-0.5-1.2l-1.1-1.1l0.5-0.9l8.1,0.1l-0.3-3.8l0.5-1.3l1.9-0.2l0.1-6.7l6.7,0.2l0.1-4l7.6,6.4l-3.2,0
	l0.8,11.3l0.9,11.3l0.4,0.3l-0.5,1.8l-8.5,0l-0.3,0.6l-0.8-0.2l-1.2,0.5l-1.5-0.7l-0.7,0.1l-0.4,1.5L454.3,211.7z"/>
<path class="st6" d="M553.4,280.4l-0.7,2l0.4,3.4l0.7,0l0.7,0.9l0.8,1.9l0,3.4l-0.9,0.5l-0.8,1.8l-1.3-1.6l-0.1-1.9l0.5-1.2
	l-0.1-1.1l-0.8-0.7l-0.6,0.2l-1.2-1.3l-1.1-0.7l0.8-2.4l0.7-0.9l-0.3-2.2l0.5-2.1l0.4-0.7l-0.5-2.2l-1-1.2l2.1,0.5l0.4,0.7l0.7,1.2
	L553.4,280.4z"/>
<path class="st1" d="M696,232.6l0.3,1.4l1.4-0.4l0.6-1.2l0.5,0.3l1.4,1.7l1,1.9l0.2,1.9l-0.2,1.3l0.2,1l0.2,1.7l0.8,0.8l0.9,2.5l0,1
	l-1.5,0.2l-2.1-2.1l-2.6-2.2l-0.3-1.4l-1.3-1.9l-0.4-2.3l-0.9-1.5l0.1-2l-0.5-1.2l0.3-0.5L696,232.6z M733.8,237.1l-1.5,1l-1.9-0.5
	l-2.5,0l-0.6,3.3l-0.8,1l-1,4l-1.7,0.6l-2-0.8l-1,0.3l-1.2,1.4l-1.4-0.2l-1.4,0.6l-1.5-1.6l-0.4-1.9l1.6,1l1.6-0.5l0.4-2.4l0.9-0.5
	l2.5-0.6l1.4-2.3l1-1.8l1.1,1.5l0.4-1l1,0.1l0-1.8l0-1.4l1.5-2l0.9-2.3l0.9,0l1.2,1.4l0.2,1.2l1.5,0.8l1.8,0.8l-0.1,1.1l-1.4,0.2
	L733.8,237.1z"/>
<path class="st5" d="M513.2,324.9l-1.4-2l-0.7-1.9l-0.3-2.6l-0.4-1.9l-0.5-4l0.1-3.1l-0.2-1.4l-0.8-1.1l-1-2.2l-1-3.1l-0.4-1.6
	l-1.6-2.6l-0.1-2l1-0.5l1.3-0.4l1.4,0.1l1.2,1.2l0.3-0.2l8.5-0.1l1.4,1.3l5.1,0.4l3.9-1l1.7-0.6l1.4,0.2l0.8,0.6l0,0.2l-1.2,0.6
	l-0.6,0l-1.4,1l-0.8-1.1l-3.3,0.9l-1.6,0.1l-0.5,9.3l-2.1,0.1L521,315l-0.5,9.7l-1.9,1.3l-1.1,0.2l-1.2-0.5l-0.9-0.2l-0.3-1.1
	l-0.8-0.7L513.2,324.9z"/>
<path class="st2" d="M821.6,317.1l0.8,2.1l0.4,1.5l-1.1,0.7l-0.7-0.9l-0.8-1.5l-0.6-1.8l-0.4-2.3l0.1-1.1l0.8,0.1l0.7,1.2l0.5,1.1
	L821.6,317.1z"/>
<path class="st0" d="M484.6,218.7l0-1.8l-2.4-0.6l-0.1-1.3l-1.2-1.7l-0.3-1.2l0.2-1.3l1.4-0.1l0.8-0.9l2.9-0.2l1.9-0.4l0.2-1.6
	l1.1-1.8l-0.1-6l2.9-1.2l6-5.2l7-5l3.3,1.1l1.2,1.4l1.4-1l0.6,4.1l0.8,0.7l0.1,0.8l0.9,0.9l-0.4,1.1l-0.6,5.3l0,3.4l-2.6,2.5
	l-0.8,3.5l0.9,1l0,1.7l1.4,0.1l-0.2,1.2l-0.6,0.2l-0.1,0.8l-0.4,0.1l-1.5-2.9l-0.5-0.1l-1.6,1.5l-1.7-0.8l-1.1-0.2l-0.6,0.4
	l-1.2-0.1l-1.2,1.1l-1.1,0.1l-2.6-1.3l-1,0.6l-1.1,0l-0.8-1l-2.1-1l-2.3,0.3l-0.5,0.6l-0.3,1.5l-0.6,1.1l-0.1,2.3L486,218l-0.8,0
	L484.6,218.7z"/>
<path class="st6" d="M498.2,237.5l-2.2,0.9l-0.8-0.1l-0.8,0.6l-1.7-0.1l-1.1-1.6l-0.7-1.9l-1.5-1.7l-1.6,0l-1.9,0l0.1-4.2l-0.1-1.7
	l0.4-1.7l0.7-0.8l1-1.6l-0.2-0.7l0.4-1.1l-0.5-1.6l0.1-0.9l0.1-2.3l0.6-1.1l0.3-1.5l0.5-0.6l2.3-0.3l2.1,1l0.8,1l1.1,0l1-0.6
	l2.6,1.3l1.1-0.1l1.2-1.1l1.2,0.1l0.6-0.4l1.1,0.2l1.7,0.8l1.6-1.5l0.5,0.1l1.5,2.9l0.4-0.1l0.9,1l-0.2,0.5l-0.1,0.9l-1.8,2
	l-0.5,1.7l-0.3,1.4l-0.4,0.6l-0.4,1.8l-1.1,1.1l-0.3,1.3l-0.5,1.1l-0.2,1.1l-1.5,0.9l-1.2-1.1l-0.8,0l-1.3,1.5l-0.6,0l-1,2.5
	L498.2,237.5z"/>
<path class="st5" d="M297.9,219.5l-0.6-0.9l-0.9-1.1l-0.4-0.9l-0.8-0.9l-0.9-1.3l0.3-0.4l0.3,0.4l0.2-0.2l0.7-0.1l0.3-0.6l0.3,0
	l0.1-1.4l0.5-0.1l0.4,0l0.5-0.7l0.6,0.6l0.3-0.3l0.4-0.3l0.8-0.7l0.1-0.6l0.2,0l0.4-0.6l0.2-0.1l0.3,0.4l0.4,0.1l0.5-0.3l0.5,0
	l0.8-0.3l0.3-0.4l0.7,0.1l-0.2,0.3l-0.2,0.6l0.1,1l-0.6,0.9l-0.4,1.1l-0.2,1.2l0,0.7L303,216l-0.4,0.3l-0.3,1.2l0.1,0.7l-0.5,0.7
	l0,0.7l0.3,0.5l-0.6,0.6l-0.6-0.2l-0.3-0.6l-0.7-0.2l-0.5,0.3l-1.3-0.7L297.9,219.5z"/>
<path class="st4" d="M490.6,109.9l1.4,0.1l0.4,0.9l-0.3,2.4l-0.4,1l-1.1,0l0.4,2.7l-1-0.6l-1.2-1.1l-1.6,0.5l-1.3-0.2l0.9-0.7
	l1.4-3.9L490.6,109.9z"/>
<path class="st4" d="M519,63.2l4.9,1.8l-1.6,0.7l2,1.6l-2.1,1.1l-1.1,0.3l0.1-1.8l-2.1-1l-2,0.9l-0.3,1.9l-1.1,1.2l-1.7-0.6
	l-1.8,0.2l-1.9-1.4l-0.7,0.7l-0.9,0.1l0.1,1.7l-2.8-0.4l-0.2,1.5l-1.4,0l-0.7,1.9l-1.1,2.9l-1.9,3.7l0.7,0.9l-0.4,1l-1.5,0l-0.8,2.5
	l0.4,3.5l1.1,1.3l-0.3,3.1l-1.2,1.8l-0.6,1.5l-1.2-1.6l-3,3.1l-2.2,0.6l-2.3-1.3l-0.7-2.8l-0.7-6l1.4-1.7l4-2.2l2.9-2.7l2.4-3.7
	l3-5.1l2.2-2l3.4-3.3l2.9-1.2l2.3,0.1l1.7-2.2l2.6,0.1L519,63.2z M510,45.9l-2.5,1.1l-2.3-0.6l0.7-0.7l-0.9-0.8l2.4-0.6l0.7,1
	L510,45.9z M501.2,41.2l4.3,1.9l-2.8,1.1l-0.3,1.9l-1,0.5l-0.2,2.2l-1.5,0.1l-2.9-1.6l1-0.9l-1.9-0.7l-2.6-2.2l-1.2-2l3-1l0.8,0.9
	l1.7-0.1l0.3-0.9l1.7-0.1L501.2,41.2z M509.1,39.3l2.5,0.9l-1.3,1.4l-3.3,0.4l-3.5-0.4l-0.4-0.7l-1.7,0l-1.5-1.2l3.4-0.8l1.8,0.6
	l1-0.8L509.1,39.3z"/>
<path class="st5" d="M658.8,173.4l0.2,1.2l0.7,1.7l0,1.1l-1.7,0.1l-2.6-0.5l-1.6-0.2l-1.5-1.3l-2.9-0.2l-3-1.4l-2.2-1.3l-2.2-0.9
	l0.1-2.6l0.9-1.3l0.7-0.7l1.8,0.8l2.5,1.7l1.2,0.3l1,1.3l1.7,0.5l1.9,1.1l2.4,0.5L658.8,173.4z"/>
<path class="st4" d="M796.9,378.5l-0.7,1.2l2.2-0.9l-0.6,1.3l-1.1,1.2l-1.8,1.2l-3,1.9l-1.9,1l-0.7,1.5l-1.2-0.2l-2.3,0.8l-2.2,1.7
	l-3.6,2.6l-2.4,1l-1.5,0.6l-1.3-0.3l-0.1-1.1l-1.5-0.5l0.7-1.1l2.8-1.9l4.6-2.4l1.5-0.3l2.1-0.8l2.7-1.2l2.3-1.3l2.6-2l1.3-0.6
	l1.7-1.5l2.3-1.1L796.9,378.5z M811.1,365.2l-1.2,3.3l1.7-2l0.1,0.9l-1.6,2.3l0.6,1.2l0.9,0.4l1.9-0.9l0.6,0.5l-2.6,2.5l-2,1.6
	l-1.2-0.3l-1.2,0.8l-0.9,1.3l-0.7,0.5l-2,1.4l-2.6,1.8l-2.3,0.9l0.4-0.8l-0.3-0.5l3-2.2l0.9-1.7l-0.8-1.5l0.9-1l2.1-0.8l2.2-2.2
	l1.5-1.9l0.9-2.1l0.5-0.5l0.1-1.4l0.6-2.8l0.8-2.2l0.8-0.1l-0.3,1.8l0.8,1L811.1,365.2z"/>
<path class="st2" d="M602.5,193.5l-0.5,1.8l-1-0.1l-0.4,0.6l-0.2,1.4l0.5,1.8l-0.2,0.3l-1,0l-1.2,1l-0.1,1.3l-0.4,0.6l-1.3,0
	l-0.8,0.7l0.1,1.1l-0.9,0.8l-1.2-0.2l-1.3,0.9l-1,0.2l-0.9-1.9l-2.1-4.4l6-2.8l0.7-5.4l-1.2-1.9l-0.1-1.1l0.5-1.1l-0.1-1.1l0.9-0.5
	l-0.4-0.4l-0.1-1.7l1,0l1.2,1.8l1.3,0.9l1.6,0.3l1.3,0.5l1.2,1.5l0.7,0.9l0.8,0.3l0.1,0.6l-0.5,1.6l-0.2,0.8L602.5,193.5z
	 M595.6,180.9l-0.2,0.5l-0.5-0.9l0.5-0.9l0.3,0.2L595.6,180.9z"/>
<path class="st6" d="M626.1,149.6l1.8,1.2l1.2,2l3.5,0.9l-1.2,2.3l-2.1,0.5l-3.1-0.5l-0.6,1.2l1.3,2.3l1.2,1.8l1.9,1.3l-1.3,1.6
	l0.5,1.9l-1.3,2.8l-0.6,2.8l-1.5,2.9l-2.4-0.1l-1.7,2.9l1.6,1.2l0.6,2.1l1.4,1.3l0.8,2.3l-4.5,0.1l-1.1,1.8l-1.6-0.6l-0.9-1.9
	l-1.9-2l-3.7,0.6l-3.3,0.1l-2.8,0.4l0.2-3.1l2.7-1.5l-0.4-1.2l-1.1-0.4l-0.5-2.4l-2.2-1.1l-1.1-1.6l-1.3-1.4l3.6,1.3l1.9-0.5
	l1.3,0.3l0.3-0.6l1.4,0.2l2.4-1.2l-0.4-2.3l0.8-1.6l1.5,0l0-0.8l1.4-0.4l0.8,0.2l0.6-0.8l-0.5-1.6l0.4-1.6l1.1-0.7l-1.2-1.7l1.9,0
	l0.3-1l-0.4-1l0.7-1.2l-0.6-1.3l-0.8-1.1l0.8-1.2l1.9-0.7l2.1-0.4l0.8-0.5L626.1,149.6z"/>
<path class="st1" d="M313.7,230.3l-0.7-0.8l-0.4-1.5l0.6-0.7l-0.5-0.2l-0.3-0.9l-1-0.8l-0.9,0.2l-0.5,0.9l-0.9,0.7l-0.5,0.1
	l-0.2,0.6l0.9,1.5l-0.6,0.3l-0.3,0.4l-1,0.1l-0.3-1.6l-0.3,0.5l-0.7-0.2l-0.4-1.1l-0.9-0.2l-0.5-0.3l-0.9,0l-0.1,0.6l-0.2-0.4
	l0.2-0.5l0.2-0.6l0-0.5l0.3-0.3l-0.4-0.4l0.1-1.1l0.8-0.2l0.7,1l-0.1,0.6l0.8,0.1l0.2-0.2l0.5,0.7l1.1-0.2l1-0.7l1.3-0.5l0.8-0.8
	l1.2,0.2l-0.1,0.3l1.2,0.1l0.9,0.5l0.6,0.8l0.7,0.8l-0.3,0.4l0.4,1.6l-0.5,0.8l-0.7-0.2L313.7,230.3z"/>
<path class="st1" d="M333.9,297.5l-0.4,1.4l-1,0.7l-2.3-1.5l-0.3-1.1l-4.5-2.6l-4.1-2.9l-1.8-1.6l-1.1-2.2l0.3-0.8l-2.2-3.5l-2.6-5
	l-2.4-5.4l-1-1.2l-0.8-2l-1.8-1.8l-1.6-1.1l0.6-1.2l-1.2-2.6l0.6-1.9l1.7-1.7l0.3,1.1l-0.6,0.7l0.1,1l0.9-0.2l0.9,0.3l1,1.4l1.2-1.1
	l0.3-1.8l1.2-2.4l2.6-1.1l2.3-2.9l0.6-1.8l-0.3-2.1l0.6-0.3l1.4,1.3l0.7,1.3l1,0.7l1.3,2.8l1.6,0.3l1.2-0.7l0.8,0.5l1.3-0.2l1.7,1.3
	l-1.3,2.8l0.6,0.1l1.1,1.4l-1.9-0.1l-0.3,0.4l-1.7,0.5l-2.4,1.9l-0.1,1.3l-0.5,0.9l0.3,1.5l-1.3,0.8l0.1,1.1l-0.5,0.5l1,2.4l1.3,1.6
	l-0.4,1.2l1.4,0.1l0.9,1.4l1.9,0l1.6-1.6l0.2,4.1l1,0.3l1.2-0.5l2.2,4.3l-0.4,0.9l0.1,1.9l0.2,2.3l-0.7,1.4l0.5,1l-0.4,0.9l1.2,2.2
	L333.9,297.5z"/>
<path class="st1" d="M749.3,225.4l0.4,1.9l0.3,1.6l-0.5,2.7l-1.1-3l-0.9,1.5l0.9,2.1l-0.5,1.4l-2.6-1.7l-0.8-2.1l0.5-1.4l-1.5-1.3
	l-0.5,1.2l-1-0.1l-1.4,1.6l-0.4-0.8l0.6-2.5l1.3-0.8l1-1.1l0.9,1.3l1.5-0.8l0.2-1.3l1.5-0.1l-0.4-2.2l1.9,1.3l0.4,1.5L749.3,225.4z
	 M743.5,220.1l-0.6,1l-0.4,1.8l-0.6,0.9l-1.6-2l0.3-0.8l0.4-0.8l0-1.8l1.1-0.2l-0.1,2l1.2-2.8L743.5,220.1z M732.3,223.2l-2.5,2.8
	l0.8-2l1.3-1.8l1-2l0.7-2.9l0.7,2.3l-1.2,1.6L732.3,223.2z M738.4,215.5l1.4,0.9l1.3,0l0.1,1.2l-0.8,1.3l-1.2,0.9l-0.3-1.3l-0.1-1.5
	L738.4,215.5z M745.9,214.5l1.1,3.2l-1.7-0.7l0.2,1l0.8,1.8l-0.9,0.7l-0.4-2l-0.7-0.1l-0.6-1.7l1.3,0.2l-0.2-1.1l-1.7-2.2l2,0
	L745.9,214.5z M737.1,212.2l-0.1,2.5l-1.1-1.4l-1.5-2.2l1.8,0L737.1,212.2z M733.4,196.5l1.5,0.8l0.5-0.8l0.4,0.7l0,1.2l1.2,2l0,2.4
	l-1,1l0.1,2.3l0.9,2.3l1.2,0.3l0.9-0.4l2.9,1.5l0.1,1.6l0.8,0.7l0,1.3l-1.9-1.4l-1-1.5l-0.4,1.1l-1.7-1.7l-1.8,0.5l-1.2-0.6
	l-0.1-1.2l0.5-0.8l-0.8-0.6l-0.1,1l-1.4-1.6l-0.6-1.2l-0.6-2.7l1,0.9l-0.8-4.5l0.1-2.6L733.4,196.5z"/>
<path class="st2" d="M812.7,271.3l-0.6,0.3l-0.8-1.2l-0.7-2l-0.2-2.4l0.3-0.3l0.1,0.9l0.6,0.7l0.8,2l0.9,1.1L812.7,271.3z
	 M804.8,267l-1.1,0.2l-0.4,0.9l-1.2,0.7l-1.2,0.7l-1.1,0l-1.7-0.9l-1.1-0.9l0.3-0.9l1.9,0.5l1.2-0.2l0.5-1.5l0.3-0.1l0.1,1.6
	l1.2-0.2l0.7-1l1.3-1.1l-0.1-1.8l1.3,0l0.4,0.5l-0.2,1.7L804.8,267z M794,272.6l1.6,2.1l0.9,3.3l1.2-0.1l-0.3,1.4l1.6,0.6l-0.7,0.6
	l2,1.4l-0.4,0.9l-1.4,0.2l-0.4-0.8l-1.8-0.4l-2.1-0.5l-1.3-2l-0.9-1.7l-0.7-2.7l-2.6-1.4l-1.9,0.8l-1.4,1l0,2.2l-1.8,1l-1.1-0.5
	l-2.2-0.2l1.1-9.8l0.6-9.8l3.6,2.1l3.9,1.8l1.4,1.6l1.1,1.6l0.2,1.8l3.4,2l0.3,1.6l-2,0.3L794,272.6z M807.5,264l-0.7,0.8l-0.3-1.8
	l-0.4-1.2l-0.9-1l-1.1-1.3l-1.5-0.9l0.6-0.7l1.1,0.9l0.7,0.7l0.9,0.8l0.8,1.3l0.7,1L807.5,264z"/>
<path class="st3" d="M506.6,116.1l-0.9-1.7l0.1-0.9l-0.6-1.4l-0.7-0.9l0.4-0.7l-0.5-1.3l1.1-0.8l2.6-1.2l2.1-0.9l1.8,0.4l0.2,0.6
	l1.7,0l2.2,0.3l3.2-0.1l0.9,0.3l0.5,0.8l0.2,1.2l0.6,1l0.1,1l-1,0.6l0.7,1.2l0.2,1.2l1.2,2.3l-0.1,0.7l-0.8,0.3l-1.3,2.2l0.6,1.2
	l-0.4-0.1l-1.8-1l-1.2,0.4l-0.9-0.3l-1,0.6l-1-0.9l-0.7,0.4l-0.1-0.2l-1-1.3l-1.3-0.1l-0.3-0.8l-1.3-0.3l-0.2,0.7l-1-0.5l0-0.7
	l-1.4-0.2L506.6,116.1z"/>
<path class="st2" d="M341.2,200.2l1,0.3l0.3,0.5l-0.6,0.7l-1.6,0l-1.2,0.1l0-1.2l0.3-0.4L341.2,200.2z"/>
<path class="st2" d="M721.9,127.7l0.6,0.5l-0.8-0.1l-0.2,1l0.1,1l1.3,2l-0.5,0.7l0,0.5l-0.2,0.9l-0.9,0.6l-0.3,0.8l0.6,1.2l0,0.3
	l1,0.4l1.7,1.1l0.1,0.7l-0.7,0.3l-1.2,0.3l0,1.3l-0.9,0l0,0.3l-1.2-0.4l0.1,0.5l-0.4,0.3l-0.3-0.5l-0.6-0.2l-0.7-0.4l-0.2-1.3
	l0.2-0.4l-0.4-0.5l-0.4-1.5l-0.4-0.4l-1.2-0.2l-1.3-0.7l0.4-1.9l1.1-1.7l0-2.1l1.4,0.8l1.6-0.1l-1.2-1.4l2-1.5l-0.3-1.6L721.9,127.7
	z"/>
<path class="st3" d="M462.8,140.3l0.7-0.7l0.8-0.4l0.4,1.3l1.1,0l0.3-0.3l1.1,0.1l0.5,1.3l-0.9,0.7l-0.1,2l-0.3,0.4l-0.1,1.2
	l-0.8,0.2l0.7,1.6l-0.6,1.7l0.6,0.8l-0.3,0.7l-0.8,1l0.1,0.9l-0.8,0.7l-1-0.4l-1,0.3l0.4-2l-0.1-1.6l-0.9-0.2l-0.4-1l0.2-1.7
	l0.8-0.9l0.2-1.1l0.5-1.6l0-1.1l-0.3-0.9L462.8,140.3z"/>
<path class="st1" d="M350,309.7l0.4-3.2l-0.1-1.4l0.7-2.4l3.5-0.8l1.9,0l2.1,1.3l0.1,0.8l0.8,1.5l0.3,3.6l2.3,0.5l0.8-0.5l1.5,0.7
	l0.5,0.8l0.5,2.4l0.4,1l0.8,0.1l0.7-0.4l0.8,0.5l0.2,1.5l-0.1,1.6l-0.2,1.5l0,2.4l-1.5,2.1l-1.5,0.5l-2.3-0.3l-2.2-0.7l1.4-4.1
	l-0.5-1.2l-2.3-1l-2.8-1.9l-1.7-0.4L350,309.7z"/>
<path class="st2" d="M584.6,184.2l-0.4-1.9l0.4-1.4l0.5-0.3l0.7,0.8l0.3,1.6l-0.2,1.6l-0.5,0.2L584.6,184.2z"/>
<path class="st1" d="M521.4,124.3l0.7-0.6l1.2,0.3l1.2,0l0.9,0.6l0.6-0.4l1.3-0.3l0.4-0.6l0.8,0l0.6,0.2l0.7,0.8l0.7,1.1l1.3,1.5
	l0.2,1.2l0,1.1l0.5,1.2l0.9,0.5l0.8-0.4l0.9,0.4l0.1,0.7l-0.8,0.6l-0.6-0.2l-0.1,3.2l-1.1-0.3l-1.5-0.9l-2.1,0.6l-0.8,0.7l-2.8-0.1
	l-1.5-0.4L523,135l-0.7-1.1l-0.4-0.5l0.4-0.4l-0.5-0.3l-0.5,0.6l-1.2-0.7l-0.3-1.1l-1.2-0.6l-0.3-0.8l-1.1-1l1.4-0.5l0.9-1.8
	l0.7-1.8L521.4,124.3z"/>
<path class="st1" d="M725.9,102.3l5.8,4.5l-3.1-0.5l2.3,4l3.9,2.5l1.5,1.9l-2.6-1.5l0.6,2.3l-2.1-2.2l-2-2.7l-2.6-2.9l-1.4-2.1
	l-3.1-3.6l-3.3-2.5l-3.2-3.6l0.2-1.4l-1.8-1.1l0.3-0.5l2.1,1.7l2.9,2.4l2.4,2.6L725.9,102.3z M519.2,107.4l-3.2,0.1l-2.2-0.3
	l0.2-1.2l2.2-0.9l1.9,0.4l0.8,0.4l-0.1,0.7L519.2,107.4z M241.6,55.9l-0.2,0.7l2.4-1.6l2.4,0.9l-1.2,2.5l-2.7,0.7l-2.2-0.2l-3.5,2.2
	l-1.2,0.4l-0.9-0.3l0.4-1l-0.4-1l1.3-1l-0.5-0.6l-1.7,0l0.7-0.9l1.6-0.7l-2.2,0.2l-1.3,1.1l-2.2,0.8l15.1-8.4l-0.4,2.1l-1,2.7
	L241.6,55.9z M707.4,46l-0.9,0.3l-1.4-0.6l-0.4-1.1L707.4,46z M254.2,46.1l-1.5-0.1l2.7-1.3l0.3-0.1l0.8,0.2l0.3,0.9l-0.6,0.3
	L254.2,46.1z M660.9,47.4l-1.6,0.2l-2.6,0.1l-0.4-0.1l-0.3-1l1.1-0.4l2.8,0.6L660.9,47.4z M662,42.4l0.2,1l-2,0l-3.3-0.6l-0.9-0.7
	l2.5,0.1L662,42.4z M654.4,42.1l1.7,1.7l-4,0.4l-1,0.7l-4.3-1.2l-1.7-1.6l0.8-0.6l2.9-0.2L654.4,42.1z M559.7,63l-0.7,0.3l-4.6-0.1
	l-0.9-1.1l-2.8-0.6l-0.9-1.4l1.1-0.6l-0.7-1.4l1.5-2.3l-1.4-0.3l1.9-2.4l-1-1.1l2-1.5l3.1-1.8l3.7-0.7l1.4-1l2.1-0.4l1.5,0.9
	l-0.3,0.8l-3.5,1.5l-3,1.4l-2.5,2.6l-0.5,2.6l-0.7,2.6l1.4,2.1L559.7,63z M608.5,43.3l1.7,1.1l0.4-0.7l3.3-0.3l3.9,0.9l2,0.8
	l1.2,1.2l-0.4,0.8l-1.5,1.6l-0.1,0.8l1.8,0.2l2.4,0.4l0.5-0.6l2.4,1.5l-0.2-0.7l1.4-0.6l4.2,0l1.6,1.1l5.3-0.2l-2.2-1.8l3,0.1
	l1.8-0.2l3.5,1l2.5,1.4l0.6,1.1l3.8,1.6l3.1,0.7l-2.1-2.6l3.3,0.8l1.1-0.9l3.2,0.4l0-0.8l2.3,0.1l-3.8-2l0.1-1.2l12.1,0l3,1.2
	l5.5,1.2l3.8-1.1l2.7,0l2.4,0.7l2.5,1.6l2.4,0.4l0.7-0.7l1.8-0.4l2.7,0l1.6-0.6l5.1,1.5l0.1-0.9l-3.2-1.2l-1.2-1l4.3-0.1l1.9-0.6
	l4.7,0.4l3.1,0.6l15.1,8.4l0,0l0.2,1.3l-1.7,0.2l2.9,1l3.7,1.7l1.5,0.5l1.6,0.9l0.7,0.7l-2.9,0l-0.5,2.5l-0.6,0.5l0.6,2l0.4,1.8
	l1.1,1.2l-4.1-1.3l-0.6,2.6l-1.8-0.8l0.2,1.3l-2.1,0l1.7,1.7l1.5,2.7l1.3,1l2.2,0.3l4.3,3.7l-1.1,0.3l1.9,2.2l1.9,1l-0.9,1.8l2.8,3
	l-1.4,1l2.4,2.7l0.4,2.8l-2.4-1.7l-4.6-3.7l-7.1-5.6l-3.4-3.6l-0.6-1.7l-1.3-1.2l1.4-0.9l-1.5-3.6l-1.1-2.9l-0.3-2.4l-3.7-3.5
	l-1.2,0.5l2,2.1l0.4,3.3l-5-2.8l-2.2,1.4l1.9,4.7l2.9,1.3l-2.2,1.2l-1.8,0.6l-2-1.8l-2.5,0l-0.2,1.5l-4.7,0.3l-3.7,1.5l0.6,5.6
	l0.3,6.9l2.7,0l2.3,1.5l2,0.4l-0.3-1.4l1.8-0.1l4.9,2.6l2.1,2.2l1.2,2.8l2.7,3.2l2.9,4.4l0.7,4.2l0.9,1.9l0.1,3.5l0,3.4l0,1.8
	l-1.2,1.9l-1.1,0.2l-2-1.2l-1,2.3l0.3,0.9l-0.6-0.5l-0.9-1.4l0.8-0.2l-1.9-3.3l-2.1-2.3l0.8-1.1l2.4,0.2l-0.8-2.8l-1.7-3l-0.1-1.1
	l-1-2.5l-2.1,1.1l-0.6,1.2l-2.5,0.3l-2.6-2.4l-3.4-1.7l-3.5-0.5l-2.6-2.5l-1.8-1.6l-1.5-1.1l-3.1-2.5l-2.2-0.8l-3-0.5l-2,0.3
	l-1.6,0.7l-0.3,1.5l1.4,0.5l1.1,1.5l-0.3,0.9l0.6,3l0.9,1.2l-1.1,1.9l-2.7-0.8l-1.8,0.4l-1.5-0.8l-1.2-0.2l-1.2,2.1l-1.9,0.7
	l-1.1,0.8l-2.4-0.2l-1.5,0.2l-1.9-1.3l-2.5-1.1l-1.9-0.2l-1.9,0.5l-1.3,0.6l-3.1-0.9l-1.5-2l-2.4-0.5l-1.7-0.2l-2.5-0.9l-0.1,2.9
	l1.6,1.5l-0.6,2l-2.8-0.5l-1.8,0l-1.8-1.1l-1.8,0.1l-1.9-0.7l-1.9,1.4l-2.1,2.5l-1.6,0.6l-0.6,0.3l-1.7-1.6l-2,0.5l-1.3-1.1
	l-1.5-0.4l-1.6-1.5l-1.2-0.4l-2.1,0.8l-3.1-1.4l-0.3,1.4l-7-6.4l-3.1-1.9l0.2-0.9l-3,2.7l-1.5,0.2l-0.5-1.4l-2.6-0.8l-1.5,0.7
	l-1.8-2.7l-3.2-0.4l-1,1.2l-3.8,1.2l-0.5,0.7l-5.9,1.2l-0.4,0.9l1.9,1.7l-1.4,0.8l0.6,0.7l-1.2,1.4l3.5,1.7l0,1.3l-2.5,0l-0.2,0.8
	l-2.7-1.3l-2.8,0.2l-1.5,1.2l-2.4-1l-4.4-1.7l-2.7,0.2l-2.8,3l0.3,1.9l-2.2-1.5l-0.6,2.9l0.7,0.5l-0.5,2l2,1.7l1.3-0.1l1.6,1.7
	l0.2,1.4l1,0.4l-0.4,1.6l-1.7,0.5l-1.2,2.8l2.3,2.4l0.2,1.8l2.8,3l-0.9,1.1l-0.2,0.7l-0.9-0.2l-1.6-1.6l-0.5-0.1l-1.3-0.6l-0.8-1.1
	L564,137l-1.1,0.4l-0.4-0.5l-2.8-1.2l-2.8-0.4l-1.7-0.4l-0.2,0.3l-2.8-2.2l-2.3-0.9l-1.9-1.5l1.3-0.5l1.1-2.2l-1.2-1l2.5-1.1
	l-0.2-0.6l-1.5,0.5l-0.2-1.2l0.8-0.8l1.7-0.2l0.1-0.9l-0.7-1.4l0.4-1.4l-0.2-0.8l-2.8-0.8l-1,0.1l-1.4-1.2l-1.3,0.5l-2.4-0.9
	l-0.1-0.5l-0.9-1.1l-1.4-0.1l-0.3-0.8l0.3-0.5l-1.4-1.5l-1.8,0.3l-0.6-0.1l-0.3,0.6l-0.7-0.1l-0.7-1.7l-0.6-0.9l0.3-0.3l1.4,0.1
	l0.6-0.6l-0.6-0.7l-1.3-0.4l0-0.5l-0.8-0.5l-1.4-1.7l0.2-0.7l-0.4-1.2l-1.8-0.6l-0.8,0.3l-0.4-0.6l-1.9-0.6l-0.8-1.5l-0.4-1.3
	l-0.9-0.6l0.6-0.8l-1-2.4l0.9-1.5l-0.3-0.5l1.5-1.5l-1.9-1.2l2.7-3.4l1.1-1.5l0.3-1.3l-2.7-1.7l0.2-1.7l-1.8-1.9l0.5-2.3l-2.5-2.9
	l0.9-2l-2.7-1.7l-0.2-1.8l1.1-0.3l2.1-1.1l1.2-0.9l2.8,1.5l4.1,0.5l6.4,2.8l1.5,1.2l0.7,1.7l-1.2,1.4l-2.2,0.8l-7.2-1.8l-1,0.4
	l3,1.8l0.4,1.2l0.8,2.7l2.2,0.7l1.4,0.6l-0.2-1.3l-1.2-1.1l0.7-1l4.2,1.5l1.1-0.7l-1.6-1.9l2.6-2.7L544,75l1.7,0.9l0.2-1.8l-1.8-1.5
	l0.1-1.6l-1.7-1.6l4.3,0.7l1.4,1.4l-1.7,0.4l0.6,1.4l1.5,0.8l2-0.7l-0.3-1.7l2.5-1.4l4-2.4l1.1,0.1l-0.7,1.6l1.9,0.2l0.6-0.9
	l2.6-0.2l1.5-1.2l2.4,1.5l0.7-1.8l-2.3-1.4l0.3-0.9l4.5,0.6l2.4,0.7l6.8,2.6l0.1-1.4l-2.2-1.3l-0.4-0.5l-1.8-0.2l-0.3-1.2l-1.9-2
	l-0.5-0.8l1-2.4l-0.7-2.4l0.6-0.6l3.9,0.5l1.3,1.4l0.2,2.1l1.4,0.8l1.6,1.7l2,3.5l2.5,1.5l0.5,1.7l-0.5,3.8l1.9,0.3l0-1l1.2-0.8
	l-0.4-1.3l0.4-1.3l-1.8-1.4l-0.5-1.7l-1.6-0.1l-1.3-1.4l-0.7-2.6l-3.1-2l1.1-1.9l-1.6-1.8l0.6-0.1l1.7,1.4l1.2,2.5l1.7,0.4l-1.9-1.8
	l1.4-1.1l2.6-0.3l3.5,1.3l-2.8-2l-2.2-2.7l1.8-0.7l3.1-0.1l2.4-0.5l-2.1-1.2l0-1.7l1.3-0.2l1.2-1.4l2.8-0.6l-0.3-0.7l2.8-0.5
	l1.5,0.5l1.3-1.5l2.2-0.1l-0.8-1.1l0-1.1l1.5-1.2l2.8,0.6l-0.9,0.7L608.5,43.3z M602.8,40.4l-5.2,1.4l-1.5-3.2l0.6-0.3l1,0.1
	l4.3,1.1L602.8,40.4z M537.9,38.2l-1.3,0.4l-0.9,0.2l0.1,0.4l-1.1,0.5l-1.5-0.6l0.2-0.8l-2.5,0l1.9-0.5l1.7-0.1l0.6,0.7l0.3-0.6
	l0.8-0.5l2,0.5L537.9,38.2z M595.6,39.5l-2.1,0.5l-3.8-0.5l-2.8-0.8l-2.7-1.7l-2-0.4l1-1.8l1.7-0.7l3.4,1.1l5.1,2.1L595.6,39.5z"/>
<path class="st6" d="M545.2,253l0.8,1.5l-0.1,1.5l-0.6,0.3l-1.1-0.2l-0.7,1.5l-1.3-0.2l0.2-1.4l0.3-0.2l0.1-1.6l0.6-0.7l0.5,0.3
	L545.2,253z"/>
<path class="st2" d="M462,179l0-1.4l0.3,0l0,0.2l-0.1,0.5l-0.1,4l-6.7-0.2l-0.1,6.7l-1.9,0.2l-0.5,1.3l0.3,3.8l-8.1-0.1l-0.5,0.9
	l0.1-1.1l0,0l4.7-0.2l0.3-0.9l0.9-1.2l0.8-3.6l3-2.8l1.1-3.3l0.6-0.2l0.7-2l1.7-0.3l0.7,0.3l0.9,0l0.7-0.6L462,179z"/>
<path class="st1" d="M570.1,206.7l-0.4-1.1l-0.7-0.8l-0.2-1.1l-1.2-0.9l-1.3-2.2l-0.8-2.1l-1.6-1.8l-1-0.4l-1.6-2.5l-0.4-1.8
	l-0.1-1.6l-1.5-2.9l-1.1-1l-1.2-0.5l-0.8-1.5l0.1-0.6l-0.7-1.4l-0.7-0.6l-1-1.9l-1.5-2.1l-1.2-1.8l-1,0l0.2-1.5l0-0.9l0.1-1.1
	l2.3,0.4l0.8-0.8l0.4-1l1.5-0.4l0.2-0.9l0.6-0.5l-2.3-2.6l3.8-1.4l0.3-0.4l2.5,0.7l3.2,1.8l6.4,5.2l3.8,0.1l1.8,0.2l0.7,1.3l1.4-0.1
	l1.1,2.3l1.1,0.6l0.5,0.9l1.5,1.1l0.3,1.1l-0.1,0.9l0.4,0.9l0.7,0.7l0.4,0.9l0.4,0.6l0.7,0.5l0.5-0.2l0.5,1l0.2,0.6l1.1,2.7l6.4,1.2
	l0.3-0.6l1.2,1.9l-0.7,5.4l-6,2.8l-5.9,1.1l-1.8,1.2l-1.3,2.8l-0.9,0.5l-0.6-0.9l-0.8,0.1l-2.1-0.2l-0.4-0.3l-2.4,0.1l-0.6,0.2
	l-0.9-0.7l-0.5,1.3l0.3,1.1L570.1,206.7z"/>
<path class="st2" d="M552.4,225l-0.3-0.1l0-1.3l-0.3-0.9l-1.1-1l-0.3-1.9l0.2-1.9l-1-0.2l-0.1,0.6l-1.3,0.1l0.5,0.8l0.2,1.6
	l-1.1,1.5l-1,1.9l-1.1,0.3l-1.8-1.5l-0.8,0.5l-0.2,0.8l-1.1,0.5l-0.1,0.5l-2.1,0l-0.3-0.5l-1.5-0.1l-0.8,0.5l-0.6-0.2l-1.1-1.5
	l-0.4-0.7l-1.5,0.4l-0.6,1.2l-0.5,2.3l-0.7,0.5l-0.6,0.3l-0.2-0.1l-0.8-0.8l-0.2-0.8l0.3-1.1l0-1.1l-1.3-1.6l-0.3-1.1l0-0.6
	l-0.8-0.8l-0.1-1.5l-0.5-1l-0.7,0.2l0.2-1l0.5-1.1l-0.3-1.1l0.7-0.8l-0.5-0.6l0.5-1.6l0.9-1.9l1.8,0.2l-0.6-10.4l0-1.1l2.4,0
	l-0.3-5.2l8.3-0.1l8.1-0.1l8.2-0.1l0.9,2.6L557,195l0.5,2.7l1,3.1l0.8,0.6l1.2,1l-1,1.5l-1.5,0.4l-0.6,0.8l-0.1,1.8l-0.7,3.9
	l0.3,1.1l-0.2,2.3l-0.7,2.6l-1.2,1.3l-0.8,2l-0.2,1.1l-1,0.7l-0.5,2.8L552.4,225z"/>
<path class="st2" d="M552.4,225l0.1,2.1l-0.3,0.8L551,228l-0.7,1.5l1.3,0.2l1.1,1.3l0.4,1.1l1,0.6l1.3,2.9l-1.4,1.7l-1.3,1.6
	l-1.3,1.2l-1.5,0l-1.7,0.6l-1.4-0.6l-0.9,0.7l-1.9-1.7l-0.5-1.1l-1.2,0.6l-1-0.2l-0.6,0.4l-1-0.3l-1.3-2.2l-0.4-0.8l-1.6-1l-0.6-1.6
	l-0.9-1.1l-1.5-1.4l0-0.9l-1.2-1.1l-1.5-1l0.6-0.3l0.7-0.5l0.5-2.3l0.6-1.2l1.5-0.4l0.4,0.7l1.1,1.5l0.6,0.2l0.8-0.5l1.5,0.1
	l0.3,0.5l2.1,0l0.1-0.5l1.1-0.5l0.2-0.8l0.8-0.5l1.8,1.5l1.1-0.3l1-1.9l1.1-1.5l-0.2-1.6l-0.5-0.8l1.3-0.1l0.1-0.6l1,0.2l-0.2,1.9
	l0.3,1.9l1.1,1l0.3,0.9l0,1.3L552.4,225z"/>
<path class="st5" d="M444.6,214.3l-0.8-2l-1-0.9l0.9-0.5l1.1-1.8l0.5-1.3l0.7-0.8l1,0.2l1-0.6l1.2,0l1,0.8l1.4,0.7l1.2,1.9l1.4,1.8
	l0.1,1.6l0.4,1.5l0.8,0.7l0.2,1l-0.1,0.8l-0.3,0.1l-1.2-0.2l-0.2,0.3l-0.5,0.1L452,217l-1,0l-3.9-0.1l-0.6,0.3l-0.7-0.1l-1.1,0.4
	l-0.3-2l1.9,0.1l0.5-0.4l0.4,0l0.8-0.6l0.9,0.6l0.9,0l0.9-0.6l-0.4-0.8l-0.7,0.4l-0.7,0l-0.8-0.6l-0.7,0l-0.5,0.6L444.6,214.3z"/>
<path class="st2" d="M824.1,283.3l0.4,1.1l-1.5-0.1l-0.4-2l1.1,0.8L824.1,283.3z M821.8,281.3l-0.8,0l-1.2-0.4l-0.4-0.5l0.3-1.2
	l1.3,0.5l0.6,0.7L821.8,281.3z M823.7,280.5l-0.4,0.6l-1.1-2.8l-0.1-1.9l0.7,0l0.4,2.6L823.7,280.5z M820.5,276.3l0,0.6l-1.5-1.4
	l-1-1.2l-0.7-1.1l0.4-0.3l0.9,0.8l1.5,1.5L820.5,276.3z M816,273.1l-0.4,0.2l-0.8-0.7l-0.7-1.3l0.2-0.5l1.1,1.4L816,273.1z"/>
<path class="st6" d="M455.6,232.2L455,232l-1.5-1.1l-1.1-1.4l-0.4-1l-0.2-1.9l1.2-1.2l0.3-0.7l0.4-0.6l0.6-0.1l0.5-0.5l1.7,0
	l0.6,0.9l0.5,1.1l-0.1,0.8l0.3,0.7l0,1l0.6-0.1l-1,1.2l-1,1.4l-0.1,0.8L455.6,232.2z"/>
<path class="st5" d="M294.2,213.2l-0.3,0.6l-1.2-0.1l-0.7-0.3l-0.8-0.6l-1.2-0.2l-0.5-0.6l0.1-0.4l0.8-0.7l0.4-0.3l-0.1-0.3l0.5-0.2
	l0.6,0.2l0.4,0.6l0.6,0.5l0,0.4l1-0.3l0.4,0.2l0.2,0.3L294.2,213.2z"/>
<path class="st2" d="M584.2,224.9l-0.9,1.6l-1.4,2.2l-1.8,0l-7.1-3.1l-0.9-0.9l-0.8-1.3l-0.9-1.5l0.4-0.9l0.7-1.4l0.7,0.5l0.5,1.1
	l1,1.1l1.1,0l2-0.7l2.3-0.3l1.8-0.8l1-0.2l0.7-0.5l1.2-0.1l0,0l0.1,1.1l0.1,2.7L584.2,224.9z"/>
<path class="st2" d="M585.6,219.2l1.1-0.3l0.9-0.9l0.8,0l0.1,0.7l-0.1,1.5l0.1,1.4l-0.4,1l-0.5,2.9l-0.9,3l-1.2,3.4l-1.7,3.9l-1.8,3
	l-2.5,3.6l-2.1,2.2l-3.2,2.6l-2,2l-2.3,3.2l-0.5,1.4l-0.5,0.6l-1.3-2.2l-0.1-9.6l1.8-3l0.6-0.8l1.4-0.1l1.9-1.9l2.8-0.1l5.8-8
	l1.4-2.2l0.9-1.6l-0.1-1.4l-0.1-2.7l-0.1-1.1l0,0l0.7-0.1L585.6,219.2z"/>
<path class="st1" d="M518.7,130.8l1.2,0.6l0.3,1.1l1.2,0.7l0.5-0.6l0.5,0.3l-0.4,0.4l0.4,0.5l-0.4,0.6l0.3,1l1,1.1l-0.6,0.8
	l-0.2,0.8l0.2,0.3l-0.3,0.4l-0.9,0.1l-0.6,0.2l-0.1-0.2l0.2-0.3l0.1-0.6l-0.3,0l-0.4-0.5l-0.3-0.1l-0.3-0.4l-0.4-0.2l-0.3-0.4
	l-0.3,0.1l-0.2,0.9l-0.4,0.2l0.1-0.2l-0.8-0.5l-0.6-0.3l-0.3-0.4l-0.5-0.4l0.4-0.1l0.2-1.2l-1-1l0.4-1.2l-0.7,0l0.6-1l-0.7-0.7
	l-0.5-1l1.3-0.7l1.2,0.1l1.1,1L518.7,130.8z"/>
<path class="st2" d="M357.9,234l2.5,0.5l0.2-0.5l1.7-0.2l2.3,0.7l-1.2,2.3l0.1,1.8l0.8,1.6l-0.4,1.1l-0.2,1.2l-0.6,1.1l-1.2-0.6
	l-1,0.3l-0.9-0.2l-0.2,0.8l0.4,0.5l-0.2,0.5l-1.2-0.2l-1.3-2.3l-0.3-1.5l-0.7,0l-0.9-1.9l0.4-1.4l-0.1-0.6l1.3-0.7L357.9,234z"/>
<path class="st3" d="M513.9,120.2l0.1,0.2l0.7-0.4l1,0.9l1-0.6l0.9,0.3l1.2-0.4l1.8,1l-0.4,0.7l-0.2,1.1l-0.4,0.3l-2-0.8l-0.6,0.2
	l-0.4,0.6l-0.8,0.3l-0.2-0.2l-0.8,0.4l-0.7,0.1l-0.1,0.5l-1.5,0.3l-0.7-0.3l-1-0.7l-0.3-0.9l0.1-0.3l0.2-0.6l0.8,0l0.6-0.3l0-0.2
	l0.3-0.1l0.1-0.6l0.4-0.1l0.2-0.5L513.9,120.2z"/>
<path class="st3" d="M505.4,128.1l1.5,0.2l0.9-0.6l1.6-0.1l0.3-0.4l0.3,0l0.4,0.9l-1.4,0.7l-0.1,1.1l-0.6,0.3l0.1,0.7l-0.7,0
	l-0.7-0.4l-0.3,0.4l-1.3-0.1l0.4-0.2l-0.5-1.1L505.4,128.1z"/>
<path class="st4" d="M513.5,77.6l-1.1,1.9l0.5,1.6l-2.1,2.1l-2.7,2.3l-0.7,3.7l1.4,1.8l1.7,1.4l-1.1,3l-1.6,0.6l-0.1,4.4l-0.7,2.5
	l-2.1-0.2l-0.8,2.1l-2,0.1l-0.7-2.5l-1.6-3l-1.6-3.7l0.6-1.5l1.2-1.8l0.3-3.1l-1.1-1.3l-0.4-3.5l0.8-2.5l1.5,0l0.4-1l-0.7-0.9
	l1.9-3.7l1.1-2.9l0.7-1.9l1.4,0l0.2-1.5l2.8,0.4l-0.1-1.7l0.9-0.1l2.2,1.2l2.6,1.7l0.8,4l0.7,1L513.5,77.6z M508.5,99.6l0.3,0.2
	l-1,3l-0.2-1L508.5,99.6z M512.1,98l-0.8,0.8l0.1,0.5l0.3,0l0,0.2l-0.4,0.2l0.1,0.3l-0.4,0.2l-0.2,0.5l-0.3,0.1l0.1-0.6l-0.2-0.4
	l0.1-0.3l-0.1-0.4l0.8-1l0.6,0l0.1-0.1L512.1,98L512.1,98z M512.3,82.6l0.3,0l-0.1,0.3l-0.2,0.4l-0.2,0l0.1-0.3l-0.1-0.2L512.3,82.6
	z"/>
<path class="st6" d="M545.6,320.4l-0.5,1.2l-1.2,0.3l-1.1-1.4l0.1-0.9l0.6-1l0.3-0.8l0.6-0.2l1,0.5l0.2,1.2L545.6,320.4z"/>
<path class="st2" d="M557.1,161.9l-3.5,2.9l-2.4-1l0,0l0.2-0.4l-0.2-1.1l0.3-1.5l0.9-1l-0.5-1l-0.9-0.1l-0.5-2l0.3-1.1l0.4-0.6
	l0.4-0.6l-0.1-1.5l0.7,0.5l2-0.8l1.1,0.5l1.6,0l2.1-1l1.1,0l2.1-0.5l-0.7,1.7l-1,0.7l0.5,1.9l-0.2,3.2L557.1,161.9z"/>
<path class="st0" d="M510.7,216.3l0.2-1.2l-1.4-0.1l0-1.7l-0.9-1l0.8-3.5l2.6-2.5l0-3.4l0.6-5.3l0.4-1.1l-0.9-0.9l-0.1-0.8l-0.8-0.7
	l-0.6-4.1l2-1.4l8.5,5l8.5,5l0.6,10.4l-1.8-0.2l-0.9,1.9l-0.5,1.6l0.5,0.6l-0.7,0.8l0.3,1.1l-0.5,1.1l-0.2,1l0.7-0.2l0.5,1l0.1,1.5
	l0.8,0.8l0,0.6l-1.3,0.5l-1.1,1.1l-1.5,2.9l-2,1.2l-2.1-0.2l-0.6,0.2l0.2,0.9l-1.1,0.9l-0.9,1l-2.7,1l-0.5-0.6l-0.4-0.1l-0.4,0.7
	l-1.8,0.2l0.3-0.7l-0.7-1.8l-0.3-1.1l-0.9-0.4l-1.3-1.5l0.4-1.2l1,0.3l0.6-0.2l1.2,0l-1.2-2.4l0-1.7l-0.2-1.7L510.7,216.3z"/>
<path class="st6" d="M484,233.9l-1.7,0.6l-0.5-0.9l-0.6-1.7l-0.2-1.3l0.5-2.4l-0.5-1l-0.2-2.1l0-1.9l-0.9-1.4l0.2-0.8l1.9,0.1
	l-0.3,1.4l0.7,0.8l0.7,0.9l0.1,1.3l0.4,0.5l-0.1,6L484,233.9z"/>
<path class="st1" d="M697.5,215.8l-2.1-1.2l-1.8,0.1l0-2.2l-1.9,0.1l0.3,3.1l-0.6,4.1l-0.4,2.5l0.4,2l1.4,0.1l1.1,2.5l0.6,2.4
	l1.3,1.6l1.3,0.3l1.2,1.4l-0.6,1.2l-1.4,0.4l-0.3-1.4l-1.8-1.2l-0.3,0.5l-0.9-1.1l-0.5-1.4l-1.3-1.6l-1.1-1.3l-0.2,1.6l-0.5-1.5
	l0.1-1.7l0.4-2.7l0.7-2.9l0.8-2.6l-1.2-2.5l-0.1-1.3l-0.5-1.6l-1.7-2.2l-0.7-1.4l0.6-0.5l0.4-2.4l-1.2-1.8l-1.7-2l-1.5-2.4l0.8-0.5
	l0.3-3l1.4-0.2l1-1.2l1-0.7l1.1,0.8l0.5,1.7l1.4,0.1l0.1,3l0.5,2.5l1.9-1.7l0.7,0.5l1.2-0.1l0.2-1l1.6,0.1l2,2.2l0.7,2.8l2.1,2.4
	l0.3,2.4l-0.5,1.3l-2-0.3l-2.6,0.6l-1,2.4L697.5,215.8z"/>
<path class="st5" d="M615.6,141.6l-0.4,0.9l-2.2-0.4l0.3,1.5l2-0.3l2.6,0.8l3.5-0.6l1.3,2.4l0.5-0.3l1.4,0.6l0.3,1l0.8,1.5l-2,0.1
	l-1.4-0.1l-0.8,1.3l-0.8,0.3l-0.5,0.6l-1-0.8l-0.5-2.3l-0.6-0.1l0-0.8l-1.2-0.6l-0.5,1l0.1,1.1l-0.2,0.4l-1.2,0l-0.3,1.2l-0.8-0.5
	l-1.2,0.9l-0.7-0.3l0.3-2.7l-1-2l-1.6-0.6l0.1-1.2l1.6,0.1l0.5-1.5l0.1-1.7l2.3-0.7l0,1.3l0.5,0.7L615.6,141.6z"/>
<path class="st2" d="M600.1,154.6l-0.7-2.2l-1.5,0l-2.8-2.3l-1.6-0.2l-2.5-1.3l-1.4-0.2l-0.7,0.5l-1.3,0l-1,1.6L585,151l-0.8-1.9
	l-0.3-2.8l-1.7-0.8l0.1-1.8l-1.3-0.1l-0.1-2.2l1.9,0.6l1.5-0.9l-1.8-1.5l-0.9-1.5l-1.3,0.7l0.3,1.9l-1-1.7l0.6-0.9l2-0.6l1.5,0.7
	l1.8,2l0.9-0.2l2.1-0.1l-0.7-1.3l1.4-1l1.2-1.6l2.9,1.3l0.8,2.1l0.9,0.5l2-0.2l0.8,0.5l1.7,2.7l2.7,1.7l1.6,1.2l2.4,1.2l2.9,1
	l0.4,1.6l-0.6-0.1l-1.1-0.7l0,1l-1.5,0.6l0.2,2.1l-0.9,0.9l-1.4,0.5l-0.1,1.2l-1.4,0.4L600.1,154.6z"/>
<path class="st2" d="M746.2,275.9l0.3-0.7l1.9-0.6l1.5-0.1l0.7-0.4l0.8,0.4l-0.9,0.8l-2.4,1.2l-1.9,0.8l0.1-0.9L746.2,275.9z"/>
<path class="st2" d="M348.9,221.1l1.2-0.3l0.4,0.1l-0.2,2l-1.8,0.3l-0.4-0.2l0.7-0.7L348.9,221.1z"/>
<path class="st1" d="M499.1,170.6l-1-4.7l-1.3-1.1l0-0.6l-1.7-1.6l-0.2-2l1.2-1.5l0.4-2.2l-0.4-2.5l0.4-1.3l2.1-1.1l1.4,0.3l0,1.3
	l1.6-1l0.2,0.5l-0.9,1.3l0,1.2l0.7,0.6l-0.2,2.3l-1.3,1.3l0.4,1.4l1,0l0.5,1.2l0.8,0.4l0,2l-0.9,0.8l-0.6,0.8l-1.3,1l0.2,1.1
	l-0.1,1.1L499.1,170.6z"/>
<path class="st1" d="M550.3,141l2.9,1l2.1-0.5l1.7,0.2l2-1.4l2-0.2l2.1,1.2l0.5,0.9l0.1,1.3l1.5,0.6l0.9,0.7l-1.2,0.8l1.2,3
	l-0.2,0.8l1.4,2.1l-0.9,0.5l-0.8-0.7l-2.3-0.3l-0.8,0.4l-2.1,0.5l-1.1,0l-2.1,1l-1.6,0l-1.1-0.5l-2,0.8l-0.7-0.5l0.1,1.5l-0.4,0.6
	l-0.4,0.6l-0.9-1.2l0.6-1l-1.2,0.2l-1.7-0.6l-1.1,1.5l-2.9,0.4l-1.8-1.4l-2.1-0.1l-0.3,1.1l-1.3,0.3l-2.1-1.4l-2.1,0.1l-1.4-2.6
	l-1.6-1.4l0.7-2.1l-1.4-1.2l1.8-2.5l2.9-0.2l0.5-2l3.7,0.3l2-1.7l2.1-0.8l3.1-0.1L550.3,141z M532,143l-1.4,1.4l-0.7-1.2l0-0.5
	l0.4-0.3l0.4-1.7l-1-0.7l1.8-0.9l1.7,0.3l0.4,1l1.8,0.8L535,142l-2.2,0.2L532,143z"/>
<path class="st2" d="M729.5,179.7l0.2,4.6l-0.2,2.4l-1.8-2.3l-0.9-2.1l0.3-2.9l0.9-2.2l1.2,0.8L729.5,179.7z"/>
<path class="st6" d="M552.6,252.5l0.4,0.3l7.7,5.4l0.1,1.5l3,2.6l-1.1,3.3l0.1,1.5l1.3,1l0,0.7l-0.6,1.6l0.1,0.8l-0.2,1.3l0.7,1.7
	l0.8,2.6l0.8,0.6l-1.8,1.5l-2.4,1l-1.3-0.1l-0.8,0.8l-1.5,0.1l-0.6,0.3l-2.5-0.8l-1.6,0.2l-0.5-3.6l-0.7-1.2l-0.4-0.7l-2.1-0.5
	l-1.2-0.8l-1.3-0.4l-0.8-0.4l-0.9-0.7l-1.1-3.3l-1.2-1.5l-0.4-1.5l0.2-1.4l-0.3-2.4l0.9-0.1l0.8-1l0.8-1.4l0.5-0.6l0-0.9l-0.5-0.6
	l-0.1-1l0.6-0.3l0.1-1.5l-0.8-1.5l0.8-0.3l2.3,0L552.6,252.5z"/>
<path class="st6" d="M548.3,252.7l-2.3,0l-0.8,0.3l-1.3,0.8l-0.5-0.3l0-2l0.5-1l0.1-2.1l0.4-1.2l0.8-1.4l0.8-0.7l0.7-0.9l-0.9-0.4
	l0.1-3.1l0.9-0.7l1.4,0.6l1.7-0.6l1.5,0l1.3-1.2l1,1.8l0.3,1.3l1,3l-0.8,1.9l-1,1.7l-0.6,1.1l0,2.8L548.3,252.7z"/>
<path class="st1" d="M535.8,112.9l0.7,0.1l0.3-0.6l0.6,0.1l1.8-0.3l1.4,1.5l-0.3,0.5l0.3,0.8l1.4,0.1l0.9,1.1l0.1,0.5l2.4,0.9
	l1.3-0.5l1.4,1.2l1-0.1l2.8,0.8l0.2,0.8l-0.4,1.4l0.7,1.4l-0.1,0.9l-1.7,0.2l-0.8,0.8l0.2,1.2l-1.4,0.2l-1,0.9l-1.7,0.2l-1.4,1
	l0.4,1.6l1,0.6l1.9-0.2l-0.2,0.9l-1.9,0.5l-2.3,1.6l-1.1-0.5l0.2-1.2l-2.2-0.7l0.2-0.5l1.6-0.9l-0.6-0.6l-3-0.6l-0.3-1l-1.6,0.4
	l-0.5,1.5l-1.1,2l-0.9-0.4l-0.8,0.4l-0.9-0.5l0.4-0.3l0.2-0.9l0.4-0.8l-0.2-0.5l0.4-0.2l0.2,0.4l1.1,0.1l0.5-0.2l-0.4-0.3l0.1-0.4
	l-0.7-0.7l-0.4-1.1l-0.7-0.4l0-0.9l-0.9-0.7l-0.8-0.1l-1.5-0.8l-1.2,0.3l-0.4,0.4l-0.8,0l-0.4,0.6l-1.3,0.3l-0.6,0.4l-0.9-0.6
	l-1.2,0l-1.2-0.3l-0.7,0.6l-0.2-0.7l-1.1-0.7l0.2-1.1l0.4-0.7l0.4,0.1l-0.6-1.2l1.3-2.2l0.8-0.3l0.1-0.7l-1.2-2.3l0.8-0.1l0.9-0.7
	l1.4-0.1l1.8,0.2l2.1,0.6l1.4,0l0.7,0.4l0.6-0.5l0.6,0.6l1.6-0.2l0.7,0.2l-0.1-1.3l0.4-0.6L535.8,112.9z"/>
<path class="st3" d="M363.9,330.7l1.3-0.3l2.4,2l0.7-0.1l2.4,1.6l1.8,1.4l1.5,1.8l-0.6,1.3l0.8,1.5l-0.5,1.7l-1.9,1.5l-1.6-0.5
	l-1,0.3l-2.1-1.1l-1.3,0.1l-1.5-1.4l-0.2-1.7l0.3-0.6l-0.6-2.6l0-2.7L363.9,330.7z"/>
<path class="st3" d="M156.8,190.8l-0.5,0.5l-0.4-0.5l0.4-0.9l0.1-1.1l0.2-0.3l0.5-0.5l0.1-0.6l0.2-0.3l0.1,0.1l0.6,0.6l0.3,0.3
	l0.2,0.4l0.1,1.1l-0.1,0.2l-1,0.6L156.8,190.8z M157.4,185.9l-0.8,0.2l-0.1-0.7l-0.1-0.3l0.1-0.2l0.3-0.2l0.6,0.3l0.4,0.5
	L157.4,185.9z M156.6,184.2l-0.2,0.3l-1-0.2l0.3-0.4L156.6,184.2z M155,183.6l-0.2,0.2l-0.1-0.1l-0.7-0.2l0-0.7l0-0.1l0.7-0.4
	l0.1,0.2L155,183.6z M152.4,181.3l-0.4,0.3l-0.4-0.6l0.2-0.2l0.4-0.3l0.4,0.1L152.4,181.3z M311.7,114.7l-0.5,1.5l0.3,0.5l1.1,0.3
	l1.5,0.6l1.3,0.9l1.6-0.2l1.8,0.8l0.6,0l1.9-0.6l1.2,1.1l1.2,1.1l1,1l1,0.9l-0.1,0.7l0.3,0.3l-0.2,0.3l0.4,0.1l0.5-0.3l-0.2,0.6
	l0.2,0.4l0.5,0l0.1,0.3l-0.4,0.5l1.3,1.4l-0.6,2.4l-0.6,2.3l-1.2,1.5l-1.5,1.4l-0.8,0.9l-0.2,0.3l0.1,0.4l0.5,0.5l0.5,0l2.7-1.3
	l2.1-0.3l2.9-1.2l0.1-0.3l0.1-0.8l-0.1-0.5l1-0.4l1.8,0.1l1.7,0.1l1-1l0.3-0.2l2.7-1.8l1-0.4l2.8,0.1l3.4,0.2l0.4-0.6l0.6-0.1
	l0.9-0.4l1.1-1.2l1.3-2l2.1-1.9l0.3,0.7l1.4-0.4l0.5,0.8l-1.3,3.6l0.7,1.6l0,0.9l-2.4,1.2l-2.2,0.8l-2.2,0.7l-1.5,1.5l-0.5,0.6
	l-0.5,1.4l0.1,1.4l0.8,0.1l0.1-1l0.4,0.6l-0.4,0.8l-1.4,0.4l-0.9-0.1l-1.5,0.4l-0.9,0.1l-1.1,0.1l-1.8,0.7l2.9-0.4l0.4,0.5l-2.9,0.7
	l-1.2-0.1l0.2-0.3l-0.8,0.7l0.5,0.1l-1,1.9l-2,2l0.1-0.7l-0.4-0.2l-0.4-0.7l-0.1,1.5l0.3,0.5l-0.3,1l-0.9,1l-1.7,2.1l-0.1-0.1
	l1.2-1.8l-0.6-1.1l0.5-2.2l-0.7,1.1l-0.1,1.7l-1.1-0.5l1,0.9l-0.7,2.6l0.5,0.2l-0.1,0.9l-0.5,2.7l-1.8,1.9l-2.2,0.7l-1.7,1.5l-1,0.1
	l-1.3,0.9l-0.5,0.9l-2.7,1.7l-1.5,1.2l-1.4,1.6l-0.8,1.9l-0.2,1.9l0.1,2.3l0.4,2l-0.3,1.2l0.2,3.2l-0.5,1.8l-0.3,1.1l-0.9,1.6
	l-0.7,0.3l-0.9-0.4l-0.1-1.2l-0.6-0.7l-0.5-2.4l-0.4-2.1l0-1.1l0.9-1.8l-0.2-1.5l-1-2.3l-0.7-0.4l-2.3,1.1l-0.3-0.2l-0.6-1.3
	l-1.1-0.7l-2.3,0.2l-1.7-0.4l-1.6,0.1l-0.9,0.4l0.1,0.7l-0.4,1.1l0.3,0.6l-0.5,0.3l-0.6-0.4l-0.9,0.5l-1.4-0.2l-1.1-1.5l-1.8,0.3
	l-1.3-0.7l-1.3,0.1l-1.9,0.6l-2.4,1.9l-2.3,1.1l-1.5,1.3l-0.8,1.2l-0.6,1.9l-0.3,1.3l0.1,1l-0.8,0l-1.3-0.7l-1.3-0.9l-0.2-1.3l0.1-2
	l-0.7-1.6l-0.2-1.7l-0.4-1.9l-1-1.2l-1.6,0l-2,2.1l-1.4-0.9l-0.7-0.9l0-1.5l-0.1-1.5l-0.7-1.3l-0.7-0.9l-0.3-1l-3.4-0.2l-0.4,1.1
	l-1.6-0.1l-3.9-0.2l-3.7-2.3l-2.4-1.6l0.4-0.5l-2.6,0.1l-2.3,0.1l0.3-1.4l-0.5-1.7l-0.7-0.4l0.2-0.8l-1-0.2l-0.3-0.8l-1.6-0.4
	l-0.3-0.5l0.5-1.5l-0.4-3l0.4-4l0.4-0.6l-0.3-1l-0.1-2.5l1-2.3l-0.1-1.6l1.7-2.2l1.4-2.4l0.7-2.2l2.3-2.5l1.8-2.4l1.8-2.4l2.2-3.7
	l1.1-2.4l0.4-1.3l0.6-0.5l1.8,1.2l-0.9,2.6l0.9-0.7l1.3-2.2l1-2.3l4.7,0.5l5,0.5l1.6,0.2l5.1,0.5l5,0.5l5.1,0.5l5.1,0.5l5.8,0.5
	l5.9,0.5l3.6,0.3l0.6-1L311.7,114.7z M237.2,83.6l-2.5,0.7l0-0.8l1.2-1.2l2.3-0.7l1.2-0.3l0.7,0.3l-0.3,0.9L237.2,83.6z M229.3,73.5
	l-1.3,0.2l-0.2-0.6l0.1-0.8l1.8-0.2l0.7,0.4L229.3,73.5z M235.1,62.9l0,0.6l1.1-0.1l0,0.8l0.7,0.6l-0.5,0.2l-1.6,0.3l-0.1-0.7
	l0.2-0.5l-1.2-0.1l0-0.3L235.1,62.9z M279.6,50.1l-0.8,1.1l1.2-0.3l1.7,0.4l-0.9,0.5l1.1,0.6l1.5,0l1.3,1.1l1.9,0.5l0.5,0.4l2.1-0.1
	l0.8,0.9l0.8,0.5l-11.5,8.7l-16.5,13.9l1.3,0.3l0.6,0.9l-0.2,1.2l-0.5,1.8l2.8-1.2l2.3-0.6l-0.6,1.4l-0.1,1.2l0.2,1.3l-0.9,2
	l-1.3,3.1l1,2l-1.4,1.6l-2,1.1l0-1.1l-0.6-1L265,90l0.1-2.3l1.6-2.5l-1.2-0.4l-2.2-0.4l-0.9-1l-0.1-3l-0.8-0.7l-1.4-1.3l-2.1-0.1
	l-1.3-1.6l-0.3-1.3l-2.1,0.3l-1.8,1.8l-0.9,0l-2.2,0.3l-2.2,0.6l-2.1,0.3l1.6-1.5L250,75l2.3-0.5l0.4-0.7l-3.3,1.1l-2.9,1.5l-4,1.4
	l-0.5,1.4l-3.4,1.6l-2.7,0.8l-2.3,0.5L232,83l-3.7,0.9l-1.8,1.1l-2.9,0.8l-0.7-0.4l-2.1,0.5l-2.4,0.6l-2.1,0.6l-3.2,0.3l0.3-0.5
	l2.9-0.9l2.3-0.5l3.1-1.1l2,0l1.9-0.9l3.7-1.2l0.9-0.4l2.1-0.7l2.5-1.8l2.5-1.3l-2.4,0.5l0.1-0.5l-1.8,0.8l0.7-1.4l-1.5,0.8l1.1-1.3
	l-2.6,0.7l-0.8-0.2l1.8-1.5l1.4-0.8l0.3-1l-2.3,0.1l0.5-1.3l-0.1-0.7l1.9-1.4l0.5-1.2l2.4-1.3l2.9-1.1l2.2-1.1l1.2,0l0.3,0.5
	l2.6-0.9l0.6,0.4l1.9-0.5l1.3-1.1l-0.1-0.5l2.2-0.7l-0.8-0.1l-2,0.3l-1.1,0.4l-0.2-0.7l-2-0.1l-0.9-0.9l0.9-1l0.6-1.6l3.1-0.6
	l4.2-0.6l0.9,0.2l-1.9,1.1l2.6,0.4l1.2-1.6l-0.1-1.1l1-1.3l0.5-1.1l-0.4-1l2.5-1l2,0.3l3-0.7l2-1l2.8-0.8l1.5-0.1l3.6-0.6l0.8,0.3
	l3.5-0.9L279.6,50.1z"/>
<path class="st5" d="M609.3,149.7l-0.4-1.6l-2.9-1l-2.4-1.2l-1.6-1.2l-2.7-1.7l-1.7-2.7l-0.8-0.5l-2,0.2l-0.9-0.5l-0.8-2.1l-2.9-1.3
	l-1.2,1.6l-1.4,1l0.7,1.3l-2.1,0.1l-2.7-9.7l4.3-1.7l0.4,0.2l3.4,1.8l1.8,0.9l2.5,2.3l2.1-0.5l3.1-0.3l2.8,1.8l0.7,2.7l0.9,0
	l1.1,2.2l2.4,0l0.9,1.2l0.7,0l0.2-1.9l1.9-2l0.9-0.5l0.6,0.2l-1,1.8l1.7,0.9l1.1-0.7l2.7,1.3l-1.8,2l-1.5-0.2l-0.8,0.1l-0.5-0.7
	l0-1.3l-2.3,0.7l-0.1,1.7l-0.5,1.5l-1.6-0.1l-0.1,1.2l1.6,0.6l1,2l-0.3,2.7l-1.6-0.5L609.3,149.7z"/>
<path class="st2" d="M328.6,218.1l-0.1,0.6l-1.3,0.3l0.6,1.2l-0.1,1.4l-1.1,1.6l0.7,2.2l0.9-0.2l0.6-1.9l-0.6-1l0.1-2l2.7-1.1
	l-0.2-1.3l0.8-0.8l0.6,1.9l1.5,0.1l1.3,1.5l0,0.9l1.9,0l2.3-0.2l1.1,1.2l1.6,0.4l1.3-0.8l0.1-0.7l2.6-0.1l2.5,0l-1.9,0.8l0.6,1.3
	l1.7,0.2l1.5,1.3l0.2,2.2l1.1-0.1l0.8,0.6l-1.8,1.6l-0.2,1l0.7,1l-0.6,0.5l-1.3,0.4l0,1.2l-0.6,0.7l1.4,2l0.3,0.8l-0.8,1l-2.4,1
	l-1.5,0.4l-0.6,0.6l-1.7-0.7l-1.6-0.4l-0.4,0.2l0.9,0.7l-0.1,1.8l0.3,1.7l1.8,0.2l0.1,0.6l-1.5,0.8l-0.3,1.1l-0.9,0.4l-1.6,0.6
	l-0.4,0.8l-1.7,0.2l-1.2-1.4l-0.6-2.7l-0.6-0.9l-0.8-0.6l1.1-1.3l-0.1-0.6l-0.6-0.8l-0.4-1.8l0.2-1.9l0.5-0.9l0.4-1.4l-0.7-0.5
	l-1.2,0.3l-1.5-0.2l-0.9,0.3l-1.4-2.3l-1.2-0.4l-2.8,0.2l-0.5-0.9l-0.5-0.2l0-0.6l0.3-1l-0.1-1.1l-0.4-0.6l-0.2-1.2l-1.1-0.2
	l0.7-1.6l0.4-1.9l0.7-1l0.9-0.8l0.7-1.3L328.6,218.1z"/>
<path class="st2" d="M703.9,189.1l-2.2,2.5l-1.1,2.7l0,2l2.2,2.9l2.7,3.6l2.2,1.7l1.7,2.2l1.8,5.2l0.4,5l-1.5,1.9l-2.2,1.9l-1.5,2.4
	l-2.4,2.7l-1-1.8l0.4-1.9l-1.8-1.6l1.7-1.2l2.2-0.3l-1.1-1.7l3.3-2.3l-0.2-3.4l-0.8-1.9l-0.1-2.8l-0.9-2l-1.9-1.9l-1.8-2.4l-2.4-3.3
	l-2.8-1.6l0.4-1l1.2-0.8l-1.4-2.4l-2.5,0.1l-1.5-2.5l-1.7-2.1l0.9-0.7l1.6-0.1l1.9-0.4l1.4-1.6l1.3,1l2,0.4l0.1,1.6l1.3,1.1
	L703.9,189.1z"/>
<path class="st2" d="M831.1,302.9l-0.8,0.4l-0.2-1.4l0.3-0.8L831.1,302.9z M831.1,298l-0.4,2.6l-0.4-0.4l-0.5,0.1l0-0.9l0.7-2.4
	L831.1,298z"/>
<path class="st2" d="M551,164.6l0.2,1.6L551,167l-0.9,0.4l0-0.7l0.5-0.4l-0.5-0.3l0.2-1.8L551,164.6z"/>
<path class="st0" d="M591.8,205.6l-1.5,0.7l-0.3,1.2l0,0.9l-2,1.2l-3.3,1.3l-1.8,1.9l-0.9,0.2l-0.6-0.2l-1.2,1.1l-1.3,0.5l-1.8,0.2
	l-0.5,0.2l-0.4,0.7l-0.5,0.2l-0.3,0.7l-1.1,0l-0.7,0.4l-1.5-0.1l-0.6-1.5l0-1.4l-0.4-0.8l-0.5-2l-0.7-1.1l0.4-0.1l-0.3-1.2l0.2-0.5
	l-0.2-1.2l0.9-0.9l-0.3-1.1l0.5-1.3l0.9,0.7l0.6-0.2l2.4-0.1l0.4,0.3l2.1,0.2l0.8-0.1l0.6,0.9l0.9-0.5l1.3-2.8l1.8-1.2l5.9-1.1
	l2.1,4.4L591.8,205.6z"/>
<path class="st1" d="M543.8,327l-0.4,0.4l-1,1.3l-0.7,1.3l-1.3,1.9l-2.5,2.7l-1.6,1.6l-1.6,1.2l-2.2,1l-1,0.1l-0.3,0.7l-1.2-0.4
	l-1,0.5l-2.1-0.5l-1.2,0.3l-0.8-0.1l-2.1,1l-1.7,0.4l-1.3,1l-0.9,0.1l-0.8-0.9l-0.7-0.1l-0.8-1.2l-0.1,0.4l-0.2-0.7l0.1-1.5
	l-0.5-1.8l0.7-0.5l0.1-2l-1.2-2.5l-0.9-2.2l0,0l-1.3-3.4l1-1.3l0.8,0.7l0.3,1.1l0.9,0.2l1.2,0.5l1.1-0.2l1.9-1.3l0.5-9.7l0.5,0.4
	l1.1,2.5l-0.3,1.6l0.4,0.9l1.5-0.3l1.1-1.2l1-0.8l0.6-1.3l1-0.6l0.8,0.3l0.9,0.7l1.7,0.1l1.4-0.6l0.3-0.8l0.4-1.3l1.1-0.2l0.7-1
	l0.8-1.7l2-1.9l3.1-1.9l0.8,0l1,0.5l0.7-0.3l1.1,0.3l0.7,3.7l0.4,1.9l-0.6,2.9l0.1,0.9l-1-0.5l-0.6,0.2l-0.3,0.8l-0.6,1l-0.1,0.9
	l1.1,1.4l1.2-0.3l0.5-1.2l1.5,0l-0.7,1.9l-0.4,2.2l-0.6,1.2L543.8,327z M538.8,326.2l-0.8-0.8l-1,0.5l-1.2,1l-1.2,1.7l1.3,2l0.7-0.3
	l0.4-0.8l1.2-0.4l0.4-0.9l0.7-1.3L538.8,326.2z"/>
<path class="st2" d="M549.8,274.3l1,1.2l0.5,2.2l-0.4,0.7l-0.5,2.1l0.3,2.2l-0.7,0.9l-0.8,2.4l1.1,0.7l-6.5,2.1l0.1,1.9l-1.6,0.3
	l-1.3,1l-0.3,0.9l-0.8,0.2l-1.9,2.1l-1.2,1.7l-0.7,0.1l-0.7-0.3l-2.3-0.3l-0.4-0.2l0-0.2l-0.8-0.6l-1.4-0.2l-1.7,0.6l-1.3-1.6
	l-1.3-2.2l0.4-8.4l4.4,0.1l-0.2-0.9l0.3-1l-0.3-1.2l0.3-1.3l-0.2-0.8l0.7,0.1l0.1,0.8l1-0.1l1.3,0.2l0.7,1.2l1.7,0.4l1.3-0.8
	l0.4,1.4l1.6,0.4l0.7,1.1l0.8,1.5l1.6,0l-0.1-2.8l-0.6,0.5l-1.4-1l-0.6-0.5l0.3-2.6l0.5-3.1l-0.4-1.2l0.7-1.7l0.6-0.3l2.9-0.4
	l0.8,0.3l0.9,0.7l0.8,0.4l1.3,0.4L549.8,274.3z"/>
<path class="st6" d="M544.7,308.6l-1.1-0.3l-0.7,0.3l-1-0.5l-0.8,0l-1.2-1.2l-1.6-0.4l-0.5-1.7l0-0.9l-0.9-0.3l-2.2-2.9l-0.6-1.5
	l-0.4-0.5l-0.7-2.1l2.3,0.3l0.7,0.3l0.7-0.1l1.2-1.7l1.9-2.1l0.8-0.2l0.3-0.9l1.3-1l1.6-0.3l0.1,1l1.8,0l0.9,0.6l0.4,0.7l1,0.2
	l1,0.9l-0.2,3.3l-0.5,1.8l-0.2,2l0.3,0.8l-0.3,1.5l-0.3,0.2l-0.7,1.9L544.7,308.6z"/>
</svg>
